<mxfile host="65bd71144e">
    <diagram id="ITIGnUg5uK5HDepN36hh" name="Page-1">
        <mxGraphModel dx="1930" dy="2240" grid="1" gridSize="10" guides="1" tooltips="1" connect="1" arrows="1" fold="1" page="1" pageScale="1" pageWidth="850" pageHeight="1100" math="0" shadow="0">
            <root>
                <mxCell id="0"/>
                <mxCell id="1" parent="0"/>
                <UserObject label="" mermaidData="{&#xa;  &quot;data&quot;: &quot;erDiagram\n    %% Users\n    USER {\n        int user_id PK\n        string name\n        string email\n        string password_hash\n        string phone_number\n        string role\n        string profile_photo\n        string verification_status\n        float rating\n        datetime created_at\n        datetime updated_at\n    }\n\n    %% Properties / Listings\n    PROPERTY {\n        int property_id PK\n        int host_id FK\n        string title\n        string description\n        string property_type\n        string address\n        string city\n        string country\n        string coordinates\n        float price_per_night\n        string amenities\n        string rules\n        string photos\n        datetime created_at\n        datetime updated_at\n    }\n\n    %% Bookings / Reservations\n    BOOKING {\n        int booking_id PK\n        int property_id FK\n        int guest_id FK\n        int host_id FK\n        date start_date\n        date end_date\n        string status\n        float total_price\n        string payment_status\n        datetime created_at\n        datetime updated_at\n    }\n\n    %% Payments / Transactions\n    PAYMENT {\n        int payment_id PK\n        int booking_id FK\n        float amount\n        string currency\n        string payment_method\n        string status\n        datetime transaction_date\n        datetime created_at\n        datetime updated_at\n    }\n\n    %% Reviews / Ratings\n    REVIEW {\n        int review_id PK\n        int reviewer_id FK\n        int reviewee_id FK\n        int booking_id FK\n        int rating\n        string comments\n        datetime created_at\n        datetime updated_at\n    }\n\n    %% Messages / Chat\n    MESSAGE {\n        int message_id PK\n        int sender_id FK\n        int receiver_id FK\n        int booking_id FK\n        string message_text\n        string message_type\n        string read_status\n        datetime created_at\n    }\n\n    %% Wishlist / Favorites\n    WISHLIST {\n        int wishlist_id PK\n        int user_id FK\n        int property_id FK\n        datetime added_at\n    }\n\n    %% Relationships\n    USER ||--o{ PROPERTY : \&quot;hosts\&quot;\n    USER ||--o{ BOOKING : \&quot;guest\&quot;\n    USER ||--o{ BOOKING : \&quot;host\&quot;\n    USER ||--o{ REVIEW : \&quot;reviews\&quot;\n    USER ||--o{ MESSAGE : \&quot;sender\&quot;\n    USER ||--o{ MESSAGE : \&quot;receiver\&quot;\n    USER ||--o{ WISHLIST : \&quot;owns\&quot;\n    \n    PROPERTY ||--o{ BOOKING : \&quot;has\&quot;\n    PROPERTY ||--o{ WISHLIST : \&quot;saved in\&quot;\n    PROPERTY ||--o{ REVIEW : \&quot;reviews\&quot;\n    \n    BOOKING ||--o{ PAYMENT : \&quot;pays\&quot;\n    BOOKING ||--o{ REVIEW : \&quot;reviewed in\&quot;\n    BOOKING ||--o{ MESSAGE : \&quot;related messages\&quot;\n&quot;&#xa;}" id="2">
                    <mxCell style="shape=image;noLabel=1;verticalAlign=top;imageAspect=1;image=data:image/svg+xml,PHN2ZyBhcmlhLXJvbGVkZXNjcmlwdGlvbj0iZXIiIHJvbGU9ImdyYXBoaWNzLWRvY3VtZW50IGRvY3VtZW50IiB2aWV3Qm94PSIwIDAgMTE4OS42ODE3NjI2OTUzMTI1IDE0NDgiIHN0eWxlPSJtYXgtd2lkdGg6IDExODkuNjgxNzYyNjk1MzEyNXB4OyIgeG1sbnM9Imh0dHA6Ly93d3cudzMub3JnLzIwMDAvc3ZnIiB3aWR0aD0iMTAwJSIgaWQ9ImdlTWVybWFpZE91dHB1dC0xNzU2NjM5NTI0NTAzIj48c3R5bGU+I2dlTWVybWFpZE91dHB1dC0xNzU2NjM5NTI0NTAze2ZvbnQtZmFtaWx5OiJ0cmVidWNoZXQgbXMiLHZlcmRhbmEsYXJpYWwsc2Fucy1zZXJpZjtmb250LXNpemU6MTZweDtmaWxsOiMwMDAwMDA7fSNnZU1lcm1haWRPdXRwdXQtMTc1NjYzOTUyNDUwMyAuZXJyb3ItaWNvbntmaWxsOiM1NTIyMjI7fSNnZU1lcm1haWRPdXRwdXQtMTc1NjYzOTUyNDUwMyAuZXJyb3ItdGV4dHtmaWxsOiM1NTIyMjI7c3Ryb2tlOiM1NTIyMjI7fSNnZU1lcm1haWRPdXRwdXQtMTc1NjYzOTUyNDUwMyAuZWRnZS10aGlja25lc3Mtbm9ybWFse3N0cm9rZS13aWR0aDoxcHg7fSNnZU1lcm1haWRPdXRwdXQtMTc1NjYzOTUyNDUwMyAuZWRnZS10aGlja25lc3MtdGhpY2t7c3Ryb2tlLXdpZHRoOjMuNXB4O30jZ2VNZXJtYWlkT3V0cHV0LTE3NTY2Mzk1MjQ1MDMgLmVkZ2UtcGF0dGVybi1zb2xpZHtzdHJva2UtZGFzaGFycmF5OjA7fSNnZU1lcm1haWRPdXRwdXQtMTc1NjYzOTUyNDUwMyAuZWRnZS10aGlja25lc3MtaW52aXNpYmxle3N0cm9rZS13aWR0aDowO2ZpbGw6bm9uZTt9I2dlTWVybWFpZE91dHB1dC0xNzU2NjM5NTI0NTAzIC5lZGdlLXBhdHRlcm4tZGFzaGVke3N0cm9rZS1kYXNoYXJyYXk6Mzt9I2dlTWVybWFpZE91dHB1dC0xNzU2NjM5NTI0NTAzIC5lZGdlLXBhdHRlcm4tZG90dGVke3N0cm9rZS1kYXNoYXJyYXk6Mjt9I2dlTWVybWFpZE91dHB1dC0xNzU2NjM5NTI0NTAzIC5tYXJrZXJ7ZmlsbDojNjY2O3N0cm9rZTojNjY2O30jZ2VNZXJtYWlkT3V0cHV0LTE3NTY2Mzk1MjQ1MDMgLm1hcmtlci5jcm9zc3tzdHJva2U6IzY2Njt9I2dlTWVybWFpZE91dHB1dC0xNzU2NjM5NTI0NTAzIHN2Z3tmb250LWZhbWlseToidHJlYnVjaGV0IG1zIix2ZXJkYW5hLGFyaWFsLHNhbnMtc2VyaWY7Zm9udC1zaXplOjE2cHg7fSNnZU1lcm1haWRPdXRwdXQtMTc1NjYzOTUyNDUwMyBwe21hcmdpbjowO30jZ2VNZXJtYWlkT3V0cHV0LTE3NTY2Mzk1MjQ1MDMgLmVudGl0eUJveHtmaWxsOiNlZWU7c3Ryb2tlOiM5OTk7fSNnZU1lcm1haWRPdXRwdXQtMTc1NjYzOTUyNDUwMyAuYXR0cmlidXRlQm94T2Rke2ZpbGw6I2ZmZmZmZjtzdHJva2U6Izk5OTt9I2dlTWVybWFpZE91dHB1dC0xNzU2NjM5NTI0NTAzIC5hdHRyaWJ1dGVCb3hFdmVue2ZpbGw6I2YyZjJmMjtzdHJva2U6Izk5OTt9I2dlTWVybWFpZE91dHB1dC0xNzU2NjM5NTI0NTAzIC5yZWxhdGlvbnNoaXBMYWJlbEJveHtmaWxsOmhzbCgtMTYwLCAwJSwgOTMuMzMzMzMzMzMzMyUpO29wYWNpdHk6MC43O2JhY2tncm91bmQtY29sb3I6aHNsKC0xNjAsIDAlLCA5My4zMzMzMzMzMzMzJSk7fSNnZU1lcm1haWRPdXRwdXQtMTc1NjYzOTUyNDUwMyAucmVsYXRpb25zaGlwTGFiZWxCb3ggcmVjdHtvcGFjaXR5OjAuNTt9I2dlTWVybWFpZE91dHB1dC0xNzU2NjM5NTI0NTAzIC5yZWxhdGlvbnNoaXBMaW5le3N0cm9rZTojNjY2O30jZ2VNZXJtYWlkT3V0cHV0LTE3NTY2Mzk1MjQ1MDMgLmVudGl0eVRpdGxlVGV4dHt0ZXh0LWFuY2hvcjptaWRkbGU7Zm9udC1zaXplOjE4cHg7ZmlsbDojMDAwMDAwO30jZ2VNZXJtYWlkT3V0cHV0LTE3NTY2Mzk1MjQ1MDMgI01EX1BBUkVOVF9TVEFSVHtmaWxsOiNmNWY1ZjUhaW1wb3J0YW50O3N0cm9rZTojNjY2IWltcG9ydGFudDtzdHJva2Utd2lkdGg6MTt9I2dlTWVybWFpZE91dHB1dC0xNzU2NjM5NTI0NTAzICNNRF9QQVJFTlRfRU5Ee2ZpbGw6I2Y1ZjVmNSFpbXBvcnRhbnQ7c3Ryb2tlOiM2NjYhaW1wb3J0YW50O3N0cm9rZS13aWR0aDoxO30jZ2VNZXJtYWlkT3V0cHV0LTE3NTY2Mzk1MjQ1MDMgOnJvb3R7LS1tZXJtYWlkLWZvbnQtZmFtaWx5OiJ0cmVidWNoZXQgbXMiLHZlcmRhbmEsYXJpYWwsc2Fucy1zZXJpZjt9PC9zdHlsZT48Zz48L2c+PGRlZnM+PG1hcmtlciBvcmllbnQ9ImF1dG8iIG1hcmtlckhlaWdodD0iMjQwIiBtYXJrZXJXaWR0aD0iMTkwIiByZWZZPSI3IiByZWZYPSIwIiBpZD0iTURfUEFSRU5UX1NUQVJUIj48cGF0aCBkPSJNIDE4LDcgTDksMTMgTDEsNyBMOSwxIFoiPjwvcGF0aD48L21hcmtlcj48L2RlZnM+PGRlZnM+PG1hcmtlciBvcmllbnQ9ImF1dG8iIG1hcmtlckhlaWdodD0iMjgiIG1hcmtlcldpZHRoPSIyMCIgcmVmWT0iNyIgcmVmWD0iMTkiIGlkPSJNRF9QQVJFTlRfRU5EIj48cGF0aCBkPSJNIDE4LDcgTDksMTMgTDEsNyBMOSwxIFoiPjwvcGF0aD48L21hcmtlcj48L2RlZnM+PGRlZnM+PG1hcmtlciBvcmllbnQ9ImF1dG8iIG1hcmtlckhlaWdodD0iMTgiIG1hcmtlcldpZHRoPSIxOCIgcmVmWT0iOSIgcmVmWD0iMCIgaWQ9Ik9OTFlfT05FX1NUQVJUIj48cGF0aCBkPSJNOSwwIEw5LDE4IE0xNSwwIEwxNSwxOCIgZmlsbD0ibm9uZSIgc3Ryb2tlPSJncmF5Ij48L3BhdGg+PC9tYXJrZXI+PC9kZWZzPjxkZWZzPjxtYXJrZXIgb3JpZW50PSJhdXRvIiBtYXJrZXJIZWlnaHQ9IjE4IiBtYXJrZXJXaWR0aD0iMTgiIHJlZlk9IjkiIHJlZlg9IjE4IiBpZD0iT05MWV9PTkVfRU5EIj48cGF0aCBkPSJNMywwIEwzLDE4IE05LDAgTDksMTgiIGZpbGw9Im5vbmUiIHN0cm9rZT0iZ3JheSI+PC9wYXRoPjwvbWFya2VyPjwvZGVmcz48ZGVmcz48bWFya2VyIG9yaWVudD0iYXV0byIgbWFya2VySGVpZ2h0PSIxOCIgbWFya2VyV2lkdGg9IjMwIiByZWZZPSI5IiByZWZYPSIwIiBpZD0iWkVST19PUl9PTkVfU1RBUlQiPjxjaXJjbGUgcj0iNiIgY3k9IjkiIGN4PSIyMSIgZmlsbD0id2hpdGUiIHN0cm9rZT0iZ3JheSI+PC9jaXJjbGU+PHBhdGggZD0iTTksMCBMOSwxOCIgZmlsbD0ibm9uZSIgc3Ryb2tlPSJncmF5Ij48L3BhdGg+PC9tYXJrZXI+PC9kZWZzPjxkZWZzPjxtYXJrZXIgb3JpZW50PSJhdXRvIiBtYXJrZXJIZWlnaHQ9IjE4IiBtYXJrZXJXaWR0aD0iMzAiIHJlZlk9IjkiIHJlZlg9IjMwIiBpZD0iWkVST19PUl9PTkVfRU5EIj48Y2lyY2xlIHI9IjYiIGN5PSI5IiBjeD0iOSIgZmlsbD0id2hpdGUiIHN0cm9rZT0iZ3JheSI+PC9jaXJjbGU+PHBhdGggZD0iTTIxLDAgTDIxLDE4IiBmaWxsPSJub25lIiBzdHJva2U9ImdyYXkiPjwvcGF0aD48L21hcmtlcj48L2RlZnM+PGRlZnM+PG1hcmtlciBvcmllbnQ9ImF1dG8iIG1hcmtlckhlaWdodD0iMzYiIG1hcmtlcldpZHRoPSI0NSIgcmVmWT0iMTgiIHJlZlg9IjE4IiBpZD0iT05FX09SX01PUkVfU1RBUlQiPjxwYXRoIGQ9Ik0wLDE4IFEgMTgsMCAzNiwxOCBRIDE4LDM2IDAsMTggTTQyLDkgTDQyLDI3IiBmaWxsPSJub25lIiBzdHJva2U9ImdyYXkiPjwvcGF0aD48L21hcmtlcj48L2RlZnM+PGRlZnM+PG1hcmtlciBvcmllbnQ9ImF1dG8iIG1hcmtlckhlaWdodD0iMzYiIG1hcmtlcldpZHRoPSI0NSIgcmVmWT0iMTgiIHJlZlg9IjI3IiBpZD0iT05FX09SX01PUkVfRU5EIj48cGF0aCBkPSJNMyw5IEwzLDI3IE05LDE4IFEyNywwIDQ1LDE4IFEyNywzNiA5LDE4IiBmaWxsPSJub25lIiBzdHJva2U9ImdyYXkiPjwvcGF0aD48L21hcmtlcj48L2RlZnM+PGRlZnM+PG1hcmtlciBvcmllbnQ9ImF1dG8iIG1hcmtlckhlaWdodD0iMzYiIG1hcmtlcldpZHRoPSI1NyIgcmVmWT0iMTgiIHJlZlg9IjE4IiBpZD0iWkVST19PUl9NT1JFX1NUQVJUIj48Y2lyY2xlIHI9IjYiIGN5PSIxOCIgY3g9IjQ4IiBmaWxsPSJ3aGl0ZSIgc3Ryb2tlPSJncmF5Ij48L2NpcmNsZT48cGF0aCBkPSJNMCwxOCBRMTgsMCAzNiwxOCBRMTgsMzYgMCwxOCIgZmlsbD0ibm9uZSIgc3Ryb2tlPSJncmF5Ij48L3BhdGg+PC9tYXJrZXI+PC9kZWZzPjxkZWZzPjxtYXJrZXIgb3JpZW50PSJhdXRvIiBtYXJrZXJIZWlnaHQ9IjM2IiBtYXJrZXJXaWR0aD0iNTciIHJlZlk9IjE4IiByZWZYPSIzOSIgaWQ9IlpFUk9fT1JfTU9SRV9FTkQiPjxjaXJjbGUgcj0iNiIgY3k9IjE4IiBjeD0iOSIgZmlsbD0id2hpdGUiIHN0cm9rZT0iZ3JheSI+PC9jaXJjbGU+PHBhdGggZD0iTTIxLDE4IFEzOSwwIDU3LDE4IFEzOSwzNiAyMSwxOCIgZmlsbD0ibm9uZSIgc3Ryb2tlPSJncmF5Ij48L3BhdGg+PC9tYXJrZXI+PC9kZWZzPjxwYXRoIHN0eWxlPSJzdHJva2U6IGdyYXk7IGZpbGw6IG5vbmU7IiBtYXJrZXItc3RhcnQ9InVybCgjT05MWV9PTkVfU1RBUlQpIiBtYXJrZXItZW5kPSJ1cmwoI1pFUk9fT1JfTU9SRV9FTkQpIiBkPSJNNjUxLjAxMiwyMDQuNDYxTDYxNC40MjMsMjI2LjM4NEM1NzcuODM0LDI0OC4zMDcsNTA0LjY1NSwyOTIuMTU0LDQ2OC4wNjYsMzIyLjQxQzQzMS40NzcsMzUyLjY2Nyw0MzEuNDc3LDM2OS4zMzMsNDMxLjQ3NywzNzcuNjY3TDQzMS40NzcsMzg2IiBjbGFzcz0iZXIgcmVsYXRpb25zaGlwTGluZSI+PC9wYXRoPjxwYXRoIHN0eWxlPSJzdHJva2U6IGdyYXk7IGZpbGw6IG5vbmU7IiBtYXJrZXItc3RhcnQ9InVybCgjT05MWV9PTkVfU1RBUlQpIiBtYXJrZXItZW5kPSJ1cmwoI1pFUk9fT1JfTU9SRV9FTkQpIiBkPSJNNjUxLjAxMiwxODUuNDQ1TDU4NC41ODksMjEwLjUzOEM1MTguMTY1LDIzNS42MywzODUuMzE5LDI4NS44MTUsMzE4Ljg5NiwzNDguNzQxQzI1Mi40NzMsNDExLjY2NywyNTIuNDczLDQ4Ny4zMzMsMjUyLjQ3Myw1NjNDMjUyLjQ3Myw2MzguNjY3LDI1Mi40NzMsNzE0LjMzMywyNTAuMTk2LDc2MC41QzI0Ny45MTksODA2LjY2NywyNDMuMzY1LDgyMy4zMzMsMjQxLjA4OCw4MzEuNjY3TDIzOC44MTEsODQwIiBjbGFzcz0iZXIgcmVsYXRpb25zaGlwTGluZSI+PC9wYXRoPjxwYXRoIHN0eWxlPSJzdHJva2U6IGdyYXk7IGZpbGw6IG5vbmU7IiBtYXJrZXItc3RhcnQ9InVybCgjT05MWV9PTkVfU1RBUlQpIiBtYXJrZXItZW5kPSJ1cmwoI1pFUk9fT1JfTU9SRV9FTkQpIiBkPSJNNjUxLjAxMiwxNzkuODkzTDU2Ny45MjIsMjA1LjkxMUM0ODQuODMyLDIzMS45MjksMzE4LjY1MiwyODMuOTY0LDIzNS41NjIsMzQ3LjgxNkMxNTIuNDczLDQxMS42NjcsMTUyLjQ3Myw0ODcuMzMzLDE1Mi40NzMsNTYzQzE1Mi40NzMsNjM4LjY2NywxNTIuNDczLDcxNC4zMzMsMTU0Ljc0OSw3NjAuNUMxNTcuMDI2LDgwNi42NjcsMTYxLjU4LDgyMy4zMzMsMTYzLjg1Nyw4MzEuNjY3TDE2Ni4xMzQsODQwIiBjbGFzcz0iZXIgcmVsYXRpb25zaGlwTGluZSI+PC9wYXRoPjxwYXRoIHN0eWxlPSJzdHJva2U6IGdyYXk7IGZpbGw6IG5vbmU7IiBtYXJrZXItc3RhcnQ9InVybCgjT05MWV9PTkVfU1RBUlQpIiBtYXJrZXItZW5kPSJ1cmwoI1pFUk9fT1JfTU9SRV9FTkQpIiBkPSJNODE1LjUyNiwyODZMODIwLjQ1MywyOTQuMzMzQzgyNS4zOCwzMDIuNjY3LDgzNS4yMzMsMzE5LjMzMyw4NDAuMTU5LDM2NS41Qzg0NS4wODYsNDExLjY2Nyw4NDUuMDg2LDQ4Ny4zMzMsODQ1LjA4Niw1NjNDODQ1LjA4Niw2MzguNjY3LDg0NS4wODYsNzE0LjMzMyw4NDUuMDg2LDc4Mi42NjdDODQ1LjA4Niw4NTEsODQ1LjA4Niw5MTIsODQ1LjA4Niw5NzNDODQ1LjA4NiwxMDM0LDg0NS4wODYsMTA5NSw4MzguNzcxLDExMzUuNjY3QzgzMi40NTYsMTE3Ni4zMzMsODE5LjgyNywxMTk2LjY2Nyw4MTMuNTEyLDEyMDYuODMzTDgwNy4xOTgsMTIxNyIgY2xhc3M9ImVyIHJlbGF0aW9uc2hpcExpbmUiPjwvcGF0aD48cGF0aCBzdHlsZT0ic3Ryb2tlOiBncmF5OyBmaWxsOiBub25lOyIgbWFya2VyLXN0YXJ0PSJ1cmwoI09OTFlfT05FX1NUQVJUKSIgbWFya2VyLWVuZD0idXJsKCNaRVJPX09SX01PUkVfRU5EKSIgZD0iTTgyMi43ODUsMTkxLjUwNUw4NzYuNTAyLDIxNS41ODhDOTMwLjIxOSwyMzkuNjcsMTAzNy42NTIsMjg3LjgzNSwxMDkxLjM2OSwzNDkuNzUxQzExNDUuMDg2LDQxMS42NjcsMTE0NS4wODYsNDg3LjMzMywxMTQ1LjA4Niw1NjNDMTE0NS4wODYsNjM4LjY2NywxMTQ1LjA4Niw3MTQuMzMzLDExNDUuMDg2LDc4Mi42NjdDMTE0NS4wODYsODUxLDExNDUuMDg2LDkxMiwxMTQ1LjA4Niw5NzNDMTE0NS4wODYsMTAzNCwxMTQ1LjA4NiwxMDk1LDExNDEuOTI4LDExMzUuNjY3QzExMzguNzcxLDExNzYuMzMzLDExMzIuNDU2LDExOTYuNjY3LDExMjkuMjk5LDEyMDYuODMzTDExMjYuMTQyLDEyMTciIGNsYXNzPSJlciByZWxhdGlvbnNoaXBMaW5lIj48L3BhdGg+PHBhdGggc3R5bGU9InN0cm9rZTogZ3JheTsgZmlsbDogbm9uZTsiIG1hcmtlci1zdGFydD0idXJsKCNPTkxZX09ORV9TVEFSVCkiIG1hcmtlci1lbmQ9InVybCgjWkVST19PUl9NT1JFX0VORCkiIGQ9Ik04MjIuNzg1LDIwMy45OTlMODU5LjgzNSwyMjUuOTk5Qzg5Ni44ODUsMjQ3Ljk5OSw5NzAuOTg2LDI5MiwxMDA4LjAzNiwzNTEuODMzQzEwNDUuMDg2LDQxMS42NjcsMTA0NS4wODYsNDg3LjMzMywxMDQ1LjA4Niw1NjNDMTA0NS4wODYsNjM4LjY2NywxMDQ1LjA4Niw3MTQuMzMzLDEwNDUuMDg2LDc4Mi42NjdDMTA0NS4wODYsODUxLDEwNDUuMDg2LDkxMiwxMDQ1LjA4Niw5NzNDMTA0NS4wODYsMTAzNCwxMDQ1LjA4NiwxMDk1LDEwNDguMjQzLDExMzUuNjY3QzEwNTEuNCwxMTc2LjMzMywxMDU3LjcxNSwxMTk2LjY2NywxMDYwLjg3MywxMjA2LjgzM0wxMDY0LjAzLDEyMTciIGNsYXNzPSJlciByZWxhdGlvbnNoaXBMaW5lIj48L3BhdGg+PHBhdGggc3R5bGU9InN0cm9rZTogZ3JheTsgZmlsbDogbm9uZTsiIG1hcmtlci1zdGFydD0idXJsKCNPTkxZX09ORV9TVEFSVCkiIG1hcmtlci1lbmQ9InVybCgjWkVST19PUl9NT1JFX0VORCkiIGQ9Ik02NTEuMDEyLDI3Ny4zMjhMNjQ0LjI1NywyODcuMTA3QzYzNy41MDIsMjk2Ljg4NSw2MjMuOTkxLDMxNi40NDMsNjE3LjIzNiwzNjQuMDU1QzYxMC40ODEsNDExLjY2Nyw2MTAuNDgxLDQ4Ny4zMzMsNjEwLjQ4MSw1NjNDNjEwLjQ4MSw2MzguNjY3LDYxMC40ODEsNzE0LjMzMyw2MDYuNDc4LDc3My4zMzNDNjAyLjQ3Niw4MzIuMzMzLDU5NC40NzEsODc0LjY2Nyw1OTAuNDY4LDg5NS44MzNMNTg2LjQ2Niw5MTciIGNsYXNzPSJlciByZWxhdGlvbnNoaXBMaW5lIj48L3BhdGg+PHBhdGggc3R5bGU9InN0cm9rZTogZ3JheTsgZmlsbDogbm9uZTsiIG1hcmtlci1zdGFydD0idXJsKCNPTkxZX09ORV9TVEFSVCkiIG1hcmtlci1lbmQ9InVybCgjWkVST19PUl9NT1JFX0VORCkiIGQ9Ik0zNTIuNDczLDYxMC4zMTlMMzAyLjQ3Myw2NDAuMjY2QzI1Mi40NzMsNjcwLjIxMiwxNTIuNDczLDczMC4xMDYsMTE0LjMwOCw3NzQuNDkyQzc2LjE0NCw4MTguODc5LDk5LjgxNSw4NDcuNzU3LDExMS42NSw4NjIuMTk3TDEyMy40ODYsODc2LjYzNiIgY2xhc3M9ImVyIHJlbGF0aW9uc2hpcExpbmUiPjwvcGF0aD48cGF0aCBzdHlsZT0ic3Ryb2tlOiBncmF5OyBmaWxsOiBub25lOyIgbWFya2VyLXN0YXJ0PSJ1cmwoI09OTFlfT05FX1NUQVJUKSIgbWFya2VyLWVuZD0idXJsKCNaRVJPX09SX01PUkVfRU5EKSIgZD0iTTQzMS40NzcsNzQwTDQzMS40NzcsNzQ4LjMzM0M0MzEuNDc3LDc1Ni42NjcsNDMxLjQ3Nyw3NzMuMzMzLDQ0OC4xNzksODAyLjgzM0M0NjQuODgxLDgzMi4zMzMsNDk4LjI4NSw4NzQuNjY3LDUxNC45ODYsODk1LjgzM0w1MzEuNjg4LDkxNyIgY2xhc3M9ImVyIHJlbGF0aW9uc2hpcExpbmUiPjwvcGF0aD48cGF0aCBzdHlsZT0ic3Ryb2tlOiBncmF5OyBmaWxsOiBub25lOyIgbWFya2VyLXN0YXJ0PSJ1cmwoI09OTFlfT05FX1NUQVJUKSIgbWFya2VyLWVuZD0idXJsKCNaRVJPX09SX01PUkVfRU5EKSIgZD0iTTUxMC40ODEsNjIwLjE4Nkw1NDkuNTgyLDY0OC40ODhDNTg4LjY4Myw2NzYuNzksNjY2Ljg4NCw3MzMuMzk1LDcwNS45ODUsNzkyLjE5OEM3NDUuMDg2LDg1MSw3NDUuMDg2LDkxMiw3NDUuMDg2LDk3M0M3NDUuMDg2LDEwMzQsNzQ1LjA4NiwxMDk1LDc0NS4wODYsMTEzNS42NjdDNzQ1LjA4NiwxMTc2LjMzMyw3NDUuMDg2LDExOTYuNjY3LDc0NS4wODYsMTIwNi44MzNMNzQ1LjA4NiwxMjE3IiBjbGFzcz0iZXIgcmVsYXRpb25zaGlwTGluZSI+PC9wYXRoPjxwYXRoIHN0eWxlPSJzdHJva2U6IGdyYXk7IGZpbGw6IG5vbmU7IiBtYXJrZXItc3RhcnQ9InVybCgjT05MWV9PTkVfU1RBUlQpIiBtYXJrZXItZW5kPSJ1cmwoI1pFUk9fT1JfTU9SRV9FTkQpIiBkPSJNMTI5Ljc5NSwxMTA2TDEyNS4yNDEsMTExNC4zMzNDMTIwLjY4OCwxMTIyLjY2NywxMTEuNTgsMTEzOS4zMzMsMTA3LjAyNiwxMTU2QzEwMi40NzMsMTE3Mi42NjcsMTAyLjQ3MywxMTg5LjMzMywxMDIuNDczLDExOTcuNjY3TDEwMi40NzMsMTIwNiIgY2xhc3M9ImVyIHJlbGF0aW9uc2hpcExpbmUiPjwvcGF0aD48cGF0aCBzdHlsZT0ic3Ryb2tlOiBncmF5OyBmaWxsOiBub25lOyIgbWFya2VyLXN0YXJ0PSJ1cmwoI09OTFlfT05FX1NUQVJUKSIgbWFya2VyLWVuZD0idXJsKCNaRVJPX09SX01PUkVfRU5EKSIgZD0iTTI1OC4wMTEsMTEwNkwyNjEuNDkxLDExMTQuMzMzQzI2NC45NzEsMTEyMi42NjcsMjcxLjkzLDExMzkuMzMzLDM0MS4zODIsMTE3MC40NUM0MTAuODM0LDEyMDEuNTY3LDU0Mi43NzksMTI0Ny4xMzQsNjA4Ljc1MSwxMjY5LjkxN0w2NzQuNzIzLDEyOTIuNyIgY2xhc3M9ImVyIHJlbGF0aW9uc2hpcExpbmUiPjwvcGF0aD48cGF0aCBzdHlsZT0ic3Ryb2tlOiBncmF5OyBmaWxsOiBub25lOyIgbWFya2VyLXN0YXJ0PSJ1cmwoI09OTFlfT05FX1NUQVJUKSIgbWFya2VyLWVuZD0idXJsKCNaRVJPX09SX01PUkVfRU5EKSIgZD0iTTI4MS40NTksOTkyLjQ2NEwzOTIuMDY0LDEwMTkuNzJDNTAyLjY2OCwxMDQ2Ljk3Niw3MjMuODc3LDExMDEuNDg4LDg0Ny4wNDksMTE0Mi4yMzNDOTcwLjIyLDExODIuOTc4LDk5NS4zNTUsMTIwOS45NTYsMTAwNy45MjIsMTIyMy40NDVMMTAyMC40OSwxMjM2LjkzNCIgY2xhc3M9ImVyIHJlbGF0aW9uc2hpcExpbmUiPjwvcGF0aD48ZyB0cmFuc2Zvcm09InRyYW5zbGF0ZSg2NTEuMDExODk4MDQwNzcxNSwyMCApIiBpZD0iZW50aXR5LVVTRVItNmU3ZTI5NjItMGM2Zi01NzdkLWE3ZmQtMmNlM2EwY2ZkMmM4Ij48cmVjdCBoZWlnaHQ9IjI2NiIgd2lkdGg9IjE3MS43NzMzMDAxNzA4OTg0NCIgeT0iMCIgeD0iMCIgY2xhc3M9ImVyIGVudGl0eUJveCI+PC9yZWN0Pjx0ZXh0IHN0eWxlPSJkb21pbmFudC1iYXNlbGluZTogbWlkZGxlOyB0ZXh0LWFuY2hvcjogbWlkZGxlOyBmb250LXNpemU6IDEycHg7IiB0cmFuc2Zvcm09InRyYW5zbGF0ZSg4NS44ODY2NTAwODU0NDkyMiwxMikiIHk9IjAiIHg9IjAiIGlkPSJ0ZXh0LWVudGl0eS1VU0VSLTZlN2UyOTYyLTBjNmYtNTc3ZC1hN2ZkLTJjZTNhMGNmZDJjOCIgY2xhc3M9ImVyIGVudGl0eUxhYmVsIj5VU0VSPC90ZXh0PjxyZWN0IGhlaWdodD0iMjIiIHdpZHRoPSI1Mi4wNjg0OTY3MDQxMDE1NiIgeT0iMjQiIHg9IjAiIGNsYXNzPSJlciBhdHRyaWJ1dGVCb3hPZGQiPjwvcmVjdD48dGV4dCBzdHlsZT0iZG9taW5hbnQtYmFzZWxpbmU6IG1pZGRsZTsgZm9udC1zaXplOiAxMC4ycHg7IiB0cmFuc2Zvcm09InRyYW5zbGF0ZSg1LDM1KSIgeT0iMCIgeD0iMCIgaWQ9InRleHQtZW50aXR5LVVTRVItNmU3ZTI5NjItMGM2Zi01NzdkLWE3ZmQtMmNlM2EwY2ZkMmM4LWF0dHItMS10eXBlIiBjbGFzcz0iZXIgZW50aXR5TGFiZWwiPmludDwvdGV4dD48cmVjdCBoZWlnaHQ9IjIyIiB3aWR0aD0iOTcuMDE3MTIwMzYxMzI4MTIiIHk9IjI0IiB4PSI1Mi4wNjg0OTY3MDQxMDE1NiIgY2xhc3M9ImVyIGF0dHJpYnV0ZUJveE9kZCI+PC9yZWN0Pjx0ZXh0IHN0eWxlPSJkb21pbmFudC1iYXNlbGluZTogbWlkZGxlOyBmb250LXNpemU6IDEwLjJweDsiIHRyYW5zZm9ybT0idHJhbnNsYXRlKDU3LjA2ODQ5NjcwNDEwMTU2LDM1KSIgeT0iMCIgeD0iMCIgaWQ9InRleHQtZW50aXR5LVVTRVItNmU3ZTI5NjItMGM2Zi01NzdkLWE3ZmQtMmNlM2EwY2ZkMmM4LWF0dHItMS1uYW1lIiBjbGFzcz0iZXIgZW50aXR5TGFiZWwiPnVzZXJfaWQ8L3RleHQ+PHJlY3QgaGVpZ2h0PSIyMiIgd2lkdGg9IjIyLjY4NzY4MzEwNTQ2ODc1IiB5PSIyNCIgeD0iMTQ5LjA4NTYxNzA2NTQyOTciIGNsYXNzPSJlciBhdHRyaWJ1dGVCb3hPZGQiPjwvcmVjdD48dGV4dCBzdHlsZT0iZG9taW5hbnQtYmFzZWxpbmU6IG1pZGRsZTsgZm9udC1zaXplOiAxMC4ycHg7IiB0cmFuc2Zvcm09InRyYW5zbGF0ZSgxNTQuMDg1NjE3MDY1NDI5NywzNSkiIHk9IjAiIHg9IjAiIGlkPSJ0ZXh0LWVudGl0eS1VU0VSLTZlN2UyOTYyLTBjNmYtNTc3ZC1hN2ZkLTJjZTNhMGNmZDJjOC1hdHRyLTEta2V5IiBjbGFzcz0iZXIgZW50aXR5TGFiZWwiPlBLPC90ZXh0PjxyZWN0IGhlaWdodD0iMjIiIHdpZHRoPSI1Mi4wNjg0OTY3MDQxMDE1NiIgeT0iNDYiIHg9IjAiIGNsYXNzPSJlciBhdHRyaWJ1dGVCb3hFdmVuIj48L3JlY3Q+PHRleHQgc3R5bGU9ImRvbWluYW50LWJhc2VsaW5lOiBtaWRkbGU7IGZvbnQtc2l6ZTogMTAuMnB4OyIgdHJhbnNmb3JtPSJ0cmFuc2xhdGUoNSw1NykiIHk9IjAiIHg9IjAiIGlkPSJ0ZXh0LWVudGl0eS1VU0VSLTZlN2UyOTYyLTBjNmYtNTc3ZC1hN2ZkLTJjZTNhMGNmZDJjOC1hdHRyLTItdHlwZSIgY2xhc3M9ImVyIGVudGl0eUxhYmVsIj5zdHJpbmc8L3RleHQ+PHJlY3QgaGVpZ2h0PSIyMiIgd2lkdGg9Ijk3LjAxNzEyMDM2MTMyODEyIiB5PSI0NiIgeD0iNTIuMDY4NDk2NzA0MTAxNTYiIGNsYXNzPSJlciBhdHRyaWJ1dGVCb3hFdmVuIj48L3JlY3Q+PHRleHQgc3R5bGU9ImRvbWluYW50LWJhc2VsaW5lOiBtaWRkbGU7IGZvbnQtc2l6ZTogMTAuMnB4OyIgdHJhbnNmb3JtPSJ0cmFuc2xhdGUoNTcuMDY4NDk2NzA0MTAxNTYsNTcpIiB5PSIwIiB4PSIwIiBpZD0idGV4dC1lbnRpdHktVVNFUi02ZTdlMjk2Mi0wYzZmLTU3N2QtYTdmZC0yY2UzYTBjZmQyYzgtYXR0ci0yLW5hbWUiIGNsYXNzPSJlciBlbnRpdHlMYWJlbCI+bmFtZTwvdGV4dD48cmVjdCBoZWlnaHQ9IjIyIiB3aWR0aD0iMjIuNjg3NjgzMTA1NDY4NzUiIHk9IjQ2IiB4PSIxNDkuMDg1NjE3MDY1NDI5NyIgY2xhc3M9ImVyIGF0dHJpYnV0ZUJveEV2ZW4iPjwvcmVjdD48dGV4dCBzdHlsZT0iZG9taW5hbnQtYmFzZWxpbmU6IG1pZGRsZTsgZm9udC1zaXplOiAxMC4ycHg7IiB0cmFuc2Zvcm09InRyYW5zbGF0ZSgxNTQuMDg1NjE3MDY1NDI5Nyw1NykiIHk9IjAiIHg9IjAiIGlkPSJ0ZXh0LWVudGl0eS1VU0VSLTZlN2UyOTYyLTBjNmYtNTc3ZC1hN2ZkLTJjZTNhMGNmZDJjOC1hdHRyLTIta2V5IiBjbGFzcz0iZXIgZW50aXR5TGFiZWwiPjwvdGV4dD48cmVjdCBoZWlnaHQ9IjIyIiB3aWR0aD0iNTIuMDY4NDk2NzA0MTAxNTYiIHk9IjY4IiB4PSIwIiBjbGFzcz0iZXIgYXR0cmlidXRlQm94T2RkIj48L3JlY3Q+PHRleHQgc3R5bGU9ImRvbWluYW50LWJhc2VsaW5lOiBtaWRkbGU7IGZvbnQtc2l6ZTogMTAuMnB4OyIgdHJhbnNmb3JtPSJ0cmFuc2xhdGUoNSw3OSkiIHk9IjAiIHg9IjAiIGlkPSJ0ZXh0LWVudGl0eS1VU0VSLTZlN2UyOTYyLTBjNmYtNTc3ZC1hN2ZkLTJjZTNhMGNmZDJjOC1hdHRyLTMtdHlwZSIgY2xhc3M9ImVyIGVudGl0eUxhYmVsIj5zdHJpbmc8L3RleHQ+PHJlY3QgaGVpZ2h0PSIyMiIgd2lkdGg9Ijk3LjAxNzEyMDM2MTMyODEyIiB5PSI2OCIgeD0iNTIuMDY4NDk2NzA0MTAxNTYiIGNsYXNzPSJlciBhdHRyaWJ1dGVCb3hPZGQiPjwvcmVjdD48dGV4dCBzdHlsZT0iZG9taW5hbnQtYmFzZWxpbmU6IG1pZGRsZTsgZm9udC1zaXplOiAxMC4ycHg7IiB0cmFuc2Zvcm09InRyYW5zbGF0ZSg1Ny4wNjg0OTY3MDQxMDE1Niw3OSkiIHk9IjAiIHg9IjAiIGlkPSJ0ZXh0LWVudGl0eS1VU0VSLTZlN2UyOTYyLTBjNmYtNTc3ZC1hN2ZkLTJjZTNhMGNmZDJjOC1hdHRyLTMtbmFtZSIgY2xhc3M9ImVyIGVudGl0eUxhYmVsIj5lbWFpbDwvdGV4dD48cmVjdCBoZWlnaHQ9IjIyIiB3aWR0aD0iMjIuNjg3NjgzMTA1NDY4NzUiIHk9IjY4IiB4PSIxNDkuMDg1NjE3MDY1NDI5NyIgY2xhc3M9ImVyIGF0dHJpYnV0ZUJveE9kZCI+PC9yZWN0Pjx0ZXh0IHN0eWxlPSJkb21pbmFudC1iYXNlbGluZTogbWlkZGxlOyBmb250LXNpemU6IDEwLjJweDsiIHRyYW5zZm9ybT0idHJhbnNsYXRlKDE1NC4wODU2MTcwNjU0Mjk3LDc5KSIgeT0iMCIgeD0iMCIgaWQ9InRleHQtZW50aXR5LVVTRVItNmU3ZTI5NjItMGM2Zi01NzdkLWE3ZmQtMmNlM2EwY2ZkMmM4LWF0dHItMy1rZXkiIGNsYXNzPSJlciBlbnRpdHlMYWJlbCI+PC90ZXh0PjxyZWN0IGhlaWdodD0iMjIiIHdpZHRoPSI1Mi4wNjg0OTY3MDQxMDE1NiIgeT0iOTAiIHg9IjAiIGNsYXNzPSJlciBhdHRyaWJ1dGVCb3hFdmVuIj48L3JlY3Q+PHRleHQgc3R5bGU9ImRvbWluYW50LWJhc2VsaW5lOiBtaWRkbGU7IGZvbnQtc2l6ZTogMTAuMnB4OyIgdHJhbnNmb3JtPSJ0cmFuc2xhdGUoNSwxMDEpIiB5PSIwIiB4PSIwIiBpZD0idGV4dC1lbnRpdHktVVNFUi02ZTdlMjk2Mi0wYzZmLTU3N2QtYTdmZC0yY2UzYTBjZmQyYzgtYXR0ci00LXR5cGUiIGNsYXNzPSJlciBlbnRpdHlMYWJlbCI+c3RyaW5nPC90ZXh0PjxyZWN0IGhlaWdodD0iMjIiIHdpZHRoPSI5Ny4wMTcxMjAzNjEzMjgxMiIgeT0iOTAiIHg9IjUyLjA2ODQ5NjcwNDEwMTU2IiBjbGFzcz0iZXIgYXR0cmlidXRlQm94RXZlbiI+PC9yZWN0Pjx0ZXh0IHN0eWxlPSJkb21pbmFudC1iYXNlbGluZTogbWlkZGxlOyBmb250LXNpemU6IDEwLjJweDsiIHRyYW5zZm9ybT0idHJhbnNsYXRlKDU3LjA2ODQ5NjcwNDEwMTU2LDEwMSkiIHk9IjAiIHg9IjAiIGlkPSJ0ZXh0LWVudGl0eS1VU0VSLTZlN2UyOTYyLTBjNmYtNTc3ZC1hN2ZkLTJjZTNhMGNmZDJjOC1hdHRyLTQtbmFtZSIgY2xhc3M9ImVyIGVudGl0eUxhYmVsIj5wYXNzd29yZF9oYXNoPC90ZXh0PjxyZWN0IGhlaWdodD0iMjIiIHdpZHRoPSIyMi42ODc2ODMxMDU0Njg3NSIgeT0iOTAiIHg9IjE0OS4wODU2MTcwNjU0Mjk3IiBjbGFzcz0iZXIgYXR0cmlidXRlQm94RXZlbiI+PC9yZWN0Pjx0ZXh0IHN0eWxlPSJkb21pbmFudC1iYXNlbGluZTogbWlkZGxlOyBmb250LXNpemU6IDEwLjJweDsiIHRyYW5zZm9ybT0idHJhbnNsYXRlKDE1NC4wODU2MTcwNjU0Mjk3LDEwMSkiIHk9IjAiIHg9IjAiIGlkPSJ0ZXh0LWVudGl0eS1VU0VSLTZlN2UyOTYyLTBjNmYtNTc3ZC1hN2ZkLTJjZTNhMGNmZDJjOC1hdHRyLTQta2V5IiBjbGFzcz0iZXIgZW50aXR5TGFiZWwiPjwvdGV4dD48cmVjdCBoZWlnaHQ9IjIyIiB3aWR0aD0iNTIuMDY4NDk2NzA0MTAxNTYiIHk9IjExMiIgeD0iMCIgY2xhc3M9ImVyIGF0dHJpYnV0ZUJveE9kZCI+PC9yZWN0Pjx0ZXh0IHN0eWxlPSJkb21pbmFudC1iYXNlbGluZTogbWlkZGxlOyBmb250LXNpemU6IDEwLjJweDsiIHRyYW5zZm9ybT0idHJhbnNsYXRlKDUsMTIzKSIgeT0iMCIgeD0iMCIgaWQ9InRleHQtZW50aXR5LVVTRVItNmU3ZTI5NjItMGM2Zi01NzdkLWE3ZmQtMmNlM2EwY2ZkMmM4LWF0dHItNS10eXBlIiBjbGFzcz0iZXIgZW50aXR5TGFiZWwiPnN0cmluZzwvdGV4dD48cmVjdCBoZWlnaHQ9IjIyIiB3aWR0aD0iOTcuMDE3MTIwMzYxMzI4MTIiIHk9IjExMiIgeD0iNTIuMDY4NDk2NzA0MTAxNTYiIGNsYXNzPSJlciBhdHRyaWJ1dGVCb3hPZGQiPjwvcmVjdD48dGV4dCBzdHlsZT0iZG9taW5hbnQtYmFzZWxpbmU6IG1pZGRsZTsgZm9udC1zaXplOiAxMC4ycHg7IiB0cmFuc2Zvcm09InRyYW5zbGF0ZSg1Ny4wNjg0OTY3MDQxMDE1NiwxMjMpIiB5PSIwIiB4PSIwIiBpZD0idGV4dC1lbnRpdHktVVNFUi02ZTdlMjk2Mi0wYzZmLTU3N2QtYTdmZC0yY2UzYTBjZmQyYzgtYXR0ci01LW5hbWUiIGNsYXNzPSJlciBlbnRpdHlMYWJlbCI+cGhvbmVfbnVtYmVyPC90ZXh0PjxyZWN0IGhlaWdodD0iMjIiIHdpZHRoPSIyMi42ODc2ODMxMDU0Njg3NSIgeT0iMTEyIiB4PSIxNDkuMDg1NjE3MDY1NDI5NyIgY2xhc3M9ImVyIGF0dHJpYnV0ZUJveE9kZCI+PC9yZWN0Pjx0ZXh0IHN0eWxlPSJkb21pbmFudC1iYXNlbGluZTogbWlkZGxlOyBmb250LXNpemU6IDEwLjJweDsiIHRyYW5zZm9ybT0idHJhbnNsYXRlKDE1NC4wODU2MTcwNjU0Mjk3LDEyMykiIHk9IjAiIHg9IjAiIGlkPSJ0ZXh0LWVudGl0eS1VU0VSLTZlN2UyOTYyLTBjNmYtNTc3ZC1hN2ZkLTJjZTNhMGNmZDJjOC1hdHRyLTUta2V5IiBjbGFzcz0iZXIgZW50aXR5TGFiZWwiPjwvdGV4dD48cmVjdCBoZWlnaHQ9IjIyIiB3aWR0aD0iNTIuMDY4NDk2NzA0MTAxNTYiIHk9IjEzNCIgeD0iMCIgY2xhc3M9ImVyIGF0dHJpYnV0ZUJveEV2ZW4iPjwvcmVjdD48dGV4dCBzdHlsZT0iZG9taW5hbnQtYmFzZWxpbmU6IG1pZGRsZTsgZm9udC1zaXplOiAxMC4ycHg7IiB0cmFuc2Zvcm09InRyYW5zbGF0ZSg1LDE0NSkiIHk9IjAiIHg9IjAiIGlkPSJ0ZXh0LWVudGl0eS1VU0VSLTZlN2UyOTYyLTBjNmYtNTc3ZC1hN2ZkLTJjZTNhMGNmZDJjOC1hdHRyLTYtdHlwZSIgY2xhc3M9ImVyIGVudGl0eUxhYmVsIj5zdHJpbmc8L3RleHQ+PHJlY3QgaGVpZ2h0PSIyMiIgd2lkdGg9Ijk3LjAxNzEyMDM2MTMyODEyIiB5PSIxMzQiIHg9IjUyLjA2ODQ5NjcwNDEwMTU2IiBjbGFzcz0iZXIgYXR0cmlidXRlQm94RXZlbiI+PC9yZWN0Pjx0ZXh0IHN0eWxlPSJkb21pbmFudC1iYXNlbGluZTogbWlkZGxlOyBmb250LXNpemU6IDEwLjJweDsiIHRyYW5zZm9ybT0idHJhbnNsYXRlKDU3LjA2ODQ5NjcwNDEwMTU2LDE0NSkiIHk9IjAiIHg9IjAiIGlkPSJ0ZXh0LWVudGl0eS1VU0VSLTZlN2UyOTYyLTBjNmYtNTc3ZC1hN2ZkLTJjZTNhMGNmZDJjOC1hdHRyLTYtbmFtZSIgY2xhc3M9ImVyIGVudGl0eUxhYmVsIj5yb2xlPC90ZXh0PjxyZWN0IGhlaWdodD0iMjIiIHdpZHRoPSIyMi42ODc2ODMxMDU0Njg3NSIgeT0iMTM0IiB4PSIxNDkuMDg1NjE3MDY1NDI5NyIgY2xhc3M9ImVyIGF0dHJpYnV0ZUJveEV2ZW4iPjwvcmVjdD48dGV4dCBzdHlsZT0iZG9taW5hbnQtYmFzZWxpbmU6IG1pZGRsZTsgZm9udC1zaXplOiAxMC4ycHg7IiB0cmFuc2Zvcm09InRyYW5zbGF0ZSgxNTQuMDg1NjE3MDY1NDI5NywxNDUpIiB5PSIwIiB4PSIwIiBpZD0idGV4dC1lbnRpdHktVVNFUi02ZTdlMjk2Mi0wYzZmLTU3N2QtYTdmZC0yY2UzYTBjZmQyYzgtYXR0ci02LWtleSIgY2xhc3M9ImVyIGVudGl0eUxhYmVsIj48L3RleHQ+PHJlY3QgaGVpZ2h0PSIyMiIgd2lkdGg9IjUyLjA2ODQ5NjcwNDEwMTU2IiB5PSIxNTYiIHg9IjAiIGNsYXNzPSJlciBhdHRyaWJ1dGVCb3hPZGQiPjwvcmVjdD48dGV4dCBzdHlsZT0iZG9taW5hbnQtYmFzZWxpbmU6IG1pZGRsZTsgZm9udC1zaXplOiAxMC4ycHg7IiB0cmFuc2Zvcm09InRyYW5zbGF0ZSg1LDE2NykiIHk9IjAiIHg9IjAiIGlkPSJ0ZXh0LWVudGl0eS1VU0VSLTZlN2UyOTYyLTBjNmYtNTc3ZC1hN2ZkLTJjZTNhMGNmZDJjOC1hdHRyLTctdHlwZSIgY2xhc3M9ImVyIGVudGl0eUxhYmVsIj5zdHJpbmc8L3RleHQ+PHJlY3QgaGVpZ2h0PSIyMiIgd2lkdGg9Ijk3LjAxNzEyMDM2MTMyODEyIiB5PSIxNTYiIHg9IjUyLjA2ODQ5NjcwNDEwMTU2IiBjbGFzcz0iZXIgYXR0cmlidXRlQm94T2RkIj48L3JlY3Q+PHRleHQgc3R5bGU9ImRvbWluYW50LWJhc2VsaW5lOiBtaWRkbGU7IGZvbnQtc2l6ZTogMTAuMnB4OyIgdHJhbnNmb3JtPSJ0cmFuc2xhdGUoNTcuMDY4NDk2NzA0MTAxNTYsMTY3KSIgeT0iMCIgeD0iMCIgaWQ9InRleHQtZW50aXR5LVVTRVItNmU3ZTI5NjItMGM2Zi01NzdkLWE3ZmQtMmNlM2EwY2ZkMmM4LWF0dHItNy1uYW1lIiBjbGFzcz0iZXIgZW50aXR5TGFiZWwiPnByb2ZpbGVfcGhvdG88L3RleHQ+PHJlY3QgaGVpZ2h0PSIyMiIgd2lkdGg9IjIyLjY4NzY4MzEwNTQ2ODc1IiB5PSIxNTYiIHg9IjE0OS4wODU2MTcwNjU0Mjk3IiBjbGFzcz0iZXIgYXR0cmlidXRlQm94T2RkIj48L3JlY3Q+PHRleHQgc3R5bGU9ImRvbWluYW50LWJhc2VsaW5lOiBtaWRkbGU7IGZvbnQtc2l6ZTogMTAuMnB4OyIgdHJhbnNmb3JtPSJ0cmFuc2xhdGUoMTU0LjA4NTYxNzA2NTQyOTcsMTY3KSIgeT0iMCIgeD0iMCIgaWQ9InRleHQtZW50aXR5LVVTRVItNmU3ZTI5NjItMGM2Zi01NzdkLWE3ZmQtMmNlM2EwY2ZkMmM4LWF0dHItNy1rZXkiIGNsYXNzPSJlciBlbnRpdHlMYWJlbCI+PC90ZXh0PjxyZWN0IGhlaWdodD0iMjIiIHdpZHRoPSI1Mi4wNjg0OTY3MDQxMDE1NiIgeT0iMTc4IiB4PSIwIiBjbGFzcz0iZXIgYXR0cmlidXRlQm94RXZlbiI+PC9yZWN0Pjx0ZXh0IHN0eWxlPSJkb21pbmFudC1iYXNlbGluZTogbWlkZGxlOyBmb250LXNpemU6IDEwLjJweDsiIHRyYW5zZm9ybT0idHJhbnNsYXRlKDUsMTg5KSIgeT0iMCIgeD0iMCIgaWQ9InRleHQtZW50aXR5LVVTRVItNmU3ZTI5NjItMGM2Zi01NzdkLWE3ZmQtMmNlM2EwY2ZkMmM4LWF0dHItOC10eXBlIiBjbGFzcz0iZXIgZW50aXR5TGFiZWwiPnN0cmluZzwvdGV4dD48cmVjdCBoZWlnaHQ9IjIyIiB3aWR0aD0iOTcuMDE3MTIwMzYxMzI4MTIiIHk9IjE3OCIgeD0iNTIuMDY4NDk2NzA0MTAxNTYiIGNsYXNzPSJlciBhdHRyaWJ1dGVCb3hFdmVuIj48L3JlY3Q+PHRleHQgc3R5bGU9ImRvbWluYW50LWJhc2VsaW5lOiBtaWRkbGU7IGZvbnQtc2l6ZTogMTAuMnB4OyIgdHJhbnNmb3JtPSJ0cmFuc2xhdGUoNTcuMDY4NDk2NzA0MTAxNTYsMTg5KSIgeT0iMCIgeD0iMCIgaWQ9InRleHQtZW50aXR5LVVTRVItNmU3ZTI5NjItMGM2Zi01NzdkLWE3ZmQtMmNlM2EwY2ZkMmM4LWF0dHItOC1uYW1lIiBjbGFzcz0iZXIgZW50aXR5TGFiZWwiPnZlcmlmaWNhdGlvbl9zdGF0dXM8L3RleHQ+PHJlY3QgaGVpZ2h0PSIyMiIgd2lkdGg9IjIyLjY4NzY4MzEwNTQ2ODc1IiB5PSIxNzgiIHg9IjE0OS4wODU2MTcwNjU0Mjk3IiBjbGFzcz0iZXIgYXR0cmlidXRlQm94RXZlbiI+PC9yZWN0Pjx0ZXh0IHN0eWxlPSJkb21pbmFudC1iYXNlbGluZTogbWlkZGxlOyBmb250LXNpemU6IDEwLjJweDsiIHRyYW5zZm9ybT0idHJhbnNsYXRlKDE1NC4wODU2MTcwNjU0Mjk3LDE4OSkiIHk9IjAiIHg9IjAiIGlkPSJ0ZXh0LWVudGl0eS1VU0VSLTZlN2UyOTYyLTBjNmYtNTc3ZC1hN2ZkLTJjZTNhMGNmZDJjOC1hdHRyLTgta2V5IiBjbGFzcz0iZXIgZW50aXR5TGFiZWwiPjwvdGV4dD48cmVjdCBoZWlnaHQ9IjIyIiB3aWR0aD0iNTIuMDY4NDk2NzA0MTAxNTYiIHk9IjIwMCIgeD0iMCIgY2xhc3M9ImVyIGF0dHJpYnV0ZUJveE9kZCI+PC9yZWN0Pjx0ZXh0IHN0eWxlPSJkb21pbmFudC1iYXNlbGluZTogbWlkZGxlOyBmb250LXNpemU6IDEwLjJweDsiIHRyYW5zZm9ybT0idHJhbnNsYXRlKDUsMjExKSIgeT0iMCIgeD0iMCIgaWQ9InRleHQtZW50aXR5LVVTRVItNmU3ZTI5NjItMGM2Zi01NzdkLWE3ZmQtMmNlM2EwY2ZkMmM4LWF0dHItOS10eXBlIiBjbGFzcz0iZXIgZW50aXR5TGFiZWwiPmZsb2F0PC90ZXh0PjxyZWN0IGhlaWdodD0iMjIiIHdpZHRoPSI5Ny4wMTcxMjAzNjEzMjgxMiIgeT0iMjAwIiB4PSI1Mi4wNjg0OTY3MDQxMDE1NiIgY2xhc3M9ImVyIGF0dHJpYnV0ZUJveE9kZCI+PC9yZWN0Pjx0ZXh0IHN0eWxlPSJkb21pbmFudC1iYXNlbGluZTogbWlkZGxlOyBmb250LXNpemU6IDEwLjJweDsiIHRyYW5zZm9ybT0idHJhbnNsYXRlKDU3LjA2ODQ5NjcwNDEwMTU2LDIxMSkiIHk9IjAiIHg9IjAiIGlkPSJ0ZXh0LWVudGl0eS1VU0VSLTZlN2UyOTYyLTBjNmYtNTc3ZC1hN2ZkLTJjZTNhMGNmZDJjOC1hdHRyLTktbmFtZSIgY2xhc3M9ImVyIGVudGl0eUxhYmVsIj5yYXRpbmc8L3RleHQ+PHJlY3QgaGVpZ2h0PSIyMiIgd2lkdGg9IjIyLjY4NzY4MzEwNTQ2ODc1IiB5PSIyMDAiIHg9IjE0OS4wODU2MTcwNjU0Mjk3IiBjbGFzcz0iZXIgYXR0cmlidXRlQm94T2RkIj48L3JlY3Q+PHRleHQgc3R5bGU9ImRvbWluYW50LWJhc2VsaW5lOiBtaWRkbGU7IGZvbnQtc2l6ZTogMTAuMnB4OyIgdHJhbnNmb3JtPSJ0cmFuc2xhdGUoMTU0LjA4NTYxNzA2NTQyOTcsMjExKSIgeT0iMCIgeD0iMCIgaWQ9InRleHQtZW50aXR5LVVTRVItNmU3ZTI5NjItMGM2Zi01NzdkLWE3ZmQtMmNlM2EwY2ZkMmM4LWF0dHItOS1rZXkiIGNsYXNzPSJlciBlbnRpdHlMYWJlbCI+PC90ZXh0PjxyZWN0IGhlaWdodD0iMjIiIHdpZHRoPSI1Mi4wNjg0OTY3MDQxMDE1NiIgeT0iMjIyIiB4PSIwIiBjbGFzcz0iZXIgYXR0cmlidXRlQm94RXZlbiI+PC9yZWN0Pjx0ZXh0IHN0eWxlPSJkb21pbmFudC1iYXNlbGluZTogbWlkZGxlOyBmb250LXNpemU6IDEwLjJweDsiIHRyYW5zZm9ybT0idHJhbnNsYXRlKDUsMjMzKSIgeT0iMCIgeD0iMCIgaWQ9InRleHQtZW50aXR5LVVTRVItNmU3ZTI5NjItMGM2Zi01NzdkLWE3ZmQtMmNlM2EwY2ZkMmM4LWF0dHItMTAtdHlwZSIgY2xhc3M9ImVyIGVudGl0eUxhYmVsIj5kYXRldGltZTwvdGV4dD48cmVjdCBoZWlnaHQ9IjIyIiB3aWR0aD0iOTcuMDE3MTIwMzYxMzI4MTIiIHk9IjIyMiIgeD0iNTIuMDY4NDk2NzA0MTAxNTYiIGNsYXNzPSJlciBhdHRyaWJ1dGVCb3hFdmVuIj48L3JlY3Q+PHRleHQgc3R5bGU9ImRvbWluYW50LWJhc2VsaW5lOiBtaWRkbGU7IGZvbnQtc2l6ZTogMTAuMnB4OyIgdHJhbnNmb3JtPSJ0cmFuc2xhdGUoNTcuMDY4NDk2NzA0MTAxNTYsMjMzKSIgeT0iMCIgeD0iMCIgaWQ9InRleHQtZW50aXR5LVVTRVItNmU3ZTI5NjItMGM2Zi01NzdkLWE3ZmQtMmNlM2EwY2ZkMmM4LWF0dHItMTAtbmFtZSIgY2xhc3M9ImVyIGVudGl0eUxhYmVsIj5jcmVhdGVkX2F0PC90ZXh0PjxyZWN0IGhlaWdodD0iMjIiIHdpZHRoPSIyMi42ODc2ODMxMDU0Njg3NSIgeT0iMjIyIiB4PSIxNDkuMDg1NjE3MDY1NDI5NyIgY2xhc3M9ImVyIGF0dHJpYnV0ZUJveEV2ZW4iPjwvcmVjdD48dGV4dCBzdHlsZT0iZG9taW5hbnQtYmFzZWxpbmU6IG1pZGRsZTsgZm9udC1zaXplOiAxMC4ycHg7IiB0cmFuc2Zvcm09InRyYW5zbGF0ZSgxNTQuMDg1NjE3MDY1NDI5NywyMzMpIiB5PSIwIiB4PSIwIiBpZD0idGV4dC1lbnRpdHktVVNFUi02ZTdlMjk2Mi0wYzZmLTU3N2QtYTdmZC0yY2UzYTBjZmQyYzgtYXR0ci0xMC1rZXkiIGNsYXNzPSJlciBlbnRpdHlMYWJlbCI+PC90ZXh0PjxyZWN0IGhlaWdodD0iMjIiIHdpZHRoPSI1Mi4wNjg0OTY3MDQxMDE1NiIgeT0iMjQ0IiB4PSIwIiBjbGFzcz0iZXIgYXR0cmlidXRlQm94T2RkIj48L3JlY3Q+PHRleHQgc3R5bGU9ImRvbWluYW50LWJhc2VsaW5lOiBtaWRkbGU7IGZvbnQtc2l6ZTogMTAuMnB4OyIgdHJhbnNmb3JtPSJ0cmFuc2xhdGUoNSwyNTUpIiB5PSIwIiB4PSIwIiBpZD0idGV4dC1lbnRpdHktVVNFUi02ZTdlMjk2Mi0wYzZmLTU3N2QtYTdmZC0yY2UzYTBjZmQyYzgtYXR0ci0xMS10eXBlIiBjbGFzcz0iZXIgZW50aXR5TGFiZWwiPmRhdGV0aW1lPC90ZXh0PjxyZWN0IGhlaWdodD0iMjIiIHdpZHRoPSI5Ny4wMTcxMjAzNjEzMjgxMiIgeT0iMjQ0IiB4PSI1Mi4wNjg0OTY3MDQxMDE1NiIgY2xhc3M9ImVyIGF0dHJpYnV0ZUJveE9kZCI+PC9yZWN0Pjx0ZXh0IHN0eWxlPSJkb21pbmFudC1iYXNlbGluZTogbWlkZGxlOyBmb250LXNpemU6IDEwLjJweDsiIHRyYW5zZm9ybT0idHJhbnNsYXRlKDU3LjA2ODQ5NjcwNDEwMTU2LDI1NSkiIHk9IjAiIHg9IjAiIGlkPSJ0ZXh0LWVudGl0eS1VU0VSLTZlN2UyOTYyLTBjNmYtNTc3ZC1hN2ZkLTJjZTNhMGNmZDJjOC1hdHRyLTExLW5hbWUiIGNsYXNzPSJlciBlbnRpdHlMYWJlbCI+dXBkYXRlZF9hdDwvdGV4dD48cmVjdCBoZWlnaHQ9IjIyIiB3aWR0aD0iMjIuNjg3NjgzMTA1NDY4NzUiIHk9IjI0NCIgeD0iMTQ5LjA4NTYxNzA2NTQyOTciIGNsYXNzPSJlciBhdHRyaWJ1dGVCb3hPZGQiPjwvcmVjdD48dGV4dCBzdHlsZT0iZG9taW5hbnQtYmFzZWxpbmU6IG1pZGRsZTsgZm9udC1zaXplOiAxMC4ycHg7IiB0cmFuc2Zvcm09InRyYW5zbGF0ZSgxNTQuMDg1NjE3MDY1NDI5NywyNTUpIiB5PSIwIiB4PSIwIiBpZD0idGV4dC1lbnRpdHktVVNFUi02ZTdlMjk2Mi0wYzZmLTU3N2QtYTdmZC0yY2UzYTBjZmQyYzgtYXR0ci0xMS1rZXkiIGNsYXNzPSJlciBlbnRpdHlMYWJlbCI+PC90ZXh0PjwvZz48ZyB0cmFuc2Zvcm09InRyYW5zbGF0ZSgzNTIuNDcyNTcyMzI2NjYwMTYsMzg2ICkiIGlkPSJlbnRpdHktUFJPUEVSVFktZWY2N2VmMTAtOTMxYS01MDhjLWEyMTEtMmNhMmY5ODdjZTAzIj48cmVjdCBoZWlnaHQ9IjM1NCIgd2lkdGg9IjE1OC4wMDg0MDc1OTI3NzM0NCIgeT0iMCIgeD0iMCIgY2xhc3M9ImVyIGVudGl0eUJveCI+PC9yZWN0Pjx0ZXh0IHN0eWxlPSJkb21pbmFudC1iYXNlbGluZTogbWlkZGxlOyB0ZXh0LWFuY2hvcjogbWlkZGxlOyBmb250LXNpemU6IDEycHg7IiB0cmFuc2Zvcm09InRyYW5zbGF0ZSg3OS4wMDQyMDM3OTYzODY3MiwxMikiIHk9IjAiIHg9IjAiIGlkPSJ0ZXh0LWVudGl0eS1QUk9QRVJUWS1lZjY3ZWYxMC05MzFhLTUwOGMtYTIxMS0yY2EyZjk4N2NlMDMiIGNsYXNzPSJlciBlbnRpdHlMYWJlbCI+UFJPUEVSVFk8L3RleHQ+PHJlY3QgaGVpZ2h0PSIyMiIgd2lkdGg9IjUyLjA2ODQ5NjcwNDEwMTU2IiB5PSIyNCIgeD0iMCIgY2xhc3M9ImVyIGF0dHJpYnV0ZUJveE9kZCI+PC9yZWN0Pjx0ZXh0IHN0eWxlPSJkb21pbmFudC1iYXNlbGluZTogbWlkZGxlOyBmb250LXNpemU6IDEwLjJweDsiIHRyYW5zZm9ybT0idHJhbnNsYXRlKDUsMzUpIiB5PSIwIiB4PSIwIiBpZD0idGV4dC1lbnRpdHktUFJPUEVSVFktZWY2N2VmMTAtOTMxYS01MDhjLWEyMTEtMmNhMmY5ODdjZTAzLWF0dHItMS10eXBlIiBjbGFzcz0iZXIgZW50aXR5TGFiZWwiPmludDwvdGV4dD48cmVjdCBoZWlnaHQ9IjIyIiB3aWR0aD0iODMuMjUyMjI3NzgzMjAzMTIiIHk9IjI0IiB4PSI1Mi4wNjg0OTY3MDQxMDE1NiIgY2xhc3M9ImVyIGF0dHJpYnV0ZUJveE9kZCI+PC9yZWN0Pjx0ZXh0IHN0eWxlPSJkb21pbmFudC1iYXNlbGluZTogbWlkZGxlOyBmb250LXNpemU6IDEwLjJweDsiIHRyYW5zZm9ybT0idHJhbnNsYXRlKDU3LjA2ODQ5NjcwNDEwMTU2LDM1KSIgeT0iMCIgeD0iMCIgaWQ9InRleHQtZW50aXR5LVBST1BFUlRZLWVmNjdlZjEwLTkzMWEtNTA4Yy1hMjExLTJjYTJmOTg3Y2UwMy1hdHRyLTEtbmFtZSIgY2xhc3M9ImVyIGVudGl0eUxhYmVsIj5wcm9wZXJ0eV9pZDwvdGV4dD48cmVjdCBoZWlnaHQ9IjIyIiB3aWR0aD0iMjIuNjg3NjgzMTA1NDY4NzUiIHk9IjI0IiB4PSIxMzUuMzIwNzI0NDg3MzA0NyIgY2xhc3M9ImVyIGF0dHJpYnV0ZUJveE9kZCI+PC9yZWN0Pjx0ZXh0IHN0eWxlPSJkb21pbmFudC1iYXNlbGluZTogbWlkZGxlOyBmb250LXNpemU6IDEwLjJweDsiIHRyYW5zZm9ybT0idHJhbnNsYXRlKDE0MC4zMjA3MjQ0ODczMDQ3LDM1KSIgeT0iMCIgeD0iMCIgaWQ9InRleHQtZW50aXR5LVBST1BFUlRZLWVmNjdlZjEwLTkzMWEtNTA4Yy1hMjExLTJjYTJmOTg3Y2UwMy1hdHRyLTEta2V5IiBjbGFzcz0iZXIgZW50aXR5TGFiZWwiPlBLPC90ZXh0PjxyZWN0IGhlaWdodD0iMjIiIHdpZHRoPSI1Mi4wNjg0OTY3MDQxMDE1NiIgeT0iNDYiIHg9IjAiIGNsYXNzPSJlciBhdHRyaWJ1dGVCb3hFdmVuIj48L3JlY3Q+PHRleHQgc3R5bGU9ImRvbWluYW50LWJhc2VsaW5lOiBtaWRkbGU7IGZvbnQtc2l6ZTogMTAuMnB4OyIgdHJhbnNmb3JtPSJ0cmFuc2xhdGUoNSw1NykiIHk9IjAiIHg9IjAiIGlkPSJ0ZXh0LWVudGl0eS1QUk9QRVJUWS1lZjY3ZWYxMC05MzFhLTUwOGMtYTIxMS0yY2EyZjk4N2NlMDMtYXR0ci0yLXR5cGUiIGNsYXNzPSJlciBlbnRpdHlMYWJlbCI+aW50PC90ZXh0PjxyZWN0IGhlaWdodD0iMjIiIHdpZHRoPSI4My4yNTIyMjc3ODMyMDMxMiIgeT0iNDYiIHg9IjUyLjA2ODQ5NjcwNDEwMTU2IiBjbGFzcz0iZXIgYXR0cmlidXRlQm94RXZlbiI+PC9yZWN0Pjx0ZXh0IHN0eWxlPSJkb21pbmFudC1iYXNlbGluZTogbWlkZGxlOyBmb250LXNpemU6IDEwLjJweDsiIHRyYW5zZm9ybT0idHJhbnNsYXRlKDU3LjA2ODQ5NjcwNDEwMTU2LDU3KSIgeT0iMCIgeD0iMCIgaWQ9InRleHQtZW50aXR5LVBST1BFUlRZLWVmNjdlZjEwLTkzMWEtNTA4Yy1hMjExLTJjYTJmOTg3Y2UwMy1hdHRyLTItbmFtZSIgY2xhc3M9ImVyIGVudGl0eUxhYmVsIj5ob3N0X2lkPC90ZXh0PjxyZWN0IGhlaWdodD0iMjIiIHdpZHRoPSIyMi42ODc2ODMxMDU0Njg3NSIgeT0iNDYiIHg9IjEzNS4zMjA3MjQ0ODczMDQ3IiBjbGFzcz0iZXIgYXR0cmlidXRlQm94RXZlbiI+PC9yZWN0Pjx0ZXh0IHN0eWxlPSJkb21pbmFudC1iYXNlbGluZTogbWlkZGxlOyBmb250LXNpemU6IDEwLjJweDsiIHRyYW5zZm9ybT0idHJhbnNsYXRlKDE0MC4zMjA3MjQ0ODczMDQ3LDU3KSIgeT0iMCIgeD0iMCIgaWQ9InRleHQtZW50aXR5LVBST1BFUlRZLWVmNjdlZjEwLTkzMWEtNTA4Yy1hMjExLTJjYTJmOTg3Y2UwMy1hdHRyLTIta2V5IiBjbGFzcz0iZXIgZW50aXR5TGFiZWwiPkZLPC90ZXh0PjxyZWN0IGhlaWdodD0iMjIiIHdpZHRoPSI1Mi4wNjg0OTY3MDQxMDE1NiIgeT0iNjgiIHg9IjAiIGNsYXNzPSJlciBhdHRyaWJ1dGVCb3hPZGQiPjwvcmVjdD48dGV4dCBzdHlsZT0iZG9taW5hbnQtYmFzZWxpbmU6IG1pZGRsZTsgZm9udC1zaXplOiAxMC4ycHg7IiB0cmFuc2Zvcm09InRyYW5zbGF0ZSg1LDc5KSIgeT0iMCIgeD0iMCIgaWQ9InRleHQtZW50aXR5LVBST1BFUlRZLWVmNjdlZjEwLTkzMWEtNTA4Yy1hMjExLTJjYTJmOTg3Y2UwMy1hdHRyLTMtdHlwZSIgY2xhc3M9ImVyIGVudGl0eUxhYmVsIj5zdHJpbmc8L3RleHQ+PHJlY3QgaGVpZ2h0PSIyMiIgd2lkdGg9IjgzLjI1MjIyNzc4MzIwMzEyIiB5PSI2OCIgeD0iNTIuMDY4NDk2NzA0MTAxNTYiIGNsYXNzPSJlciBhdHRyaWJ1dGVCb3hPZGQiPjwvcmVjdD48dGV4dCBzdHlsZT0iZG9taW5hbnQtYmFzZWxpbmU6IG1pZGRsZTsgZm9udC1zaXplOiAxMC4ycHg7IiB0cmFuc2Zvcm09InRyYW5zbGF0ZSg1Ny4wNjg0OTY3MDQxMDE1Niw3OSkiIHk9IjAiIHg9IjAiIGlkPSJ0ZXh0LWVudGl0eS1QUk9QRVJUWS1lZjY3ZWYxMC05MzFhLTUwOGMtYTIxMS0yY2EyZjk4N2NlMDMtYXR0ci0zLW5hbWUiIGNsYXNzPSJlciBlbnRpdHlMYWJlbCI+dGl0bGU8L3RleHQ+PHJlY3QgaGVpZ2h0PSIyMiIgd2lkdGg9IjIyLjY4NzY4MzEwNTQ2ODc1IiB5PSI2OCIgeD0iMTM1LjMyMDcyNDQ4NzMwNDciIGNsYXNzPSJlciBhdHRyaWJ1dGVCb3hPZGQiPjwvcmVjdD48dGV4dCBzdHlsZT0iZG9taW5hbnQtYmFzZWxpbmU6IG1pZGRsZTsgZm9udC1zaXplOiAxMC4ycHg7IiB0cmFuc2Zvcm09InRyYW5zbGF0ZSgxNDAuMzIwNzI0NDg3MzA0Nyw3OSkiIHk9IjAiIHg9IjAiIGlkPSJ0ZXh0LWVudGl0eS1QUk9QRVJUWS1lZjY3ZWYxMC05MzFhLTUwOGMtYTIxMS0yY2EyZjk4N2NlMDMtYXR0ci0zLWtleSIgY2xhc3M9ImVyIGVudGl0eUxhYmVsIj48L3RleHQ+PHJlY3QgaGVpZ2h0PSIyMiIgd2lkdGg9IjUyLjA2ODQ5NjcwNDEwMTU2IiB5PSI5MCIgeD0iMCIgY2xhc3M9ImVyIGF0dHJpYnV0ZUJveEV2ZW4iPjwvcmVjdD48dGV4dCBzdHlsZT0iZG9taW5hbnQtYmFzZWxpbmU6IG1pZGRsZTsgZm9udC1zaXplOiAxMC4ycHg7IiB0cmFuc2Zvcm09InRyYW5zbGF0ZSg1LDEwMSkiIHk9IjAiIHg9IjAiIGlkPSJ0ZXh0LWVudGl0eS1QUk9QRVJUWS1lZjY3ZWYxMC05MzFhLTUwOGMtYTIxMS0yY2EyZjk4N2NlMDMtYXR0ci00LXR5cGUiIGNsYXNzPSJlciBlbnRpdHlMYWJlbCI+c3RyaW5nPC90ZXh0PjxyZWN0IGhlaWdodD0iMjIiIHdpZHRoPSI4My4yNTIyMjc3ODMyMDMxMiIgeT0iOTAiIHg9IjUyLjA2ODQ5NjcwNDEwMTU2IiBjbGFzcz0iZXIgYXR0cmlidXRlQm94RXZlbiI+PC9yZWN0Pjx0ZXh0IHN0eWxlPSJkb21pbmFudC1iYXNlbGluZTogbWlkZGxlOyBmb250LXNpemU6IDEwLjJweDsiIHRyYW5zZm9ybT0idHJhbnNsYXRlKDU3LjA2ODQ5NjcwNDEwMTU2LDEwMSkiIHk9IjAiIHg9IjAiIGlkPSJ0ZXh0LWVudGl0eS1QUk9QRVJUWS1lZjY3ZWYxMC05MzFhLTUwOGMtYTIxMS0yY2EyZjk4N2NlMDMtYXR0ci00LW5hbWUiIGNsYXNzPSJlciBlbnRpdHlMYWJlbCI+ZGVzY3JpcHRpb248L3RleHQ+PHJlY3QgaGVpZ2h0PSIyMiIgd2lkdGg9IjIyLjY4NzY4MzEwNTQ2ODc1IiB5PSI5MCIgeD0iMTM1LjMyMDcyNDQ4NzMwNDciIGNsYXNzPSJlciBhdHRyaWJ1dGVCb3hFdmVuIj48L3JlY3Q+PHRleHQgc3R5bGU9ImRvbWluYW50LWJhc2VsaW5lOiBtaWRkbGU7IGZvbnQtc2l6ZTogMTAuMnB4OyIgdHJhbnNmb3JtPSJ0cmFuc2xhdGUoMTQwLjMyMDcyNDQ4NzMwNDcsMTAxKSIgeT0iMCIgeD0iMCIgaWQ9InRleHQtZW50aXR5LVBST1BFUlRZLWVmNjdlZjEwLTkzMWEtNTA4Yy1hMjExLTJjYTJmOTg3Y2UwMy1hdHRyLTQta2V5IiBjbGFzcz0iZXIgZW50aXR5TGFiZWwiPjwvdGV4dD48cmVjdCBoZWlnaHQ9IjIyIiB3aWR0aD0iNTIuMDY4NDk2NzA0MTAxNTYiIHk9IjExMiIgeD0iMCIgY2xhc3M9ImVyIGF0dHJpYnV0ZUJveE9kZCI+PC9yZWN0Pjx0ZXh0IHN0eWxlPSJkb21pbmFudC1iYXNlbGluZTogbWlkZGxlOyBmb250LXNpemU6IDEwLjJweDsiIHRyYW5zZm9ybT0idHJhbnNsYXRlKDUsMTIzKSIgeT0iMCIgeD0iMCIgaWQ9InRleHQtZW50aXR5LVBST1BFUlRZLWVmNjdlZjEwLTkzMWEtNTA4Yy1hMjExLTJjYTJmOTg3Y2UwMy1hdHRyLTUtdHlwZSIgY2xhc3M9ImVyIGVudGl0eUxhYmVsIj5zdHJpbmc8L3RleHQ+PHJlY3QgaGVpZ2h0PSIyMiIgd2lkdGg9IjgzLjI1MjIyNzc4MzIwMzEyIiB5PSIxMTIiIHg9IjUyLjA2ODQ5NjcwNDEwMTU2IiBjbGFzcz0iZXIgYXR0cmlidXRlQm94T2RkIj48L3JlY3Q+PHRleHQgc3R5bGU9ImRvbWluYW50LWJhc2VsaW5lOiBtaWRkbGU7IGZvbnQtc2l6ZTogMTAuMnB4OyIgdHJhbnNmb3JtPSJ0cmFuc2xhdGUoNTcuMDY4NDk2NzA0MTAxNTYsMTIzKSIgeT0iMCIgeD0iMCIgaWQ9InRleHQtZW50aXR5LVBST1BFUlRZLWVmNjdlZjEwLTkzMWEtNTA4Yy1hMjExLTJjYTJmOTg3Y2UwMy1hdHRyLTUtbmFtZSIgY2xhc3M9ImVyIGVudGl0eUxhYmVsIj5wcm9wZXJ0eV90eXBlPC90ZXh0PjxyZWN0IGhlaWdodD0iMjIiIHdpZHRoPSIyMi42ODc2ODMxMDU0Njg3NSIgeT0iMTEyIiB4PSIxMzUuMzIwNzI0NDg3MzA0NyIgY2xhc3M9ImVyIGF0dHJpYnV0ZUJveE9kZCI+PC9yZWN0Pjx0ZXh0IHN0eWxlPSJkb21pbmFudC1iYXNlbGluZTogbWlkZGxlOyBmb250LXNpemU6IDEwLjJweDsiIHRyYW5zZm9ybT0idHJhbnNsYXRlKDE0MC4zMjA3MjQ0ODczMDQ3LDEyMykiIHk9IjAiIHg9IjAiIGlkPSJ0ZXh0LWVudGl0eS1QUk9QRVJUWS1lZjY3ZWYxMC05MzFhLTUwOGMtYTIxMS0yY2EyZjk4N2NlMDMtYXR0ci01LWtleSIgY2xhc3M9ImVyIGVudGl0eUxhYmVsIj48L3RleHQ+PHJlY3QgaGVpZ2h0PSIyMiIgd2lkdGg9IjUyLjA2ODQ5NjcwNDEwMTU2IiB5PSIxMzQiIHg9IjAiIGNsYXNzPSJlciBhdHRyaWJ1dGVCb3hFdmVuIj48L3JlY3Q+PHRleHQgc3R5bGU9ImRvbWluYW50LWJhc2VsaW5lOiBtaWRkbGU7IGZvbnQtc2l6ZTogMTAuMnB4OyIgdHJhbnNmb3JtPSJ0cmFuc2xhdGUoNSwxNDUpIiB5PSIwIiB4PSIwIiBpZD0idGV4dC1lbnRpdHktUFJPUEVSVFktZWY2N2VmMTAtOTMxYS01MDhjLWEyMTEtMmNhMmY5ODdjZTAzLWF0dHItNi10eXBlIiBjbGFzcz0iZXIgZW50aXR5TGFiZWwiPnN0cmluZzwvdGV4dD48cmVjdCBoZWlnaHQ9IjIyIiB3aWR0aD0iODMuMjUyMjI3NzgzMjAzMTIiIHk9IjEzNCIgeD0iNTIuMDY4NDk2NzA0MTAxNTYiIGNsYXNzPSJlciBhdHRyaWJ1dGVCb3hFdmVuIj48L3JlY3Q+PHRleHQgc3R5bGU9ImRvbWluYW50LWJhc2VsaW5lOiBtaWRkbGU7IGZvbnQtc2l6ZTogMTAuMnB4OyIgdHJhbnNmb3JtPSJ0cmFuc2xhdGUoNTcuMDY4NDk2NzA0MTAxNTYsMTQ1KSIgeT0iMCIgeD0iMCIgaWQ9InRleHQtZW50aXR5LVBST1BFUlRZLWVmNjdlZjEwLTkzMWEtNTA4Yy1hMjExLTJjYTJmOTg3Y2UwMy1hdHRyLTYtbmFtZSIgY2xhc3M9ImVyIGVudGl0eUxhYmVsIj5hZGRyZXNzPC90ZXh0PjxyZWN0IGhlaWdodD0iMjIiIHdpZHRoPSIyMi42ODc2ODMxMDU0Njg3NSIgeT0iMTM0IiB4PSIxMzUuMzIwNzI0NDg3MzA0NyIgY2xhc3M9ImVyIGF0dHJpYnV0ZUJveEV2ZW4iPjwvcmVjdD48dGV4dCBzdHlsZT0iZG9taW5hbnQtYmFzZWxpbmU6IG1pZGRsZTsgZm9udC1zaXplOiAxMC4ycHg7IiB0cmFuc2Zvcm09InRyYW5zbGF0ZSgxNDAuMzIwNzI0NDg3MzA0NywxNDUpIiB5PSIwIiB4PSIwIiBpZD0idGV4dC1lbnRpdHktUFJPUEVSVFktZWY2N2VmMTAtOTMxYS01MDhjLWEyMTEtMmNhMmY5ODdjZTAzLWF0dHItNi1rZXkiIGNsYXNzPSJlciBlbnRpdHlMYWJlbCI+PC90ZXh0PjxyZWN0IGhlaWdodD0iMjIiIHdpZHRoPSI1Mi4wNjg0OTY3MDQxMDE1NiIgeT0iMTU2IiB4PSIwIiBjbGFzcz0iZXIgYXR0cmlidXRlQm94T2RkIj48L3JlY3Q+PHRleHQgc3R5bGU9ImRvbWluYW50LWJhc2VsaW5lOiBtaWRkbGU7IGZvbnQtc2l6ZTogMTAuMnB4OyIgdHJhbnNmb3JtPSJ0cmFuc2xhdGUoNSwxNjcpIiB5PSIwIiB4PSIwIiBpZD0idGV4dC1lbnRpdHktUFJPUEVSVFktZWY2N2VmMTAtOTMxYS01MDhjLWEyMTEtMmNhMmY5ODdjZTAzLWF0dHItNy10eXBlIiBjbGFzcz0iZXIgZW50aXR5TGFiZWwiPnN0cmluZzwvdGV4dD48cmVjdCBoZWlnaHQ9IjIyIiB3aWR0aD0iODMuMjUyMjI3NzgzMjAzMTIiIHk9IjE1NiIgeD0iNTIuMDY4NDk2NzA0MTAxNTYiIGNsYXNzPSJlciBhdHRyaWJ1dGVCb3hPZGQiPjwvcmVjdD48dGV4dCBzdHlsZT0iZG9taW5hbnQtYmFzZWxpbmU6IG1pZGRsZTsgZm9udC1zaXplOiAxMC4ycHg7IiB0cmFuc2Zvcm09InRyYW5zbGF0ZSg1Ny4wNjg0OTY3MDQxMDE1NiwxNjcpIiB5PSIwIiB4PSIwIiBpZD0idGV4dC1lbnRpdHktUFJPUEVSVFktZWY2N2VmMTAtOTMxYS01MDhjLWEyMTEtMmNhMmY5ODdjZTAzLWF0dHItNy1uYW1lIiBjbGFzcz0iZXIgZW50aXR5TGFiZWwiPmNpdHk8L3RleHQ+PHJlY3QgaGVpZ2h0PSIyMiIgd2lkdGg9IjIyLjY4NzY4MzEwNTQ2ODc1IiB5PSIxNTYiIHg9IjEzNS4zMjA3MjQ0ODczMDQ3IiBjbGFzcz0iZXIgYXR0cmlidXRlQm94T2RkIj48L3JlY3Q+PHRleHQgc3R5bGU9ImRvbWluYW50LWJhc2VsaW5lOiBtaWRkbGU7IGZvbnQtc2l6ZTogMTAuMnB4OyIgdHJhbnNmb3JtPSJ0cmFuc2xhdGUoMTQwLjMyMDcyNDQ4NzMwNDcsMTY3KSIgeT0iMCIgeD0iMCIgaWQ9InRleHQtZW50aXR5LVBST1BFUlRZLWVmNjdlZjEwLTkzMWEtNTA4Yy1hMjExLTJjYTJmOTg3Y2UwMy1hdHRyLTcta2V5IiBjbGFzcz0iZXIgZW50aXR5TGFiZWwiPjwvdGV4dD48cmVjdCBoZWlnaHQ9IjIyIiB3aWR0aD0iNTIuMDY4NDk2NzA0MTAxNTYiIHk9IjE3OCIgeD0iMCIgY2xhc3M9ImVyIGF0dHJpYnV0ZUJveEV2ZW4iPjwvcmVjdD48dGV4dCBzdHlsZT0iZG9taW5hbnQtYmFzZWxpbmU6IG1pZGRsZTsgZm9udC1zaXplOiAxMC4ycHg7IiB0cmFuc2Zvcm09InRyYW5zbGF0ZSg1LDE4OSkiIHk9IjAiIHg9IjAiIGlkPSJ0ZXh0LWVudGl0eS1QUk9QRVJUWS1lZjY3ZWYxMC05MzFhLTUwOGMtYTIxMS0yY2EyZjk4N2NlMDMtYXR0ci04LXR5cGUiIGNsYXNzPSJlciBlbnRpdHlMYWJlbCI+c3RyaW5nPC90ZXh0PjxyZWN0IGhlaWdodD0iMjIiIHdpZHRoPSI4My4yNTIyMjc3ODMyMDMxMiIgeT0iMTc4IiB4PSI1Mi4wNjg0OTY3MDQxMDE1NiIgY2xhc3M9ImVyIGF0dHJpYnV0ZUJveEV2ZW4iPjwvcmVjdD48dGV4dCBzdHlsZT0iZG9taW5hbnQtYmFzZWxpbmU6IG1pZGRsZTsgZm9udC1zaXplOiAxMC4ycHg7IiB0cmFuc2Zvcm09InRyYW5zbGF0ZSg1Ny4wNjg0OTY3MDQxMDE1NiwxODkpIiB5PSIwIiB4PSIwIiBpZD0idGV4dC1lbnRpdHktUFJPUEVSVFktZWY2N2VmMTAtOTMxYS01MDhjLWEyMTEtMmNhMmY5ODdjZTAzLWF0dHItOC1uYW1lIiBjbGFzcz0iZXIgZW50aXR5TGFiZWwiPmNvdW50cnk8L3RleHQ+PHJlY3QgaGVpZ2h0PSIyMiIgd2lkdGg9IjIyLjY4NzY4MzEwNTQ2ODc1IiB5PSIxNzgiIHg9IjEzNS4zMjA3MjQ0ODczMDQ3IiBjbGFzcz0iZXIgYXR0cmlidXRlQm94RXZlbiI+PC9yZWN0Pjx0ZXh0IHN0eWxlPSJkb21pbmFudC1iYXNlbGluZTogbWlkZGxlOyBmb250LXNpemU6IDEwLjJweDsiIHRyYW5zZm9ybT0idHJhbnNsYXRlKDE0MC4zMjA3MjQ0ODczMDQ3LDE4OSkiIHk9IjAiIHg9IjAiIGlkPSJ0ZXh0LWVudGl0eS1QUk9QRVJUWS1lZjY3ZWYxMC05MzFhLTUwOGMtYTIxMS0yY2EyZjk4N2NlMDMtYXR0ci04LWtleSIgY2xhc3M9ImVyIGVudGl0eUxhYmVsIj48L3RleHQ+PHJlY3QgaGVpZ2h0PSIyMiIgd2lkdGg9IjUyLjA2ODQ5NjcwNDEwMTU2IiB5PSIyMDAiIHg9IjAiIGNsYXNzPSJlciBhdHRyaWJ1dGVCb3hPZGQiPjwvcmVjdD48dGV4dCBzdHlsZT0iZG9taW5hbnQtYmFzZWxpbmU6IG1pZGRsZTsgZm9udC1zaXplOiAxMC4ycHg7IiB0cmFuc2Zvcm09InRyYW5zbGF0ZSg1LDIxMSkiIHk9IjAiIHg9IjAiIGlkPSJ0ZXh0LWVudGl0eS1QUk9QRVJUWS1lZjY3ZWYxMC05MzFhLTUwOGMtYTIxMS0yY2EyZjk4N2NlMDMtYXR0ci05LXR5cGUiIGNsYXNzPSJlciBlbnRpdHlMYWJlbCI+c3RyaW5nPC90ZXh0PjxyZWN0IGhlaWdodD0iMjIiIHdpZHRoPSI4My4yNTIyMjc3ODMyMDMxMiIgeT0iMjAwIiB4PSI1Mi4wNjg0OTY3MDQxMDE1NiIgY2xhc3M9ImVyIGF0dHJpYnV0ZUJveE9kZCI+PC9yZWN0Pjx0ZXh0IHN0eWxlPSJkb21pbmFudC1iYXNlbGluZTogbWlkZGxlOyBmb250LXNpemU6IDEwLjJweDsiIHRyYW5zZm9ybT0idHJhbnNsYXRlKDU3LjA2ODQ5NjcwNDEwMTU2LDIxMSkiIHk9IjAiIHg9IjAiIGlkPSJ0ZXh0LWVudGl0eS1QUk9QRVJUWS1lZjY3ZWYxMC05MzFhLTUwOGMtYTIxMS0yY2EyZjk4N2NlMDMtYXR0ci05LW5hbWUiIGNsYXNzPSJlciBlbnRpdHlMYWJlbCI+Y29vcmRpbmF0ZXM8L3RleHQ+PHJlY3QgaGVpZ2h0PSIyMiIgd2lkdGg9IjIyLjY4NzY4MzEwNTQ2ODc1IiB5PSIyMDAiIHg9IjEzNS4zMjA3MjQ0ODczMDQ3IiBjbGFzcz0iZXIgYXR0cmlidXRlQm94T2RkIj48L3JlY3Q+PHRleHQgc3R5bGU9ImRvbWluYW50LWJhc2VsaW5lOiBtaWRkbGU7IGZvbnQtc2l6ZTogMTAuMnB4OyIgdHJhbnNmb3JtPSJ0cmFuc2xhdGUoMTQwLjMyMDcyNDQ4NzMwNDcsMjExKSIgeT0iMCIgeD0iMCIgaWQ9InRleHQtZW50aXR5LVBST1BFUlRZLWVmNjdlZjEwLTkzMWEtNTA4Yy1hMjExLTJjYTJmOTg3Y2UwMy1hdHRyLTkta2V5IiBjbGFzcz0iZXIgZW50aXR5TGFiZWwiPjwvdGV4dD48cmVjdCBoZWlnaHQ9IjIyIiB3aWR0aD0iNTIuMDY4NDk2NzA0MTAxNTYiIHk9IjIyMiIgeD0iMCIgY2xhc3M9ImVyIGF0dHJpYnV0ZUJveEV2ZW4iPjwvcmVjdD48dGV4dCBzdHlsZT0iZG9taW5hbnQtYmFzZWxpbmU6IG1pZGRsZTsgZm9udC1zaXplOiAxMC4ycHg7IiB0cmFuc2Zvcm09InRyYW5zbGF0ZSg1LDIzMykiIHk9IjAiIHg9IjAiIGlkPSJ0ZXh0LWVudGl0eS1QUk9QRVJUWS1lZjY3ZWYxMC05MzFhLTUwOGMtYTIxMS0yY2EyZjk4N2NlMDMtYXR0ci0xMC10eXBlIiBjbGFzcz0iZXIgZW50aXR5TGFiZWwiPmZsb2F0PC90ZXh0PjxyZWN0IGhlaWdodD0iMjIiIHdpZHRoPSI4My4yNTIyMjc3ODMyMDMxMiIgeT0iMjIyIiB4PSI1Mi4wNjg0OTY3MDQxMDE1NiIgY2xhc3M9ImVyIGF0dHJpYnV0ZUJveEV2ZW4iPjwvcmVjdD48dGV4dCBzdHlsZT0iZG9taW5hbnQtYmFzZWxpbmU6IG1pZGRsZTsgZm9udC1zaXplOiAxMC4ycHg7IiB0cmFuc2Zvcm09InRyYW5zbGF0ZSg1Ny4wNjg0OTY3MDQxMDE1NiwyMzMpIiB5PSIwIiB4PSIwIiBpZD0idGV4dC1lbnRpdHktUFJPUEVSVFktZWY2N2VmMTAtOTMxYS01MDhjLWEyMTEtMmNhMmY5ODdjZTAzLWF0dHItMTAtbmFtZSIgY2xhc3M9ImVyIGVudGl0eUxhYmVsIj5wcmljZV9wZXJfbmlnaHQ8L3RleHQ+PHJlY3QgaGVpZ2h0PSIyMiIgd2lkdGg9IjIyLjY4NzY4MzEwNTQ2ODc1IiB5PSIyMjIiIHg9IjEzNS4zMjA3MjQ0ODczMDQ3IiBjbGFzcz0iZXIgYXR0cmlidXRlQm94RXZlbiI+PC9yZWN0Pjx0ZXh0IHN0eWxlPSJkb21pbmFudC1iYXNlbGluZTogbWlkZGxlOyBmb250LXNpemU6IDEwLjJweDsiIHRyYW5zZm9ybT0idHJhbnNsYXRlKDE0MC4zMjA3MjQ0ODczMDQ3LDIzMykiIHk9IjAiIHg9IjAiIGlkPSJ0ZXh0LWVudGl0eS1QUk9QRVJUWS1lZjY3ZWYxMC05MzFhLTUwOGMtYTIxMS0yY2EyZjk4N2NlMDMtYXR0ci0xMC1rZXkiIGNsYXNzPSJlciBlbnRpdHlMYWJlbCI+PC90ZXh0PjxyZWN0IGhlaWdodD0iMjIiIHdpZHRoPSI1Mi4wNjg0OTY3MDQxMDE1NiIgeT0iMjQ0IiB4PSIwIiBjbGFzcz0iZXIgYXR0cmlidXRlQm94T2RkIj48L3JlY3Q+PHRleHQgc3R5bGU9ImRvbWluYW50LWJhc2VsaW5lOiBtaWRkbGU7IGZvbnQtc2l6ZTogMTAuMnB4OyIgdHJhbnNmb3JtPSJ0cmFuc2xhdGUoNSwyNTUpIiB5PSIwIiB4PSIwIiBpZD0idGV4dC1lbnRpdHktUFJPUEVSVFktZWY2N2VmMTAtOTMxYS01MDhjLWEyMTEtMmNhMmY5ODdjZTAzLWF0dHItMTEtdHlwZSIgY2xhc3M9ImVyIGVudGl0eUxhYmVsIj5zdHJpbmc8L3RleHQ+PHJlY3QgaGVpZ2h0PSIyMiIgd2lkdGg9IjgzLjI1MjIyNzc4MzIwMzEyIiB5PSIyNDQiIHg9IjUyLjA2ODQ5NjcwNDEwMTU2IiBjbGFzcz0iZXIgYXR0cmlidXRlQm94T2RkIj48L3JlY3Q+PHRleHQgc3R5bGU9ImRvbWluYW50LWJhc2VsaW5lOiBtaWRkbGU7IGZvbnQtc2l6ZTogMTAuMnB4OyIgdHJhbnNmb3JtPSJ0cmFuc2xhdGUoNTcuMDY4NDk2NzA0MTAxNTYsMjU1KSIgeT0iMCIgeD0iMCIgaWQ9InRleHQtZW50aXR5LVBST1BFUlRZLWVmNjdlZjEwLTkzMWEtNTA4Yy1hMjExLTJjYTJmOTg3Y2UwMy1hdHRyLTExLW5hbWUiIGNsYXNzPSJlciBlbnRpdHlMYWJlbCI+YW1lbml0aWVzPC90ZXh0PjxyZWN0IGhlaWdodD0iMjIiIHdpZHRoPSIyMi42ODc2ODMxMDU0Njg3NSIgeT0iMjQ0IiB4PSIxMzUuMzIwNzI0NDg3MzA0NyIgY2xhc3M9ImVyIGF0dHJpYnV0ZUJveE9kZCI+PC9yZWN0Pjx0ZXh0IHN0eWxlPSJkb21pbmFudC1iYXNlbGluZTogbWlkZGxlOyBmb250LXNpemU6IDEwLjJweDsiIHRyYW5zZm9ybT0idHJhbnNsYXRlKDE0MC4zMjA3MjQ0ODczMDQ3LDI1NSkiIHk9IjAiIHg9IjAiIGlkPSJ0ZXh0LWVudGl0eS1QUk9QRVJUWS1lZjY3ZWYxMC05MzFhLTUwOGMtYTIxMS0yY2EyZjk4N2NlMDMtYXR0ci0xMS1rZXkiIGNsYXNzPSJlciBlbnRpdHlMYWJlbCI+PC90ZXh0PjxyZWN0IGhlaWdodD0iMjIiIHdpZHRoPSI1Mi4wNjg0OTY3MDQxMDE1NiIgeT0iMjY2IiB4PSIwIiBjbGFzcz0iZXIgYXR0cmlidXRlQm94RXZlbiI+PC9yZWN0Pjx0ZXh0IHN0eWxlPSJkb21pbmFudC1iYXNlbGluZTogbWlkZGxlOyBmb250LXNpemU6IDEwLjJweDsiIHRyYW5zZm9ybT0idHJhbnNsYXRlKDUsMjc3KSIgeT0iMCIgeD0iMCIgaWQ9InRleHQtZW50aXR5LVBST1BFUlRZLWVmNjdlZjEwLTkzMWEtNTA4Yy1hMjExLTJjYTJmOTg3Y2UwMy1hdHRyLTEyLXR5cGUiIGNsYXNzPSJlciBlbnRpdHlMYWJlbCI+c3RyaW5nPC90ZXh0PjxyZWN0IGhlaWdodD0iMjIiIHdpZHRoPSI4My4yNTIyMjc3ODMyMDMxMiIgeT0iMjY2IiB4PSI1Mi4wNjg0OTY3MDQxMDE1NiIgY2xhc3M9ImVyIGF0dHJpYnV0ZUJveEV2ZW4iPjwvcmVjdD48dGV4dCBzdHlsZT0iZG9taW5hbnQtYmFzZWxpbmU6IG1pZGRsZTsgZm9udC1zaXplOiAxMC4ycHg7IiB0cmFuc2Zvcm09InRyYW5zbGF0ZSg1Ny4wNjg0OTY3MDQxMDE1NiwyNzcpIiB5PSIwIiB4PSIwIiBpZD0idGV4dC1lbnRpdHktUFJPUEVSVFktZWY2N2VmMTAtOTMxYS01MDhjLWEyMTEtMmNhMmY5ODdjZTAzLWF0dHItMTItbmFtZSIgY2xhc3M9ImVyIGVudGl0eUxhYmVsIj5ydWxlczwvdGV4dD48cmVjdCBoZWlnaHQ9IjIyIiB3aWR0aD0iMjIuNjg3NjgzMTA1NDY4NzUiIHk9IjI2NiIgeD0iMTM1LjMyMDcyNDQ4NzMwNDciIGNsYXNzPSJlciBhdHRyaWJ1dGVCb3hFdmVuIj48L3JlY3Q+PHRleHQgc3R5bGU9ImRvbWluYW50LWJhc2VsaW5lOiBtaWRkbGU7IGZvbnQtc2l6ZTogMTAuMnB4OyIgdHJhbnNmb3JtPSJ0cmFuc2xhdGUoMTQwLjMyMDcyNDQ4NzMwNDcsMjc3KSIgeT0iMCIgeD0iMCIgaWQ9InRleHQtZW50aXR5LVBST1BFUlRZLWVmNjdlZjEwLTkzMWEtNTA4Yy1hMjExLTJjYTJmOTg3Y2UwMy1hdHRyLTEyLWtleSIgY2xhc3M9ImVyIGVudGl0eUxhYmVsIj48L3RleHQ+PHJlY3QgaGVpZ2h0PSIyMiIgd2lkdGg9IjUyLjA2ODQ5NjcwNDEwMTU2IiB5PSIyODgiIHg9IjAiIGNsYXNzPSJlciBhdHRyaWJ1dGVCb3hPZGQiPjwvcmVjdD48dGV4dCBzdHlsZT0iZG9taW5hbnQtYmFzZWxpbmU6IG1pZGRsZTsgZm9udC1zaXplOiAxMC4ycHg7IiB0cmFuc2Zvcm09InRyYW5zbGF0ZSg1LDI5OSkiIHk9IjAiIHg9IjAiIGlkPSJ0ZXh0LWVudGl0eS1QUk9QRVJUWS1lZjY3ZWYxMC05MzFhLTUwOGMtYTIxMS0yY2EyZjk4N2NlMDMtYXR0ci0xMy10eXBlIiBjbGFzcz0iZXIgZW50aXR5TGFiZWwiPnN0cmluZzwvdGV4dD48cmVjdCBoZWlnaHQ9IjIyIiB3aWR0aD0iODMuMjUyMjI3NzgzMjAzMTIiIHk9IjI4OCIgeD0iNTIuMDY4NDk2NzA0MTAxNTYiIGNsYXNzPSJlciBhdHRyaWJ1dGVCb3hPZGQiPjwvcmVjdD48dGV4dCBzdHlsZT0iZG9taW5hbnQtYmFzZWxpbmU6IG1pZGRsZTsgZm9udC1zaXplOiAxMC4ycHg7IiB0cmFuc2Zvcm09InRyYW5zbGF0ZSg1Ny4wNjg0OTY3MDQxMDE1NiwyOTkpIiB5PSIwIiB4PSIwIiBpZD0idGV4dC1lbnRpdHktUFJPUEVSVFktZWY2N2VmMTAtOTMxYS01MDhjLWEyMTEtMmNhMmY5ODdjZTAzLWF0dHItMTMtbmFtZSIgY2xhc3M9ImVyIGVudGl0eUxhYmVsIj5waG90b3M8L3RleHQ+PHJlY3QgaGVpZ2h0PSIyMiIgd2lkdGg9IjIyLjY4NzY4MzEwNTQ2ODc1IiB5PSIyODgiIHg9IjEzNS4zMjA3MjQ0ODczMDQ3IiBjbGFzcz0iZXIgYXR0cmlidXRlQm94T2RkIj48L3JlY3Q+PHRleHQgc3R5bGU9ImRvbWluYW50LWJhc2VsaW5lOiBtaWRkbGU7IGZvbnQtc2l6ZTogMTAuMnB4OyIgdHJhbnNmb3JtPSJ0cmFuc2xhdGUoMTQwLjMyMDcyNDQ4NzMwNDcsMjk5KSIgeT0iMCIgeD0iMCIgaWQ9InRleHQtZW50aXR5LVBST1BFUlRZLWVmNjdlZjEwLTkzMWEtNTA4Yy1hMjExLTJjYTJmOTg3Y2UwMy1hdHRyLTEzLWtleSIgY2xhc3M9ImVyIGVudGl0eUxhYmVsIj48L3RleHQ+PHJlY3QgaGVpZ2h0PSIyMiIgd2lkdGg9IjUyLjA2ODQ5NjcwNDEwMTU2IiB5PSIzMTAiIHg9IjAiIGNsYXNzPSJlciBhdHRyaWJ1dGVCb3hFdmVuIj48L3JlY3Q+PHRleHQgc3R5bGU9ImRvbWluYW50LWJhc2VsaW5lOiBtaWRkbGU7IGZvbnQtc2l6ZTogMTAuMnB4OyIgdHJhbnNmb3JtPSJ0cmFuc2xhdGUoNSwzMjEpIiB5PSIwIiB4PSIwIiBpZD0idGV4dC1lbnRpdHktUFJPUEVSVFktZWY2N2VmMTAtOTMxYS01MDhjLWEyMTEtMmNhMmY5ODdjZTAzLWF0dHItMTQtdHlwZSIgY2xhc3M9ImVyIGVudGl0eUxhYmVsIj5kYXRldGltZTwvdGV4dD48cmVjdCBoZWlnaHQ9IjIyIiB3aWR0aD0iODMuMjUyMjI3NzgzMjAzMTIiIHk9IjMxMCIgeD0iNTIuMDY4NDk2NzA0MTAxNTYiIGNsYXNzPSJlciBhdHRyaWJ1dGVCb3hFdmVuIj48L3JlY3Q+PHRleHQgc3R5bGU9ImRvbWluYW50LWJhc2VsaW5lOiBtaWRkbGU7IGZvbnQtc2l6ZTogMTAuMnB4OyIgdHJhbnNmb3JtPSJ0cmFuc2xhdGUoNTcuMDY4NDk2NzA0MTAxNTYsMzIxKSIgeT0iMCIgeD0iMCIgaWQ9InRleHQtZW50aXR5LVBST1BFUlRZLWVmNjdlZjEwLTkzMWEtNTA4Yy1hMjExLTJjYTJmOTg3Y2UwMy1hdHRyLTE0LW5hbWUiIGNsYXNzPSJlciBlbnRpdHlMYWJlbCI+Y3JlYXRlZF9hdDwvdGV4dD48cmVjdCBoZWlnaHQ9IjIyIiB3aWR0aD0iMjIuNjg3NjgzMTA1NDY4NzUiIHk9IjMxMCIgeD0iMTM1LjMyMDcyNDQ4NzMwNDciIGNsYXNzPSJlciBhdHRyaWJ1dGVCb3hFdmVuIj48L3JlY3Q+PHRleHQgc3R5bGU9ImRvbWluYW50LWJhc2VsaW5lOiBtaWRkbGU7IGZvbnQtc2l6ZTogMTAuMnB4OyIgdHJhbnNmb3JtPSJ0cmFuc2xhdGUoMTQwLjMyMDcyNDQ4NzMwNDcsMzIxKSIgeT0iMCIgeD0iMCIgaWQ9InRleHQtZW50aXR5LVBST1BFUlRZLWVmNjdlZjEwLTkzMWEtNTA4Yy1hMjExLTJjYTJmOTg3Y2UwMy1hdHRyLTE0LWtleSIgY2xhc3M9ImVyIGVudGl0eUxhYmVsIj48L3RleHQ+PHJlY3QgaGVpZ2h0PSIyMiIgd2lkdGg9IjUyLjA2ODQ5NjcwNDEwMTU2IiB5PSIzMzIiIHg9IjAiIGNsYXNzPSJlciBhdHRyaWJ1dGVCb3hPZGQiPjwvcmVjdD48dGV4dCBzdHlsZT0iZG9taW5hbnQtYmFzZWxpbmU6IG1pZGRsZTsgZm9udC1zaXplOiAxMC4ycHg7IiB0cmFuc2Zvcm09InRyYW5zbGF0ZSg1LDM0MykiIHk9IjAiIHg9IjAiIGlkPSJ0ZXh0LWVudGl0eS1QUk9QRVJUWS1lZjY3ZWYxMC05MzFhLTUwOGMtYTIxMS0yY2EyZjk4N2NlMDMtYXR0ci0xNS10eXBlIiBjbGFzcz0iZXIgZW50aXR5TGFiZWwiPmRhdGV0aW1lPC90ZXh0PjxyZWN0IGhlaWdodD0iMjIiIHdpZHRoPSI4My4yNTIyMjc3ODMyMDMxMiIgeT0iMzMyIiB4PSI1Mi4wNjg0OTY3MDQxMDE1NiIgY2xhc3M9ImVyIGF0dHJpYnV0ZUJveE9kZCI+PC9yZWN0Pjx0ZXh0IHN0eWxlPSJkb21pbmFudC1iYXNlbGluZTogbWlkZGxlOyBmb250LXNpemU6IDEwLjJweDsiIHRyYW5zZm9ybT0idHJhbnNsYXRlKDU3LjA2ODQ5NjcwNDEwMTU2LDM0MykiIHk9IjAiIHg9IjAiIGlkPSJ0ZXh0LWVudGl0eS1QUk9QRVJUWS1lZjY3ZWYxMC05MzFhLTUwOGMtYTIxMS0yY2EyZjk4N2NlMDMtYXR0ci0xNS1uYW1lIiBjbGFzcz0iZXIgZW50aXR5TGFiZWwiPnVwZGF0ZWRfYXQ8L3RleHQ+PHJlY3QgaGVpZ2h0PSIyMiIgd2lkdGg9IjIyLjY4NzY4MzEwNTQ2ODc1IiB5PSIzMzIiIHg9IjEzNS4zMjA3MjQ0ODczMDQ3IiBjbGFzcz0iZXIgYXR0cmlidXRlQm94T2RkIj48L3JlY3Q+PHRleHQgc3R5bGU9ImRvbWluYW50LWJhc2VsaW5lOiBtaWRkbGU7IGZvbnQtc2l6ZTogMTAuMnB4OyIgdHJhbnNmb3JtPSJ0cmFuc2xhdGUoMTQwLjMyMDcyNDQ4NzMwNDcsMzQzKSIgeT0iMCIgeD0iMCIgaWQ9InRleHQtZW50aXR5LVBST1BFUlRZLWVmNjdlZjEwLTkzMWEtNTA4Yy1hMjExLTJjYTJmOTg3Y2UwMy1hdHRyLTE1LWtleSIgY2xhc3M9ImVyIGVudGl0eUxhYmVsIj48L3RleHQ+PC9nPjxnIHRyYW5zZm9ybT0idHJhbnNsYXRlKDEyMy40ODU3OTQwNjczODI4MSw4NDAgKSIgaWQ9ImVudGl0eS1CT09LSU5HLWIxOWE5OTM1LWM2YjktNWZjMi05ZGQwLTNlOTkyZjAwYzgwNyI+PHJlY3QgaGVpZ2h0PSIyNjYiIHdpZHRoPSIxNTcuOTczNTU2NTE4NTU0NyIgeT0iMCIgeD0iMCIgY2xhc3M9ImVyIGVudGl0eUJveCI+PC9yZWN0Pjx0ZXh0IHN0eWxlPSJkb21pbmFudC1iYXNlbGluZTogbWlkZGxlOyB0ZXh0LWFuY2hvcjogbWlkZGxlOyBmb250LXNpemU6IDEycHg7IiB0cmFuc2Zvcm09InRyYW5zbGF0ZSg3OC45ODY3NzgyNTkyNzczNCwxMikiIHk9IjAiIHg9IjAiIGlkPSJ0ZXh0LWVudGl0eS1CT09LSU5HLWIxOWE5OTM1LWM2YjktNWZjMi05ZGQwLTNlOTkyZjAwYzgwNyIgY2xhc3M9ImVyIGVudGl0eUxhYmVsIj5CT09LSU5HPC90ZXh0PjxyZWN0IGhlaWdodD0iMjIiIHdpZHRoPSI1Mi4wNjg0OTY3MDQxMDE1NiIgeT0iMjQiIHg9IjAiIGNsYXNzPSJlciBhdHRyaWJ1dGVCb3hPZGQiPjwvcmVjdD48dGV4dCBzdHlsZT0iZG9taW5hbnQtYmFzZWxpbmU6IG1pZGRsZTsgZm9udC1zaXplOiAxMC4ycHg7IiB0cmFuc2Zvcm09InRyYW5zbGF0ZSg1LDM1KSIgeT0iMCIgeD0iMCIgaWQ9InRleHQtZW50aXR5LUJPT0tJTkctYjE5YTk5MzUtYzZiOS01ZmMyLTlkZDAtM2U5OTJmMDBjODA3LWF0dHItMS10eXBlIiBjbGFzcz0iZXIgZW50aXR5TGFiZWwiPmludDwvdGV4dD48cmVjdCBoZWlnaHQ9IjIyIiB3aWR0aD0iODMuMjE3Mzc2NzA4OTg0MzgiIHk9IjI0IiB4PSI1Mi4wNjg0OTY3MDQxMDE1NiIgY2xhc3M9ImVyIGF0dHJpYnV0ZUJveE9kZCI+PC9yZWN0Pjx0ZXh0IHN0eWxlPSJkb21pbmFudC1iYXNlbGluZTogbWlkZGxlOyBmb250LXNpemU6IDEwLjJweDsiIHRyYW5zZm9ybT0idHJhbnNsYXRlKDU3LjA2ODQ5NjcwNDEwMTU2LDM1KSIgeT0iMCIgeD0iMCIgaWQ9InRleHQtZW50aXR5LUJPT0tJTkctYjE5YTk5MzUtYzZiOS01ZmMyLTlkZDAtM2U5OTJmMDBjODA3LWF0dHItMS1uYW1lIiBjbGFzcz0iZXIgZW50aXR5TGFiZWwiPmJvb2tpbmdfaWQ8L3RleHQ+PHJlY3QgaGVpZ2h0PSIyMiIgd2lkdGg9IjIyLjY4NzY4MzEwNTQ2ODc1IiB5PSIyNCIgeD0iMTM1LjI4NTg3MzQxMzA4NTk0IiBjbGFzcz0iZXIgYXR0cmlidXRlQm94T2RkIj48L3JlY3Q+PHRleHQgc3R5bGU9ImRvbWluYW50LWJhc2VsaW5lOiBtaWRkbGU7IGZvbnQtc2l6ZTogMTAuMnB4OyIgdHJhbnNmb3JtPSJ0cmFuc2xhdGUoMTQwLjI4NTg3MzQxMzA4NTk0LDM1KSIgeT0iMCIgeD0iMCIgaWQ9InRleHQtZW50aXR5LUJPT0tJTkctYjE5YTk5MzUtYzZiOS01ZmMyLTlkZDAtM2U5OTJmMDBjODA3LWF0dHItMS1rZXkiIGNsYXNzPSJlciBlbnRpdHlMYWJlbCI+UEs8L3RleHQ+PHJlY3QgaGVpZ2h0PSIyMiIgd2lkdGg9IjUyLjA2ODQ5NjcwNDEwMTU2IiB5PSI0NiIgeD0iMCIgY2xhc3M9ImVyIGF0dHJpYnV0ZUJveEV2ZW4iPjwvcmVjdD48dGV4dCBzdHlsZT0iZG9taW5hbnQtYmFzZWxpbmU6IG1pZGRsZTsgZm9udC1zaXplOiAxMC4ycHg7IiB0cmFuc2Zvcm09InRyYW5zbGF0ZSg1LDU3KSIgeT0iMCIgeD0iMCIgaWQ9InRleHQtZW50aXR5LUJPT0tJTkctYjE5YTk5MzUtYzZiOS01ZmMyLTlkZDAtM2U5OTJmMDBjODA3LWF0dHItMi10eXBlIiBjbGFzcz0iZXIgZW50aXR5TGFiZWwiPmludDwvdGV4dD48cmVjdCBoZWlnaHQ9IjIyIiB3aWR0aD0iODMuMjE3Mzc2NzA4OTg0MzgiIHk9IjQ2IiB4PSI1Mi4wNjg0OTY3MDQxMDE1NiIgY2xhc3M9ImVyIGF0dHJpYnV0ZUJveEV2ZW4iPjwvcmVjdD48dGV4dCBzdHlsZT0iZG9taW5hbnQtYmFzZWxpbmU6IG1pZGRsZTsgZm9udC1zaXplOiAxMC4ycHg7IiB0cmFuc2Zvcm09InRyYW5zbGF0ZSg1Ny4wNjg0OTY3MDQxMDE1Niw1NykiIHk9IjAiIHg9IjAiIGlkPSJ0ZXh0LWVudGl0eS1CT09LSU5HLWIxOWE5OTM1LWM2YjktNWZjMi05ZGQwLTNlOTkyZjAwYzgwNy1hdHRyLTItbmFtZSIgY2xhc3M9ImVyIGVudGl0eUxhYmVsIj5wcm9wZXJ0eV9pZDwvdGV4dD48cmVjdCBoZWlnaHQ9IjIyIiB3aWR0aD0iMjIuNjg3NjgzMTA1NDY4NzUiIHk9IjQ2IiB4PSIxMzUuMjg1ODczNDEzMDg1OTQiIGNsYXNzPSJlciBhdHRyaWJ1dGVCb3hFdmVuIj48L3JlY3Q+PHRleHQgc3R5bGU9ImRvbWluYW50LWJhc2VsaW5lOiBtaWRkbGU7IGZvbnQtc2l6ZTogMTAuMnB4OyIgdHJhbnNmb3JtPSJ0cmFuc2xhdGUoMTQwLjI4NTg3MzQxMzA4NTk0LDU3KSIgeT0iMCIgeD0iMCIgaWQ9InRleHQtZW50aXR5LUJPT0tJTkctYjE5YTk5MzUtYzZiOS01ZmMyLTlkZDAtM2U5OTJmMDBjODA3LWF0dHItMi1rZXkiIGNsYXNzPSJlciBlbnRpdHlMYWJlbCI+Rks8L3RleHQ+PHJlY3QgaGVpZ2h0PSIyMiIgd2lkdGg9IjUyLjA2ODQ5NjcwNDEwMTU2IiB5PSI2OCIgeD0iMCIgY2xhc3M9ImVyIGF0dHJpYnV0ZUJveE9kZCI+PC9yZWN0Pjx0ZXh0IHN0eWxlPSJkb21pbmFudC1iYXNlbGluZTogbWlkZGxlOyBmb250LXNpemU6IDEwLjJweDsiIHRyYW5zZm9ybT0idHJhbnNsYXRlKDUsNzkpIiB5PSIwIiB4PSIwIiBpZD0idGV4dC1lbnRpdHktQk9PS0lORy1iMTlhOTkzNS1jNmI5LTVmYzItOWRkMC0zZTk5MmYwMGM4MDctYXR0ci0zLXR5cGUiIGNsYXNzPSJlciBlbnRpdHlMYWJlbCI+aW50PC90ZXh0PjxyZWN0IGhlaWdodD0iMjIiIHdpZHRoPSI4My4yMTczNzY3MDg5ODQzOCIgeT0iNjgiIHg9IjUyLjA2ODQ5NjcwNDEwMTU2IiBjbGFzcz0iZXIgYXR0cmlidXRlQm94T2RkIj48L3JlY3Q+PHRleHQgc3R5bGU9ImRvbWluYW50LWJhc2VsaW5lOiBtaWRkbGU7IGZvbnQtc2l6ZTogMTAuMnB4OyIgdHJhbnNmb3JtPSJ0cmFuc2xhdGUoNTcuMDY4NDk2NzA0MTAxNTYsNzkpIiB5PSIwIiB4PSIwIiBpZD0idGV4dC1lbnRpdHktQk9PS0lORy1iMTlhOTkzNS1jNmI5LTVmYzItOWRkMC0zZTk5MmYwMGM4MDctYXR0ci0zLW5hbWUiIGNsYXNzPSJlciBlbnRpdHlMYWJlbCI+Z3Vlc3RfaWQ8L3RleHQ+PHJlY3QgaGVpZ2h0PSIyMiIgd2lkdGg9IjIyLjY4NzY4MzEwNTQ2ODc1IiB5PSI2OCIgeD0iMTM1LjI4NTg3MzQxMzA4NTk0IiBjbGFzcz0iZXIgYXR0cmlidXRlQm94T2RkIj48L3JlY3Q+PHRleHQgc3R5bGU9ImRvbWluYW50LWJhc2VsaW5lOiBtaWRkbGU7IGZvbnQtc2l6ZTogMTAuMnB4OyIgdHJhbnNmb3JtPSJ0cmFuc2xhdGUoMTQwLjI4NTg3MzQxMzA4NTk0LDc5KSIgeT0iMCIgeD0iMCIgaWQ9InRleHQtZW50aXR5LUJPT0tJTkctYjE5YTk5MzUtYzZiOS01ZmMyLTlkZDAtM2U5OTJmMDBjODA3LWF0dHItMy1rZXkiIGNsYXNzPSJlciBlbnRpdHlMYWJlbCI+Rks8L3RleHQ+PHJlY3QgaGVpZ2h0PSIyMiIgd2lkdGg9IjUyLjA2ODQ5NjcwNDEwMTU2IiB5PSI5MCIgeD0iMCIgY2xhc3M9ImVyIGF0dHJpYnV0ZUJveEV2ZW4iPjwvcmVjdD48dGV4dCBzdHlsZT0iZG9taW5hbnQtYmFzZWxpbmU6IG1pZGRsZTsgZm9udC1zaXplOiAxMC4ycHg7IiB0cmFuc2Zvcm09InRyYW5zbGF0ZSg1LDEwMSkiIHk9IjAiIHg9IjAiIGlkPSJ0ZXh0LWVudGl0eS1CT09LSU5HLWIxOWE5OTM1LWM2YjktNWZjMi05ZGQwLTNlOTkyZjAwYzgwNy1hdHRyLTQtdHlwZSIgY2xhc3M9ImVyIGVudGl0eUxhYmVsIj5pbnQ8L3RleHQ+PHJlY3QgaGVpZ2h0PSIyMiIgd2lkdGg9IjgzLjIxNzM3NjcwODk4NDM4IiB5PSI5MCIgeD0iNTIuMDY4NDk2NzA0MTAxNTYiIGNsYXNzPSJlciBhdHRyaWJ1dGVCb3hFdmVuIj48L3JlY3Q+PHRleHQgc3R5bGU9ImRvbWluYW50LWJhc2VsaW5lOiBtaWRkbGU7IGZvbnQtc2l6ZTogMTAuMnB4OyIgdHJhbnNmb3JtPSJ0cmFuc2xhdGUoNTcuMDY4NDk2NzA0MTAxNTYsMTAxKSIgeT0iMCIgeD0iMCIgaWQ9InRleHQtZW50aXR5LUJPT0tJTkctYjE5YTk5MzUtYzZiOS01ZmMyLTlkZDAtM2U5OTJmMDBjODA3LWF0dHItNC1uYW1lIiBjbGFzcz0iZXIgZW50aXR5TGFiZWwiPmhvc3RfaWQ8L3RleHQ+PHJlY3QgaGVpZ2h0PSIyMiIgd2lkdGg9IjIyLjY4NzY4MzEwNTQ2ODc1IiB5PSI5MCIgeD0iMTM1LjI4NTg3MzQxMzA4NTk0IiBjbGFzcz0iZXIgYXR0cmlidXRlQm94RXZlbiI+PC9yZWN0Pjx0ZXh0IHN0eWxlPSJkb21pbmFudC1iYXNlbGluZTogbWlkZGxlOyBmb250LXNpemU6IDEwLjJweDsiIHRyYW5zZm9ybT0idHJhbnNsYXRlKDE0MC4yODU4NzM0MTMwODU5NCwxMDEpIiB5PSIwIiB4PSIwIiBpZD0idGV4dC1lbnRpdHktQk9PS0lORy1iMTlhOTkzNS1jNmI5LTVmYzItOWRkMC0zZTk5MmYwMGM4MDctYXR0ci00LWtleSIgY2xhc3M9ImVyIGVudGl0eUxhYmVsIj5GSzwvdGV4dD48cmVjdCBoZWlnaHQ9IjIyIiB3aWR0aD0iNTIuMDY4NDk2NzA0MTAxNTYiIHk9IjExMiIgeD0iMCIgY2xhc3M9ImVyIGF0dHJpYnV0ZUJveE9kZCI+PC9yZWN0Pjx0ZXh0IHN0eWxlPSJkb21pbmFudC1iYXNlbGluZTogbWlkZGxlOyBmb250LXNpemU6IDEwLjJweDsiIHRyYW5zZm9ybT0idHJhbnNsYXRlKDUsMTIzKSIgeT0iMCIgeD0iMCIgaWQ9InRleHQtZW50aXR5LUJPT0tJTkctYjE5YTk5MzUtYzZiOS01ZmMyLTlkZDAtM2U5OTJmMDBjODA3LWF0dHItNS10eXBlIiBjbGFzcz0iZXIgZW50aXR5TGFiZWwiPmRhdGU8L3RleHQ+PHJlY3QgaGVpZ2h0PSIyMiIgd2lkdGg9IjgzLjIxNzM3NjcwODk4NDM4IiB5PSIxMTIiIHg9IjUyLjA2ODQ5NjcwNDEwMTU2IiBjbGFzcz0iZXIgYXR0cmlidXRlQm94T2RkIj48L3JlY3Q+PHRleHQgc3R5bGU9ImRvbWluYW50LWJhc2VsaW5lOiBtaWRkbGU7IGZvbnQtc2l6ZTogMTAuMnB4OyIgdHJhbnNmb3JtPSJ0cmFuc2xhdGUoNTcuMDY4NDk2NzA0MTAxNTYsMTIzKSIgeT0iMCIgeD0iMCIgaWQ9InRleHQtZW50aXR5LUJPT0tJTkctYjE5YTk5MzUtYzZiOS01ZmMyLTlkZDAtM2U5OTJmMDBjODA3LWF0dHItNS1uYW1lIiBjbGFzcz0iZXIgZW50aXR5TGFiZWwiPnN0YXJ0X2RhdGU8L3RleHQ+PHJlY3QgaGVpZ2h0PSIyMiIgd2lkdGg9IjIyLjY4NzY4MzEwNTQ2ODc1IiB5PSIxMTIiIHg9IjEzNS4yODU4NzM0MTMwODU5NCIgY2xhc3M9ImVyIGF0dHJpYnV0ZUJveE9kZCI+PC9yZWN0Pjx0ZXh0IHN0eWxlPSJkb21pbmFudC1iYXNlbGluZTogbWlkZGxlOyBmb250LXNpemU6IDEwLjJweDsiIHRyYW5zZm9ybT0idHJhbnNsYXRlKDE0MC4yODU4NzM0MTMwODU5NCwxMjMpIiB5PSIwIiB4PSIwIiBpZD0idGV4dC1lbnRpdHktQk9PS0lORy1iMTlhOTkzNS1jNmI5LTVmYzItOWRkMC0zZTk5MmYwMGM4MDctYXR0ci01LWtleSIgY2xhc3M9ImVyIGVudGl0eUxhYmVsIj48L3RleHQ+PHJlY3QgaGVpZ2h0PSIyMiIgd2lkdGg9IjUyLjA2ODQ5NjcwNDEwMTU2IiB5PSIxMzQiIHg9IjAiIGNsYXNzPSJlciBhdHRyaWJ1dGVCb3hFdmVuIj48L3JlY3Q+PHRleHQgc3R5bGU9ImRvbWluYW50LWJhc2VsaW5lOiBtaWRkbGU7IGZvbnQtc2l6ZTogMTAuMnB4OyIgdHJhbnNmb3JtPSJ0cmFuc2xhdGUoNSwxNDUpIiB5PSIwIiB4PSIwIiBpZD0idGV4dC1lbnRpdHktQk9PS0lORy1iMTlhOTkzNS1jNmI5LTVmYzItOWRkMC0zZTk5MmYwMGM4MDctYXR0ci02LXR5cGUiIGNsYXNzPSJlciBlbnRpdHlMYWJlbCI+ZGF0ZTwvdGV4dD48cmVjdCBoZWlnaHQ9IjIyIiB3aWR0aD0iODMuMjE3Mzc2NzA4OTg0MzgiIHk9IjEzNCIgeD0iNTIuMDY4NDk2NzA0MTAxNTYiIGNsYXNzPSJlciBhdHRyaWJ1dGVCb3hFdmVuIj48L3JlY3Q+PHRleHQgc3R5bGU9ImRvbWluYW50LWJhc2VsaW5lOiBtaWRkbGU7IGZvbnQtc2l6ZTogMTAuMnB4OyIgdHJhbnNmb3JtPSJ0cmFuc2xhdGUoNTcuMDY4NDk2NzA0MTAxNTYsMTQ1KSIgeT0iMCIgeD0iMCIgaWQ9InRleHQtZW50aXR5LUJPT0tJTkctYjE5YTk5MzUtYzZiOS01ZmMyLTlkZDAtM2U5OTJmMDBjODA3LWF0dHItNi1uYW1lIiBjbGFzcz0iZXIgZW50aXR5TGFiZWwiPmVuZF9kYXRlPC90ZXh0PjxyZWN0IGhlaWdodD0iMjIiIHdpZHRoPSIyMi42ODc2ODMxMDU0Njg3NSIgeT0iMTM0IiB4PSIxMzUuMjg1ODczNDEzMDg1OTQiIGNsYXNzPSJlciBhdHRyaWJ1dGVCb3hFdmVuIj48L3JlY3Q+PHRleHQgc3R5bGU9ImRvbWluYW50LWJhc2VsaW5lOiBtaWRkbGU7IGZvbnQtc2l6ZTogMTAuMnB4OyIgdHJhbnNmb3JtPSJ0cmFuc2xhdGUoMTQwLjI4NTg3MzQxMzA4NTk0LDE0NSkiIHk9IjAiIHg9IjAiIGlkPSJ0ZXh0LWVudGl0eS1CT09LSU5HLWIxOWE5OTM1LWM2YjktNWZjMi05ZGQwLTNlOTkyZjAwYzgwNy1hdHRyLTYta2V5IiBjbGFzcz0iZXIgZW50aXR5TGFiZWwiPjwvdGV4dD48cmVjdCBoZWlnaHQ9IjIyIiB3aWR0aD0iNTIuMDY4NDk2NzA0MTAxNTYiIHk9IjE1NiIgeD0iMCIgY2xhc3M9ImVyIGF0dHJpYnV0ZUJveE9kZCI+PC9yZWN0Pjx0ZXh0IHN0eWxlPSJkb21pbmFudC1iYXNlbGluZTogbWlkZGxlOyBmb250LXNpemU6IDEwLjJweDsiIHRyYW5zZm9ybT0idHJhbnNsYXRlKDUsMTY3KSIgeT0iMCIgeD0iMCIgaWQ9InRleHQtZW50aXR5LUJPT0tJTkctYjE5YTk5MzUtYzZiOS01ZmMyLTlkZDAtM2U5OTJmMDBjODA3LWF0dHItNy10eXBlIiBjbGFzcz0iZXIgZW50aXR5TGFiZWwiPnN0cmluZzwvdGV4dD48cmVjdCBoZWlnaHQ9IjIyIiB3aWR0aD0iODMuMjE3Mzc2NzA4OTg0MzgiIHk9IjE1NiIgeD0iNTIuMDY4NDk2NzA0MTAxNTYiIGNsYXNzPSJlciBhdHRyaWJ1dGVCb3hPZGQiPjwvcmVjdD48dGV4dCBzdHlsZT0iZG9taW5hbnQtYmFzZWxpbmU6IG1pZGRsZTsgZm9udC1zaXplOiAxMC4ycHg7IiB0cmFuc2Zvcm09InRyYW5zbGF0ZSg1Ny4wNjg0OTY3MDQxMDE1NiwxNjcpIiB5PSIwIiB4PSIwIiBpZD0idGV4dC1lbnRpdHktQk9PS0lORy1iMTlhOTkzNS1jNmI5LTVmYzItOWRkMC0zZTk5MmYwMGM4MDctYXR0ci03LW5hbWUiIGNsYXNzPSJlciBlbnRpdHlMYWJlbCI+c3RhdHVzPC90ZXh0PjxyZWN0IGhlaWdodD0iMjIiIHdpZHRoPSIyMi42ODc2ODMxMDU0Njg3NSIgeT0iMTU2IiB4PSIxMzUuMjg1ODczNDEzMDg1OTQiIGNsYXNzPSJlciBhdHRyaWJ1dGVCb3hPZGQiPjwvcmVjdD48dGV4dCBzdHlsZT0iZG9taW5hbnQtYmFzZWxpbmU6IG1pZGRsZTsgZm9udC1zaXplOiAxMC4ycHg7IiB0cmFuc2Zvcm09InRyYW5zbGF0ZSgxNDAuMjg1ODczNDEzMDg1OTQsMTY3KSIgeT0iMCIgeD0iMCIgaWQ9InRleHQtZW50aXR5LUJPT0tJTkctYjE5YTk5MzUtYzZiOS01ZmMyLTlkZDAtM2U5OTJmMDBjODA3LWF0dHItNy1rZXkiIGNsYXNzPSJlciBlbnRpdHlMYWJlbCI+PC90ZXh0PjxyZWN0IGhlaWdodD0iMjIiIHdpZHRoPSI1Mi4wNjg0OTY3MDQxMDE1NiIgeT0iMTc4IiB4PSIwIiBjbGFzcz0iZXIgYXR0cmlidXRlQm94RXZlbiI+PC9yZWN0Pjx0ZXh0IHN0eWxlPSJkb21pbmFudC1iYXNlbGluZTogbWlkZGxlOyBmb250LXNpemU6IDEwLjJweDsiIHRyYW5zZm9ybT0idHJhbnNsYXRlKDUsMTg5KSIgeT0iMCIgeD0iMCIgaWQ9InRleHQtZW50aXR5LUJPT0tJTkctYjE5YTk5MzUtYzZiOS01ZmMyLTlkZDAtM2U5OTJmMDBjODA3LWF0dHItOC10eXBlIiBjbGFzcz0iZXIgZW50aXR5TGFiZWwiPmZsb2F0PC90ZXh0PjxyZWN0IGhlaWdodD0iMjIiIHdpZHRoPSI4My4yMTczNzY3MDg5ODQzOCIgeT0iMTc4IiB4PSI1Mi4wNjg0OTY3MDQxMDE1NiIgY2xhc3M9ImVyIGF0dHJpYnV0ZUJveEV2ZW4iPjwvcmVjdD48dGV4dCBzdHlsZT0iZG9taW5hbnQtYmFzZWxpbmU6IG1pZGRsZTsgZm9udC1zaXplOiAxMC4ycHg7IiB0cmFuc2Zvcm09InRyYW5zbGF0ZSg1Ny4wNjg0OTY3MDQxMDE1NiwxODkpIiB5PSIwIiB4PSIwIiBpZD0idGV4dC1lbnRpdHktQk9PS0lORy1iMTlhOTkzNS1jNmI5LTVmYzItOWRkMC0zZTk5MmYwMGM4MDctYXR0ci04LW5hbWUiIGNsYXNzPSJlciBlbnRpdHlMYWJlbCI+dG90YWxfcHJpY2U8L3RleHQ+PHJlY3QgaGVpZ2h0PSIyMiIgd2lkdGg9IjIyLjY4NzY4MzEwNTQ2ODc1IiB5PSIxNzgiIHg9IjEzNS4yODU4NzM0MTMwODU5NCIgY2xhc3M9ImVyIGF0dHJpYnV0ZUJveEV2ZW4iPjwvcmVjdD48dGV4dCBzdHlsZT0iZG9taW5hbnQtYmFzZWxpbmU6IG1pZGRsZTsgZm9udC1zaXplOiAxMC4ycHg7IiB0cmFuc2Zvcm09InRyYW5zbGF0ZSgxNDAuMjg1ODczNDEzMDg1OTQsMTg5KSIgeT0iMCIgeD0iMCIgaWQ9InRleHQtZW50aXR5LUJPT0tJTkctYjE5YTk5MzUtYzZiOS01ZmMyLTlkZDAtM2U5OTJmMDBjODA3LWF0dHItOC1rZXkiIGNsYXNzPSJlciBlbnRpdHlMYWJlbCI+PC90ZXh0PjxyZWN0IGhlaWdodD0iMjIiIHdpZHRoPSI1Mi4wNjg0OTY3MDQxMDE1NiIgeT0iMjAwIiB4PSIwIiBjbGFzcz0iZXIgYXR0cmlidXRlQm94T2RkIj48L3JlY3Q+PHRleHQgc3R5bGU9ImRvbWluYW50LWJhc2VsaW5lOiBtaWRkbGU7IGZvbnQtc2l6ZTogMTAuMnB4OyIgdHJhbnNmb3JtPSJ0cmFuc2xhdGUoNSwyMTEpIiB5PSIwIiB4PSIwIiBpZD0idGV4dC1lbnRpdHktQk9PS0lORy1iMTlhOTkzNS1jNmI5LTVmYzItOWRkMC0zZTk5MmYwMGM4MDctYXR0ci05LXR5cGUiIGNsYXNzPSJlciBlbnRpdHlMYWJlbCI+c3RyaW5nPC90ZXh0PjxyZWN0IGhlaWdodD0iMjIiIHdpZHRoPSI4My4yMTczNzY3MDg5ODQzOCIgeT0iMjAwIiB4PSI1Mi4wNjg0OTY3MDQxMDE1NiIgY2xhc3M9ImVyIGF0dHJpYnV0ZUJveE9kZCI+PC9yZWN0Pjx0ZXh0IHN0eWxlPSJkb21pbmFudC1iYXNlbGluZTogbWlkZGxlOyBmb250LXNpemU6IDEwLjJweDsiIHRyYW5zZm9ybT0idHJhbnNsYXRlKDU3LjA2ODQ5NjcwNDEwMTU2LDIxMSkiIHk9IjAiIHg9IjAiIGlkPSJ0ZXh0LWVudGl0eS1CT09LSU5HLWIxOWE5OTM1LWM2YjktNWZjMi05ZGQwLTNlOTkyZjAwYzgwNy1hdHRyLTktbmFtZSIgY2xhc3M9ImVyIGVudGl0eUxhYmVsIj5wYXltZW50X3N0YXR1czwvdGV4dD48cmVjdCBoZWlnaHQ9IjIyIiB3aWR0aD0iMjIuNjg3NjgzMTA1NDY4NzUiIHk9IjIwMCIgeD0iMTM1LjI4NTg3MzQxMzA4NTk0IiBjbGFzcz0iZXIgYXR0cmlidXRlQm94T2RkIj48L3JlY3Q+PHRleHQgc3R5bGU9ImRvbWluYW50LWJhc2VsaW5lOiBtaWRkbGU7IGZvbnQtc2l6ZTogMTAuMnB4OyIgdHJhbnNmb3JtPSJ0cmFuc2xhdGUoMTQwLjI4NTg3MzQxMzA4NTk0LDIxMSkiIHk9IjAiIHg9IjAiIGlkPSJ0ZXh0LWVudGl0eS1CT09LSU5HLWIxOWE5OTM1LWM2YjktNWZjMi05ZGQwLTNlOTkyZjAwYzgwNy1hdHRyLTkta2V5IiBjbGFzcz0iZXIgZW50aXR5TGFiZWwiPjwvdGV4dD48cmVjdCBoZWlnaHQ9IjIyIiB3aWR0aD0iNTIuMDY4NDk2NzA0MTAxNTYiIHk9IjIyMiIgeD0iMCIgY2xhc3M9ImVyIGF0dHJpYnV0ZUJveEV2ZW4iPjwvcmVjdD48dGV4dCBzdHlsZT0iZG9taW5hbnQtYmFzZWxpbmU6IG1pZGRsZTsgZm9udC1zaXplOiAxMC4ycHg7IiB0cmFuc2Zvcm09InRyYW5zbGF0ZSg1LDIzMykiIHk9IjAiIHg9IjAiIGlkPSJ0ZXh0LWVudGl0eS1CT09LSU5HLWIxOWE5OTM1LWM2YjktNWZjMi05ZGQwLTNlOTkyZjAwYzgwNy1hdHRyLTEwLXR5cGUiIGNsYXNzPSJlciBlbnRpdHlMYWJlbCI+ZGF0ZXRpbWU8L3RleHQ+PHJlY3QgaGVpZ2h0PSIyMiIgd2lkdGg9IjgzLjIxNzM3NjcwODk4NDM4IiB5PSIyMjIiIHg9IjUyLjA2ODQ5NjcwNDEwMTU2IiBjbGFzcz0iZXIgYXR0cmlidXRlQm94RXZlbiI+PC9yZWN0Pjx0ZXh0IHN0eWxlPSJkb21pbmFudC1iYXNlbGluZTogbWlkZGxlOyBmb250LXNpemU6IDEwLjJweDsiIHRyYW5zZm9ybT0idHJhbnNsYXRlKDU3LjA2ODQ5NjcwNDEwMTU2LDIzMykiIHk9IjAiIHg9IjAiIGlkPSJ0ZXh0LWVudGl0eS1CT09LSU5HLWIxOWE5OTM1LWM2YjktNWZjMi05ZGQwLTNlOTkyZjAwYzgwNy1hdHRyLTEwLW5hbWUiIGNsYXNzPSJlciBlbnRpdHlMYWJlbCI+Y3JlYXRlZF9hdDwvdGV4dD48cmVjdCBoZWlnaHQ9IjIyIiB3aWR0aD0iMjIuNjg3NjgzMTA1NDY4NzUiIHk9IjIyMiIgeD0iMTM1LjI4NTg3MzQxMzA4NTk0IiBjbGFzcz0iZXIgYXR0cmlidXRlQm94RXZlbiI+PC9yZWN0Pjx0ZXh0IHN0eWxlPSJkb21pbmFudC1iYXNlbGluZTogbWlkZGxlOyBmb250LXNpemU6IDEwLjJweDsiIHRyYW5zZm9ybT0idHJhbnNsYXRlKDE0MC4yODU4NzM0MTMwODU5NCwyMzMpIiB5PSIwIiB4PSIwIiBpZD0idGV4dC1lbnRpdHktQk9PS0lORy1iMTlhOTkzNS1jNmI5LTVmYzItOWRkMC0zZTk5MmYwMGM4MDctYXR0ci0xMC1rZXkiIGNsYXNzPSJlciBlbnRpdHlMYWJlbCI+PC90ZXh0PjxyZWN0IGhlaWdodD0iMjIiIHdpZHRoPSI1Mi4wNjg0OTY3MDQxMDE1NiIgeT0iMjQ0IiB4PSIwIiBjbGFzcz0iZXIgYXR0cmlidXRlQm94T2RkIj48L3JlY3Q+PHRleHQgc3R5bGU9ImRvbWluYW50LWJhc2VsaW5lOiBtaWRkbGU7IGZvbnQtc2l6ZTogMTAuMnB4OyIgdHJhbnNmb3JtPSJ0cmFuc2xhdGUoNSwyNTUpIiB5PSIwIiB4PSIwIiBpZD0idGV4dC1lbnRpdHktQk9PS0lORy1iMTlhOTkzNS1jNmI5LTVmYzItOWRkMC0zZTk5MmYwMGM4MDctYXR0ci0xMS10eXBlIiBjbGFzcz0iZXIgZW50aXR5TGFiZWwiPmRhdGV0aW1lPC90ZXh0PjxyZWN0IGhlaWdodD0iMjIiIHdpZHRoPSI4My4yMTczNzY3MDg5ODQzOCIgeT0iMjQ0IiB4PSI1Mi4wNjg0OTY3MDQxMDE1NiIgY2xhc3M9ImVyIGF0dHJpYnV0ZUJveE9kZCI+PC9yZWN0Pjx0ZXh0IHN0eWxlPSJkb21pbmFudC1iYXNlbGluZTogbWlkZGxlOyBmb250LXNpemU6IDEwLjJweDsiIHRyYW5zZm9ybT0idHJhbnNsYXRlKDU3LjA2ODQ5NjcwNDEwMTU2LDI1NSkiIHk9IjAiIHg9IjAiIGlkPSJ0ZXh0LWVudGl0eS1CT09LSU5HLWIxOWE5OTM1LWM2YjktNWZjMi05ZGQwLTNlOTkyZjAwYzgwNy1hdHRyLTExLW5hbWUiIGNsYXNzPSJlciBlbnRpdHlMYWJlbCI+dXBkYXRlZF9hdDwvdGV4dD48cmVjdCBoZWlnaHQ9IjIyIiB3aWR0aD0iMjIuNjg3NjgzMTA1NDY4NzUiIHk9IjI0NCIgeD0iMTM1LjI4NTg3MzQxMzA4NTk0IiBjbGFzcz0iZXIgYXR0cmlidXRlQm94T2RkIj48L3JlY3Q+PHRleHQgc3R5bGU9ImRvbWluYW50LWJhc2VsaW5lOiBtaWRkbGU7IGZvbnQtc2l6ZTogMTAuMnB4OyIgdHJhbnNmb3JtPSJ0cmFuc2xhdGUoMTQwLjI4NTg3MzQxMzA4NTk0LDI1NSkiIHk9IjAiIHg9IjAiIGlkPSJ0ZXh0LWVudGl0eS1CT09LSU5HLWIxOWE5OTM1LWM2YjktNWZjMi05ZGQwLTNlOTkyZjAwYzgwNy1hdHRyLTExLWtleSIgY2xhc3M9ImVyIGVudGl0eUxhYmVsIj48L3RleHQ+PC9nPjxnIHRyYW5zZm9ybT0idHJhbnNsYXRlKDIwLDEyMDYgKSIgaWQ9ImVudGl0eS1QQVlNRU5ULTk3OTdlZWU4LTdhMDEtNWVmZS1hYWE1LWZiOWE0ZjE0OTU3YyI+PHJlY3QgaGVpZ2h0PSIyMjIiIHdpZHRoPSIxNjQuOTQ1MTQ0NjUzMzIwMyIgeT0iMCIgeD0iMCIgY2xhc3M9ImVyIGVudGl0eUJveCI+PC9yZWN0Pjx0ZXh0IHN0eWxlPSJkb21pbmFudC1iYXNlbGluZTogbWlkZGxlOyB0ZXh0LWFuY2hvcjogbWlkZGxlOyBmb250LXNpemU6IDEycHg7IiB0cmFuc2Zvcm09InRyYW5zbGF0ZSg4Mi40NzI1NzIzMjY2NjAxNiwxMikiIHk9IjAiIHg9IjAiIGlkPSJ0ZXh0LWVudGl0eS1QQVlNRU5ULTk3OTdlZWU4LTdhMDEtNWVmZS1hYWE1LWZiOWE0ZjE0OTU3YyIgY2xhc3M9ImVyIGVudGl0eUxhYmVsIj5QQVlNRU5UPC90ZXh0PjxyZWN0IGhlaWdodD0iMjIiIHdpZHRoPSI1Mi4wNjg0OTY3MDQxMDE1NiIgeT0iMjQiIHg9IjAiIGNsYXNzPSJlciBhdHRyaWJ1dGVCb3hPZGQiPjwvcmVjdD48dGV4dCBzdHlsZT0iZG9taW5hbnQtYmFzZWxpbmU6IG1pZGRsZTsgZm9udC1zaXplOiAxMC4ycHg7IiB0cmFuc2Zvcm09InRyYW5zbGF0ZSg1LDM1KSIgeT0iMCIgeD0iMCIgaWQ9InRleHQtZW50aXR5LVBBWU1FTlQtOTc5N2VlZTgtN2EwMS01ZWZlLWFhYTUtZmI5YTRmMTQ5NTdjLWF0dHItMS10eXBlIiBjbGFzcz0iZXIgZW50aXR5TGFiZWwiPmludDwvdGV4dD48cmVjdCBoZWlnaHQ9IjIyIiB3aWR0aD0iOTAuMTg4OTY0ODQzNzUiIHk9IjI0IiB4PSI1Mi4wNjg0OTY3MDQxMDE1NiIgY2xhc3M9ImVyIGF0dHJpYnV0ZUJveE9kZCI+PC9yZWN0Pjx0ZXh0IHN0eWxlPSJkb21pbmFudC1iYXNlbGluZTogbWlkZGxlOyBmb250LXNpemU6IDEwLjJweDsiIHRyYW5zZm9ybT0idHJhbnNsYXRlKDU3LjA2ODQ5NjcwNDEwMTU2LDM1KSIgeT0iMCIgeD0iMCIgaWQ9InRleHQtZW50aXR5LVBBWU1FTlQtOTc5N2VlZTgtN2EwMS01ZWZlLWFhYTUtZmI5YTRmMTQ5NTdjLWF0dHItMS1uYW1lIiBjbGFzcz0iZXIgZW50aXR5TGFiZWwiPnBheW1lbnRfaWQ8L3RleHQ+PHJlY3QgaGVpZ2h0PSIyMiIgd2lkdGg9IjIyLjY4NzY4MzEwNTQ2ODc1IiB5PSIyNCIgeD0iMTQyLjI1NzQ2MTU0Nzg1MTU2IiBjbGFzcz0iZXIgYXR0cmlidXRlQm94T2RkIj48L3JlY3Q+PHRleHQgc3R5bGU9ImRvbWluYW50LWJhc2VsaW5lOiBtaWRkbGU7IGZvbnQtc2l6ZTogMTAuMnB4OyIgdHJhbnNmb3JtPSJ0cmFuc2xhdGUoMTQ3LjI1NzQ2MTU0Nzg1MTU2LDM1KSIgeT0iMCIgeD0iMCIgaWQ9InRleHQtZW50aXR5LVBBWU1FTlQtOTc5N2VlZTgtN2EwMS01ZWZlLWFhYTUtZmI5YTRmMTQ5NTdjLWF0dHItMS1rZXkiIGNsYXNzPSJlciBlbnRpdHlMYWJlbCI+UEs8L3RleHQ+PHJlY3QgaGVpZ2h0PSIyMiIgd2lkdGg9IjUyLjA2ODQ5NjcwNDEwMTU2IiB5PSI0NiIgeD0iMCIgY2xhc3M9ImVyIGF0dHJpYnV0ZUJveEV2ZW4iPjwvcmVjdD48dGV4dCBzdHlsZT0iZG9taW5hbnQtYmFzZWxpbmU6IG1pZGRsZTsgZm9udC1zaXplOiAxMC4ycHg7IiB0cmFuc2Zvcm09InRyYW5zbGF0ZSg1LDU3KSIgeT0iMCIgeD0iMCIgaWQ9InRleHQtZW50aXR5LVBBWU1FTlQtOTc5N2VlZTgtN2EwMS01ZWZlLWFhYTUtZmI5YTRmMTQ5NTdjLWF0dHItMi10eXBlIiBjbGFzcz0iZXIgZW50aXR5TGFiZWwiPmludDwvdGV4dD48cmVjdCBoZWlnaHQ9IjIyIiB3aWR0aD0iOTAuMTg4OTY0ODQzNzUiIHk9IjQ2IiB4PSI1Mi4wNjg0OTY3MDQxMDE1NiIgY2xhc3M9ImVyIGF0dHJpYnV0ZUJveEV2ZW4iPjwvcmVjdD48dGV4dCBzdHlsZT0iZG9taW5hbnQtYmFzZWxpbmU6IG1pZGRsZTsgZm9udC1zaXplOiAxMC4ycHg7IiB0cmFuc2Zvcm09InRyYW5zbGF0ZSg1Ny4wNjg0OTY3MDQxMDE1Niw1NykiIHk9IjAiIHg9IjAiIGlkPSJ0ZXh0LWVudGl0eS1QQVlNRU5ULTk3OTdlZWU4LTdhMDEtNWVmZS1hYWE1LWZiOWE0ZjE0OTU3Yy1hdHRyLTItbmFtZSIgY2xhc3M9ImVyIGVudGl0eUxhYmVsIj5ib29raW5nX2lkPC90ZXh0PjxyZWN0IGhlaWdodD0iMjIiIHdpZHRoPSIyMi42ODc2ODMxMDU0Njg3NSIgeT0iNDYiIHg9IjE0Mi4yNTc0NjE1NDc4NTE1NiIgY2xhc3M9ImVyIGF0dHJpYnV0ZUJveEV2ZW4iPjwvcmVjdD48dGV4dCBzdHlsZT0iZG9taW5hbnQtYmFzZWxpbmU6IG1pZGRsZTsgZm9udC1zaXplOiAxMC4ycHg7IiB0cmFuc2Zvcm09InRyYW5zbGF0ZSgxNDcuMjU3NDYxNTQ3ODUxNTYsNTcpIiB5PSIwIiB4PSIwIiBpZD0idGV4dC1lbnRpdHktUEFZTUVOVC05Nzk3ZWVlOC03YTAxLTVlZmUtYWFhNS1mYjlhNGYxNDk1N2MtYXR0ci0yLWtleSIgY2xhc3M9ImVyIGVudGl0eUxhYmVsIj5GSzwvdGV4dD48cmVjdCBoZWlnaHQ9IjIyIiB3aWR0aD0iNTIuMDY4NDk2NzA0MTAxNTYiIHk9IjY4IiB4PSIwIiBjbGFzcz0iZXIgYXR0cmlidXRlQm94T2RkIj48L3JlY3Q+PHRleHQgc3R5bGU9ImRvbWluYW50LWJhc2VsaW5lOiBtaWRkbGU7IGZvbnQtc2l6ZTogMTAuMnB4OyIgdHJhbnNmb3JtPSJ0cmFuc2xhdGUoNSw3OSkiIHk9IjAiIHg9IjAiIGlkPSJ0ZXh0LWVudGl0eS1QQVlNRU5ULTk3OTdlZWU4LTdhMDEtNWVmZS1hYWE1LWZiOWE0ZjE0OTU3Yy1hdHRyLTMtdHlwZSIgY2xhc3M9ImVyIGVudGl0eUxhYmVsIj5mbG9hdDwvdGV4dD48cmVjdCBoZWlnaHQ9IjIyIiB3aWR0aD0iOTAuMTg4OTY0ODQzNzUiIHk9IjY4IiB4PSI1Mi4wNjg0OTY3MDQxMDE1NiIgY2xhc3M9ImVyIGF0dHJpYnV0ZUJveE9kZCI+PC9yZWN0Pjx0ZXh0IHN0eWxlPSJkb21pbmFudC1iYXNlbGluZTogbWlkZGxlOyBmb250LXNpemU6IDEwLjJweDsiIHRyYW5zZm9ybT0idHJhbnNsYXRlKDU3LjA2ODQ5NjcwNDEwMTU2LDc5KSIgeT0iMCIgeD0iMCIgaWQ9InRleHQtZW50aXR5LVBBWU1FTlQtOTc5N2VlZTgtN2EwMS01ZWZlLWFhYTUtZmI5YTRmMTQ5NTdjLWF0dHItMy1uYW1lIiBjbGFzcz0iZXIgZW50aXR5TGFiZWwiPmFtb3VudDwvdGV4dD48cmVjdCBoZWlnaHQ9IjIyIiB3aWR0aD0iMjIuNjg3NjgzMTA1NDY4NzUiIHk9IjY4IiB4PSIxNDIuMjU3NDYxNTQ3ODUxNTYiIGNsYXNzPSJlciBhdHRyaWJ1dGVCb3hPZGQiPjwvcmVjdD48dGV4dCBzdHlsZT0iZG9taW5hbnQtYmFzZWxpbmU6IG1pZGRsZTsgZm9udC1zaXplOiAxMC4ycHg7IiB0cmFuc2Zvcm09InRyYW5zbGF0ZSgxNDcuMjU3NDYxNTQ3ODUxNTYsNzkpIiB5PSIwIiB4PSIwIiBpZD0idGV4dC1lbnRpdHktUEFZTUVOVC05Nzk3ZWVlOC03YTAxLTVlZmUtYWFhNS1mYjlhNGYxNDk1N2MtYXR0ci0zLWtleSIgY2xhc3M9ImVyIGVudGl0eUxhYmVsIj48L3RleHQ+PHJlY3QgaGVpZ2h0PSIyMiIgd2lkdGg9IjUyLjA2ODQ5NjcwNDEwMTU2IiB5PSI5MCIgeD0iMCIgY2xhc3M9ImVyIGF0dHJpYnV0ZUJveEV2ZW4iPjwvcmVjdD48dGV4dCBzdHlsZT0iZG9taW5hbnQtYmFzZWxpbmU6IG1pZGRsZTsgZm9udC1zaXplOiAxMC4ycHg7IiB0cmFuc2Zvcm09InRyYW5zbGF0ZSg1LDEwMSkiIHk9IjAiIHg9IjAiIGlkPSJ0ZXh0LWVudGl0eS1QQVlNRU5ULTk3OTdlZWU4LTdhMDEtNWVmZS1hYWE1LWZiOWE0ZjE0OTU3Yy1hdHRyLTQtdHlwZSIgY2xhc3M9ImVyIGVudGl0eUxhYmVsIj5zdHJpbmc8L3RleHQ+PHJlY3QgaGVpZ2h0PSIyMiIgd2lkdGg9IjkwLjE4ODk2NDg0Mzc1IiB5PSI5MCIgeD0iNTIuMDY4NDk2NzA0MTAxNTYiIGNsYXNzPSJlciBhdHRyaWJ1dGVCb3hFdmVuIj48L3JlY3Q+PHRleHQgc3R5bGU9ImRvbWluYW50LWJhc2VsaW5lOiBtaWRkbGU7IGZvbnQtc2l6ZTogMTAuMnB4OyIgdHJhbnNmb3JtPSJ0cmFuc2xhdGUoNTcuMDY4NDk2NzA0MTAxNTYsMTAxKSIgeT0iMCIgeD0iMCIgaWQ9InRleHQtZW50aXR5LVBBWU1FTlQtOTc5N2VlZTgtN2EwMS01ZWZlLWFhYTUtZmI5YTRmMTQ5NTdjLWF0dHItNC1uYW1lIiBjbGFzcz0iZXIgZW50aXR5TGFiZWwiPmN1cnJlbmN5PC90ZXh0PjxyZWN0IGhlaWdodD0iMjIiIHdpZHRoPSIyMi42ODc2ODMxMDU0Njg3NSIgeT0iOTAiIHg9IjE0Mi4yNTc0NjE1NDc4NTE1NiIgY2xhc3M9ImVyIGF0dHJpYnV0ZUJveEV2ZW4iPjwvcmVjdD48dGV4dCBzdHlsZT0iZG9taW5hbnQtYmFzZWxpbmU6IG1pZGRsZTsgZm9udC1zaXplOiAxMC4ycHg7IiB0cmFuc2Zvcm09InRyYW5zbGF0ZSgxNDcuMjU3NDYxNTQ3ODUxNTYsMTAxKSIgeT0iMCIgeD0iMCIgaWQ9InRleHQtZW50aXR5LVBBWU1FTlQtOTc5N2VlZTgtN2EwMS01ZWZlLWFhYTUtZmI5YTRmMTQ5NTdjLWF0dHItNC1rZXkiIGNsYXNzPSJlciBlbnRpdHlMYWJlbCI+PC90ZXh0PjxyZWN0IGhlaWdodD0iMjIiIHdpZHRoPSI1Mi4wNjg0OTY3MDQxMDE1NiIgeT0iMTEyIiB4PSIwIiBjbGFzcz0iZXIgYXR0cmlidXRlQm94T2RkIj48L3JlY3Q+PHRleHQgc3R5bGU9ImRvbWluYW50LWJhc2VsaW5lOiBtaWRkbGU7IGZvbnQtc2l6ZTogMTAuMnB4OyIgdHJhbnNmb3JtPSJ0cmFuc2xhdGUoNSwxMjMpIiB5PSIwIiB4PSIwIiBpZD0idGV4dC1lbnRpdHktUEFZTUVOVC05Nzk3ZWVlOC03YTAxLTVlZmUtYWFhNS1mYjlhNGYxNDk1N2MtYXR0ci01LXR5cGUiIGNsYXNzPSJlciBlbnRpdHlMYWJlbCI+c3RyaW5nPC90ZXh0PjxyZWN0IGhlaWdodD0iMjIiIHdpZHRoPSI5MC4xODg5NjQ4NDM3NSIgeT0iMTEyIiB4PSI1Mi4wNjg0OTY3MDQxMDE1NiIgY2xhc3M9ImVyIGF0dHJpYnV0ZUJveE9kZCI+PC9yZWN0Pjx0ZXh0IHN0eWxlPSJkb21pbmFudC1iYXNlbGluZTogbWlkZGxlOyBmb250LXNpemU6IDEwLjJweDsiIHRyYW5zZm9ybT0idHJhbnNsYXRlKDU3LjA2ODQ5NjcwNDEwMTU2LDEyMykiIHk9IjAiIHg9IjAiIGlkPSJ0ZXh0LWVudGl0eS1QQVlNRU5ULTk3OTdlZWU4LTdhMDEtNWVmZS1hYWE1LWZiOWE0ZjE0OTU3Yy1hdHRyLTUtbmFtZSIgY2xhc3M9ImVyIGVudGl0eUxhYmVsIj5wYXltZW50X21ldGhvZDwvdGV4dD48cmVjdCBoZWlnaHQ9IjIyIiB3aWR0aD0iMjIuNjg3NjgzMTA1NDY4NzUiIHk9IjExMiIgeD0iMTQyLjI1NzQ2MTU0Nzg1MTU2IiBjbGFzcz0iZXIgYXR0cmlidXRlQm94T2RkIj48L3JlY3Q+PHRleHQgc3R5bGU9ImRvbWluYW50LWJhc2VsaW5lOiBtaWRkbGU7IGZvbnQtc2l6ZTogMTAuMnB4OyIgdHJhbnNmb3JtPSJ0cmFuc2xhdGUoMTQ3LjI1NzQ2MTU0Nzg1MTU2LDEyMykiIHk9IjAiIHg9IjAiIGlkPSJ0ZXh0LWVudGl0eS1QQVlNRU5ULTk3OTdlZWU4LTdhMDEtNWVmZS1hYWE1LWZiOWE0ZjE0OTU3Yy1hdHRyLTUta2V5IiBjbGFzcz0iZXIgZW50aXR5TGFiZWwiPjwvdGV4dD48cmVjdCBoZWlnaHQ9IjIyIiB3aWR0aD0iNTIuMDY4NDk2NzA0MTAxNTYiIHk9IjEzNCIgeD0iMCIgY2xhc3M9ImVyIGF0dHJpYnV0ZUJveEV2ZW4iPjwvcmVjdD48dGV4dCBzdHlsZT0iZG9taW5hbnQtYmFzZWxpbmU6IG1pZGRsZTsgZm9udC1zaXplOiAxMC4ycHg7IiB0cmFuc2Zvcm09InRyYW5zbGF0ZSg1LDE0NSkiIHk9IjAiIHg9IjAiIGlkPSJ0ZXh0LWVudGl0eS1QQVlNRU5ULTk3OTdlZWU4LTdhMDEtNWVmZS1hYWE1LWZiOWE0ZjE0OTU3Yy1hdHRyLTYtdHlwZSIgY2xhc3M9ImVyIGVudGl0eUxhYmVsIj5zdHJpbmc8L3RleHQ+PHJlY3QgaGVpZ2h0PSIyMiIgd2lkdGg9IjkwLjE4ODk2NDg0Mzc1IiB5PSIxMzQiIHg9IjUyLjA2ODQ5NjcwNDEwMTU2IiBjbGFzcz0iZXIgYXR0cmlidXRlQm94RXZlbiI+PC9yZWN0Pjx0ZXh0IHN0eWxlPSJkb21pbmFudC1iYXNlbGluZTogbWlkZGxlOyBmb250LXNpemU6IDEwLjJweDsiIHRyYW5zZm9ybT0idHJhbnNsYXRlKDU3LjA2ODQ5NjcwNDEwMTU2LDE0NSkiIHk9IjAiIHg9IjAiIGlkPSJ0ZXh0LWVudGl0eS1QQVlNRU5ULTk3OTdlZWU4LTdhMDEtNWVmZS1hYWE1LWZiOWE0ZjE0OTU3Yy1hdHRyLTYtbmFtZSIgY2xhc3M9ImVyIGVudGl0eUxhYmVsIj5zdGF0dXM8L3RleHQ+PHJlY3QgaGVpZ2h0PSIyMiIgd2lkdGg9IjIyLjY4NzY4MzEwNTQ2ODc1IiB5PSIxMzQiIHg9IjE0Mi4yNTc0NjE1NDc4NTE1NiIgY2xhc3M9ImVyIGF0dHJpYnV0ZUJveEV2ZW4iPjwvcmVjdD48dGV4dCBzdHlsZT0iZG9taW5hbnQtYmFzZWxpbmU6IG1pZGRsZTsgZm9udC1zaXplOiAxMC4ycHg7IiB0cmFuc2Zvcm09InRyYW5zbGF0ZSgxNDcuMjU3NDYxNTQ3ODUxNTYsMTQ1KSIgeT0iMCIgeD0iMCIgaWQ9InRleHQtZW50aXR5LVBBWU1FTlQtOTc5N2VlZTgtN2EwMS01ZWZlLWFhYTUtZmI5YTRmMTQ5NTdjLWF0dHItNi1rZXkiIGNsYXNzPSJlciBlbnRpdHlMYWJlbCI+PC90ZXh0PjxyZWN0IGhlaWdodD0iMjIiIHdpZHRoPSI1Mi4wNjg0OTY3MDQxMDE1NiIgeT0iMTU2IiB4PSIwIiBjbGFzcz0iZXIgYXR0cmlidXRlQm94T2RkIj48L3JlY3Q+PHRleHQgc3R5bGU9ImRvbWluYW50LWJhc2VsaW5lOiBtaWRkbGU7IGZvbnQtc2l6ZTogMTAuMnB4OyIgdHJhbnNmb3JtPSJ0cmFuc2xhdGUoNSwxNjcpIiB5PSIwIiB4PSIwIiBpZD0idGV4dC1lbnRpdHktUEFZTUVOVC05Nzk3ZWVlOC03YTAxLTVlZmUtYWFhNS1mYjlhNGYxNDk1N2MtYXR0ci03LXR5cGUiIGNsYXNzPSJlciBlbnRpdHlMYWJlbCI+ZGF0ZXRpbWU8L3RleHQ+PHJlY3QgaGVpZ2h0PSIyMiIgd2lkdGg9IjkwLjE4ODk2NDg0Mzc1IiB5PSIxNTYiIHg9IjUyLjA2ODQ5NjcwNDEwMTU2IiBjbGFzcz0iZXIgYXR0cmlidXRlQm94T2RkIj48L3JlY3Q+PHRleHQgc3R5bGU9ImRvbWluYW50LWJhc2VsaW5lOiBtaWRkbGU7IGZvbnQtc2l6ZTogMTAuMnB4OyIgdHJhbnNmb3JtPSJ0cmFuc2xhdGUoNTcuMDY4NDk2NzA0MTAxNTYsMTY3KSIgeT0iMCIgeD0iMCIgaWQ9InRleHQtZW50aXR5LVBBWU1FTlQtOTc5N2VlZTgtN2EwMS01ZWZlLWFhYTUtZmI5YTRmMTQ5NTdjLWF0dHItNy1uYW1lIiBjbGFzcz0iZXIgZW50aXR5TGFiZWwiPnRyYW5zYWN0aW9uX2RhdGU8L3RleHQ+PHJlY3QgaGVpZ2h0PSIyMiIgd2lkdGg9IjIyLjY4NzY4MzEwNTQ2ODc1IiB5PSIxNTYiIHg9IjE0Mi4yNTc0NjE1NDc4NTE1NiIgY2xhc3M9ImVyIGF0dHJpYnV0ZUJveE9kZCI+PC9yZWN0Pjx0ZXh0IHN0eWxlPSJkb21pbmFudC1iYXNlbGluZTogbWlkZGxlOyBmb250LXNpemU6IDEwLjJweDsiIHRyYW5zZm9ybT0idHJhbnNsYXRlKDE0Ny4yNTc0NjE1NDc4NTE1NiwxNjcpIiB5PSIwIiB4PSIwIiBpZD0idGV4dC1lbnRpdHktUEFZTUVOVC05Nzk3ZWVlOC03YTAxLTVlZmUtYWFhNS1mYjlhNGYxNDk1N2MtYXR0ci03LWtleSIgY2xhc3M9ImVyIGVudGl0eUxhYmVsIj48L3RleHQ+PHJlY3QgaGVpZ2h0PSIyMiIgd2lkdGg9IjUyLjA2ODQ5NjcwNDEwMTU2IiB5PSIxNzgiIHg9IjAiIGNsYXNzPSJlciBhdHRyaWJ1dGVCb3hFdmVuIj48L3JlY3Q+PHRleHQgc3R5bGU9ImRvbWluYW50LWJhc2VsaW5lOiBtaWRkbGU7IGZvbnQtc2l6ZTogMTAuMnB4OyIgdHJhbnNmb3JtPSJ0cmFuc2xhdGUoNSwxODkpIiB5PSIwIiB4PSIwIiBpZD0idGV4dC1lbnRpdHktUEFZTUVOVC05Nzk3ZWVlOC03YTAxLTVlZmUtYWFhNS1mYjlhNGYxNDk1N2MtYXR0ci04LXR5cGUiIGNsYXNzPSJlciBlbnRpdHlMYWJlbCI+ZGF0ZXRpbWU8L3RleHQ+PHJlY3QgaGVpZ2h0PSIyMiIgd2lkdGg9IjkwLjE4ODk2NDg0Mzc1IiB5PSIxNzgiIHg9IjUyLjA2ODQ5NjcwNDEwMTU2IiBjbGFzcz0iZXIgYXR0cmlidXRlQm94RXZlbiI+PC9yZWN0Pjx0ZXh0IHN0eWxlPSJkb21pbmFudC1iYXNlbGluZTogbWlkZGxlOyBmb250LXNpemU6IDEwLjJweDsiIHRyYW5zZm9ybT0idHJhbnNsYXRlKDU3LjA2ODQ5NjcwNDEwMTU2LDE4OSkiIHk9IjAiIHg9IjAiIGlkPSJ0ZXh0LWVudGl0eS1QQVlNRU5ULTk3OTdlZWU4LTdhMDEtNWVmZS1hYWE1LWZiOWE0ZjE0OTU3Yy1hdHRyLTgtbmFtZSIgY2xhc3M9ImVyIGVudGl0eUxhYmVsIj5jcmVhdGVkX2F0PC90ZXh0PjxyZWN0IGhlaWdodD0iMjIiIHdpZHRoPSIyMi42ODc2ODMxMDU0Njg3NSIgeT0iMTc4IiB4PSIxNDIuMjU3NDYxNTQ3ODUxNTYiIGNsYXNzPSJlciBhdHRyaWJ1dGVCb3hFdmVuIj48L3JlY3Q+PHRleHQgc3R5bGU9ImRvbWluYW50LWJhc2VsaW5lOiBtaWRkbGU7IGZvbnQtc2l6ZTogMTAuMnB4OyIgdHJhbnNmb3JtPSJ0cmFuc2xhdGUoMTQ3LjI1NzQ2MTU0Nzg1MTU2LDE4OSkiIHk9IjAiIHg9IjAiIGlkPSJ0ZXh0LWVudGl0eS1QQVlNRU5ULTk3OTdlZWU4LTdhMDEtNWVmZS1hYWE1LWZiOWE0ZjE0OTU3Yy1hdHRyLTgta2V5IiBjbGFzcz0iZXIgZW50aXR5TGFiZWwiPjwvdGV4dD48cmVjdCBoZWlnaHQ9IjIyIiB3aWR0aD0iNTIuMDY4NDk2NzA0MTAxNTYiIHk9IjIwMCIgeD0iMCIgY2xhc3M9ImVyIGF0dHJpYnV0ZUJveE9kZCI+PC9yZWN0Pjx0ZXh0IHN0eWxlPSJkb21pbmFudC1iYXNlbGluZTogbWlkZGxlOyBmb250LXNpemU6IDEwLjJweDsiIHRyYW5zZm9ybT0idHJhbnNsYXRlKDUsMjExKSIgeT0iMCIgeD0iMCIgaWQ9InRleHQtZW50aXR5LVBBWU1FTlQtOTc5N2VlZTgtN2EwMS01ZWZlLWFhYTUtZmI5YTRmMTQ5NTdjLWF0dHItOS10eXBlIiBjbGFzcz0iZXIgZW50aXR5TGFiZWwiPmRhdGV0aW1lPC90ZXh0PjxyZWN0IGhlaWdodD0iMjIiIHdpZHRoPSI5MC4xODg5NjQ4NDM3NSIgeT0iMjAwIiB4PSI1Mi4wNjg0OTY3MDQxMDE1NiIgY2xhc3M9ImVyIGF0dHJpYnV0ZUJveE9kZCI+PC9yZWN0Pjx0ZXh0IHN0eWxlPSJkb21pbmFudC1iYXNlbGluZTogbWlkZGxlOyBmb250LXNpemU6IDEwLjJweDsiIHRyYW5zZm9ybT0idHJhbnNsYXRlKDU3LjA2ODQ5NjcwNDEwMTU2LDIxMSkiIHk9IjAiIHg9IjAiIGlkPSJ0ZXh0LWVudGl0eS1QQVlNRU5ULTk3OTdlZWU4LTdhMDEtNWVmZS1hYWE1LWZiOWE0ZjE0OTU3Yy1hdHRyLTktbmFtZSIgY2xhc3M9ImVyIGVudGl0eUxhYmVsIj51cGRhdGVkX2F0PC90ZXh0PjxyZWN0IGhlaWdodD0iMjIiIHdpZHRoPSIyMi42ODc2ODMxMDU0Njg3NSIgeT0iMjAwIiB4PSIxNDIuMjU3NDYxNTQ3ODUxNTYiIGNsYXNzPSJlciBhdHRyaWJ1dGVCb3hPZGQiPjwvcmVjdD48dGV4dCBzdHlsZT0iZG9taW5hbnQtYmFzZWxpbmU6IG1pZGRsZTsgZm9udC1zaXplOiAxMC4ycHg7IiB0cmFuc2Zvcm09InRyYW5zbGF0ZSgxNDcuMjU3NDYxNTQ3ODUxNTYsMjExKSIgeT0iMCIgeD0iMCIgaWQ9InRleHQtZW50aXR5LVBBWU1FTlQtOTc5N2VlZTgtN2EwMS01ZWZlLWFhYTUtZmI5YTRmMTQ5NTdjLWF0dHItOS1rZXkiIGNsYXNzPSJlciBlbnRpdHlMYWJlbCI+PC90ZXh0PjwvZz48ZyB0cmFuc2Zvcm09InRyYW5zbGF0ZSg2NzQuNzIzMjEzMTk1ODAwOCwxMjE3ICkiIGlkPSJlbnRpdHktUkVWSUVXLTM5ZjFlOGQwLTllM2ItNWMwNC1hNjY1LTJkZjc4NWYxOWVkNyI+PHJlY3QgaGVpZ2h0PSIyMDAiIHdpZHRoPSIxNDAuNzI1MTI4MTczODI4MTIiIHk9IjAiIHg9IjAiIGNsYXNzPSJlciBlbnRpdHlCb3giPjwvcmVjdD48dGV4dCBzdHlsZT0iZG9taW5hbnQtYmFzZWxpbmU6IG1pZGRsZTsgdGV4dC1hbmNob3I6IG1pZGRsZTsgZm9udC1zaXplOiAxMnB4OyIgdHJhbnNmb3JtPSJ0cmFuc2xhdGUoNzAuMzYyNTY0MDg2OTE0MDYsMTIpIiB5PSIwIiB4PSIwIiBpZD0idGV4dC1lbnRpdHktUkVWSUVXLTM5ZjFlOGQwLTllM2ItNWMwNC1hNjY1LTJkZjc4NWYxOWVkNyIgY2xhc3M9ImVyIGVudGl0eUxhYmVsIj5SRVZJRVc8L3RleHQ+PHJlY3QgaGVpZ2h0PSIyMiIgd2lkdGg9IjUyLjA2ODQ5NjcwNDEwMTU2IiB5PSIyNCIgeD0iMCIgY2xhc3M9ImVyIGF0dHJpYnV0ZUJveE9kZCI+PC9yZWN0Pjx0ZXh0IHN0eWxlPSJkb21pbmFudC1iYXNlbGluZTogbWlkZGxlOyBmb250LXNpemU6IDEwLjJweDsiIHRyYW5zZm9ybT0idHJhbnNsYXRlKDUsMzUpIiB5PSIwIiB4PSIwIiBpZD0idGV4dC1lbnRpdHktUkVWSUVXLTM5ZjFlOGQwLTllM2ItNWMwNC1hNjY1LTJkZjc4NWYxOWVkNy1hdHRyLTEtdHlwZSIgY2xhc3M9ImVyIGVudGl0eUxhYmVsIj5pbnQ8L3RleHQ+PHJlY3QgaGVpZ2h0PSIyMiIgd2lkdGg9IjY1Ljk2ODk0ODM2NDI1NzgxIiB5PSIyNCIgeD0iNTIuMDY4NDk2NzA0MTAxNTYiIGNsYXNzPSJlciBhdHRyaWJ1dGVCb3hPZGQiPjwvcmVjdD48dGV4dCBzdHlsZT0iZG9taW5hbnQtYmFzZWxpbmU6IG1pZGRsZTsgZm9udC1zaXplOiAxMC4ycHg7IiB0cmFuc2Zvcm09InRyYW5zbGF0ZSg1Ny4wNjg0OTY3MDQxMDE1NiwzNSkiIHk9IjAiIHg9IjAiIGlkPSJ0ZXh0LWVudGl0eS1SRVZJRVctMzlmMWU4ZDAtOWUzYi01YzA0LWE2NjUtMmRmNzg1ZjE5ZWQ3LWF0dHItMS1uYW1lIiBjbGFzcz0iZXIgZW50aXR5TGFiZWwiPnJldmlld19pZDwvdGV4dD48cmVjdCBoZWlnaHQ9IjIyIiB3aWR0aD0iMjIuNjg3NjgzMTA1NDY4NzUiIHk9IjI0IiB4PSIxMTguMDM3NDQ1MDY4MzU5MzgiIGNsYXNzPSJlciBhdHRyaWJ1dGVCb3hPZGQiPjwvcmVjdD48dGV4dCBzdHlsZT0iZG9taW5hbnQtYmFzZWxpbmU6IG1pZGRsZTsgZm9udC1zaXplOiAxMC4ycHg7IiB0cmFuc2Zvcm09InRyYW5zbGF0ZSgxMjMuMDM3NDQ1MDY4MzU5MzgsMzUpIiB5PSIwIiB4PSIwIiBpZD0idGV4dC1lbnRpdHktUkVWSUVXLTM5ZjFlOGQwLTllM2ItNWMwNC1hNjY1LTJkZjc4NWYxOWVkNy1hdHRyLTEta2V5IiBjbGFzcz0iZXIgZW50aXR5TGFiZWwiPlBLPC90ZXh0PjxyZWN0IGhlaWdodD0iMjIiIHdpZHRoPSI1Mi4wNjg0OTY3MDQxMDE1NiIgeT0iNDYiIHg9IjAiIGNsYXNzPSJlciBhdHRyaWJ1dGVCb3hFdmVuIj48L3JlY3Q+PHRleHQgc3R5bGU9ImRvbWluYW50LWJhc2VsaW5lOiBtaWRkbGU7IGZvbnQtc2l6ZTogMTAuMnB4OyIgdHJhbnNmb3JtPSJ0cmFuc2xhdGUoNSw1NykiIHk9IjAiIHg9IjAiIGlkPSJ0ZXh0LWVudGl0eS1SRVZJRVctMzlmMWU4ZDAtOWUzYi01YzA0LWE2NjUtMmRmNzg1ZjE5ZWQ3LWF0dHItMi10eXBlIiBjbGFzcz0iZXIgZW50aXR5TGFiZWwiPmludDwvdGV4dD48cmVjdCBoZWlnaHQ9IjIyIiB3aWR0aD0iNjUuOTY4OTQ4MzY0MjU3ODEiIHk9IjQ2IiB4PSI1Mi4wNjg0OTY3MDQxMDE1NiIgY2xhc3M9ImVyIGF0dHJpYnV0ZUJveEV2ZW4iPjwvcmVjdD48dGV4dCBzdHlsZT0iZG9taW5hbnQtYmFzZWxpbmU6IG1pZGRsZTsgZm9udC1zaXplOiAxMC4ycHg7IiB0cmFuc2Zvcm09InRyYW5zbGF0ZSg1Ny4wNjg0OTY3MDQxMDE1Niw1NykiIHk9IjAiIHg9IjAiIGlkPSJ0ZXh0LWVudGl0eS1SRVZJRVctMzlmMWU4ZDAtOWUzYi01YzA0LWE2NjUtMmRmNzg1ZjE5ZWQ3LWF0dHItMi1uYW1lIiBjbGFzcz0iZXIgZW50aXR5TGFiZWwiPnJldmlld2VyX2lkPC90ZXh0PjxyZWN0IGhlaWdodD0iMjIiIHdpZHRoPSIyMi42ODc2ODMxMDU0Njg3NSIgeT0iNDYiIHg9IjExOC4wMzc0NDUwNjgzNTkzOCIgY2xhc3M9ImVyIGF0dHJpYnV0ZUJveEV2ZW4iPjwvcmVjdD48dGV4dCBzdHlsZT0iZG9taW5hbnQtYmFzZWxpbmU6IG1pZGRsZTsgZm9udC1zaXplOiAxMC4ycHg7IiB0cmFuc2Zvcm09InRyYW5zbGF0ZSgxMjMuMDM3NDQ1MDY4MzU5MzgsNTcpIiB5PSIwIiB4PSIwIiBpZD0idGV4dC1lbnRpdHktUkVWSUVXLTM5ZjFlOGQwLTllM2ItNWMwNC1hNjY1LTJkZjc4NWYxOWVkNy1hdHRyLTIta2V5IiBjbGFzcz0iZXIgZW50aXR5TGFiZWwiPkZLPC90ZXh0PjxyZWN0IGhlaWdodD0iMjIiIHdpZHRoPSI1Mi4wNjg0OTY3MDQxMDE1NiIgeT0iNjgiIHg9IjAiIGNsYXNzPSJlciBhdHRyaWJ1dGVCb3hPZGQiPjwvcmVjdD48dGV4dCBzdHlsZT0iZG9taW5hbnQtYmFzZWxpbmU6IG1pZGRsZTsgZm9udC1zaXplOiAxMC4ycHg7IiB0cmFuc2Zvcm09InRyYW5zbGF0ZSg1LDc5KSIgeT0iMCIgeD0iMCIgaWQ9InRleHQtZW50aXR5LVJFVklFVy0zOWYxZThkMC05ZTNiLTVjMDQtYTY2NS0yZGY3ODVmMTllZDctYXR0ci0zLXR5cGUiIGNsYXNzPSJlciBlbnRpdHlMYWJlbCI+aW50PC90ZXh0PjxyZWN0IGhlaWdodD0iMjIiIHdpZHRoPSI2NS45Njg5NDgzNjQyNTc4MSIgeT0iNjgiIHg9IjUyLjA2ODQ5NjcwNDEwMTU2IiBjbGFzcz0iZXIgYXR0cmlidXRlQm94T2RkIj48L3JlY3Q+PHRleHQgc3R5bGU9ImRvbWluYW50LWJhc2VsaW5lOiBtaWRkbGU7IGZvbnQtc2l6ZTogMTAuMnB4OyIgdHJhbnNmb3JtPSJ0cmFuc2xhdGUoNTcuMDY4NDk2NzA0MTAxNTYsNzkpIiB5PSIwIiB4PSIwIiBpZD0idGV4dC1lbnRpdHktUkVWSUVXLTM5ZjFlOGQwLTllM2ItNWMwNC1hNjY1LTJkZjc4NWYxOWVkNy1hdHRyLTMtbmFtZSIgY2xhc3M9ImVyIGVudGl0eUxhYmVsIj5yZXZpZXdlZV9pZDwvdGV4dD48cmVjdCBoZWlnaHQ9IjIyIiB3aWR0aD0iMjIuNjg3NjgzMTA1NDY4NzUiIHk9IjY4IiB4PSIxMTguMDM3NDQ1MDY4MzU5MzgiIGNsYXNzPSJlciBhdHRyaWJ1dGVCb3hPZGQiPjwvcmVjdD48dGV4dCBzdHlsZT0iZG9taW5hbnQtYmFzZWxpbmU6IG1pZGRsZTsgZm9udC1zaXplOiAxMC4ycHg7IiB0cmFuc2Zvcm09InRyYW5zbGF0ZSgxMjMuMDM3NDQ1MDY4MzU5MzgsNzkpIiB5PSIwIiB4PSIwIiBpZD0idGV4dC1lbnRpdHktUkVWSUVXLTM5ZjFlOGQwLTllM2ItNWMwNC1hNjY1LTJkZjc4NWYxOWVkNy1hdHRyLTMta2V5IiBjbGFzcz0iZXIgZW50aXR5TGFiZWwiPkZLPC90ZXh0PjxyZWN0IGhlaWdodD0iMjIiIHdpZHRoPSI1Mi4wNjg0OTY3MDQxMDE1NiIgeT0iOTAiIHg9IjAiIGNsYXNzPSJlciBhdHRyaWJ1dGVCb3hFdmVuIj48L3JlY3Q+PHRleHQgc3R5bGU9ImRvbWluYW50LWJhc2VsaW5lOiBtaWRkbGU7IGZvbnQtc2l6ZTogMTAuMnB4OyIgdHJhbnNmb3JtPSJ0cmFuc2xhdGUoNSwxMDEpIiB5PSIwIiB4PSIwIiBpZD0idGV4dC1lbnRpdHktUkVWSUVXLTM5ZjFlOGQwLTllM2ItNWMwNC1hNjY1LTJkZjc4NWYxOWVkNy1hdHRyLTQtdHlwZSIgY2xhc3M9ImVyIGVudGl0eUxhYmVsIj5pbnQ8L3RleHQ+PHJlY3QgaGVpZ2h0PSIyMiIgd2lkdGg9IjY1Ljk2ODk0ODM2NDI1NzgxIiB5PSI5MCIgeD0iNTIuMDY4NDk2NzA0MTAxNTYiIGNsYXNzPSJlciBhdHRyaWJ1dGVCb3hFdmVuIj48L3JlY3Q+PHRleHQgc3R5bGU9ImRvbWluYW50LWJhc2VsaW5lOiBtaWRkbGU7IGZvbnQtc2l6ZTogMTAuMnB4OyIgdHJhbnNmb3JtPSJ0cmFuc2xhdGUoNTcuMDY4NDk2NzA0MTAxNTYsMTAxKSIgeT0iMCIgeD0iMCIgaWQ9InRleHQtZW50aXR5LVJFVklFVy0zOWYxZThkMC05ZTNiLTVjMDQtYTY2NS0yZGY3ODVmMTllZDctYXR0ci00LW5hbWUiIGNsYXNzPSJlciBlbnRpdHlMYWJlbCI+Ym9va2luZ19pZDwvdGV4dD48cmVjdCBoZWlnaHQ9IjIyIiB3aWR0aD0iMjIuNjg3NjgzMTA1NDY4NzUiIHk9IjkwIiB4PSIxMTguMDM3NDQ1MDY4MzU5MzgiIGNsYXNzPSJlciBhdHRyaWJ1dGVCb3hFdmVuIj48L3JlY3Q+PHRleHQgc3R5bGU9ImRvbWluYW50LWJhc2VsaW5lOiBtaWRkbGU7IGZvbnQtc2l6ZTogMTAuMnB4OyIgdHJhbnNmb3JtPSJ0cmFuc2xhdGUoMTIzLjAzNzQ0NTA2ODM1OTM4LDEwMSkiIHk9IjAiIHg9IjAiIGlkPSJ0ZXh0LWVudGl0eS1SRVZJRVctMzlmMWU4ZDAtOWUzYi01YzA0LWE2NjUtMmRmNzg1ZjE5ZWQ3LWF0dHItNC1rZXkiIGNsYXNzPSJlciBlbnRpdHlMYWJlbCI+Rks8L3RleHQ+PHJlY3QgaGVpZ2h0PSIyMiIgd2lkdGg9IjUyLjA2ODQ5NjcwNDEwMTU2IiB5PSIxMTIiIHg9IjAiIGNsYXNzPSJlciBhdHRyaWJ1dGVCb3hPZGQiPjwvcmVjdD48dGV4dCBzdHlsZT0iZG9taW5hbnQtYmFzZWxpbmU6IG1pZGRsZTsgZm9udC1zaXplOiAxMC4ycHg7IiB0cmFuc2Zvcm09InRyYW5zbGF0ZSg1LDEyMykiIHk9IjAiIHg9IjAiIGlkPSJ0ZXh0LWVudGl0eS1SRVZJRVctMzlmMWU4ZDAtOWUzYi01YzA0LWE2NjUtMmRmNzg1ZjE5ZWQ3LWF0dHItNS10eXBlIiBjbGFzcz0iZXIgZW50aXR5TGFiZWwiPmludDwvdGV4dD48cmVjdCBoZWlnaHQ9IjIyIiB3aWR0aD0iNjUuOTY4OTQ4MzY0MjU3ODEiIHk9IjExMiIgeD0iNTIuMDY4NDk2NzA0MTAxNTYiIGNsYXNzPSJlciBhdHRyaWJ1dGVCb3hPZGQiPjwvcmVjdD48dGV4dCBzdHlsZT0iZG9taW5hbnQtYmFzZWxpbmU6IG1pZGRsZTsgZm9udC1zaXplOiAxMC4ycHg7IiB0cmFuc2Zvcm09InRyYW5zbGF0ZSg1Ny4wNjg0OTY3MDQxMDE1NiwxMjMpIiB5PSIwIiB4PSIwIiBpZD0idGV4dC1lbnRpdHktUkVWSUVXLTM5ZjFlOGQwLTllM2ItNWMwNC1hNjY1LTJkZjc4NWYxOWVkNy1hdHRyLTUtbmFtZSIgY2xhc3M9ImVyIGVudGl0eUxhYmVsIj5yYXRpbmc8L3RleHQ+PHJlY3QgaGVpZ2h0PSIyMiIgd2lkdGg9IjIyLjY4NzY4MzEwNTQ2ODc1IiB5PSIxMTIiIHg9IjExOC4wMzc0NDUwNjgzNTkzOCIgY2xhc3M9ImVyIGF0dHJpYnV0ZUJveE9kZCI+PC9yZWN0Pjx0ZXh0IHN0eWxlPSJkb21pbmFudC1iYXNlbGluZTogbWlkZGxlOyBmb250LXNpemU6IDEwLjJweDsiIHRyYW5zZm9ybT0idHJhbnNsYXRlKDEyMy4wMzc0NDUwNjgzNTkzOCwxMjMpIiB5PSIwIiB4PSIwIiBpZD0idGV4dC1lbnRpdHktUkVWSUVXLTM5ZjFlOGQwLTllM2ItNWMwNC1hNjY1LTJkZjc4NWYxOWVkNy1hdHRyLTUta2V5IiBjbGFzcz0iZXIgZW50aXR5TGFiZWwiPjwvdGV4dD48cmVjdCBoZWlnaHQ9IjIyIiB3aWR0aD0iNTIuMDY4NDk2NzA0MTAxNTYiIHk9IjEzNCIgeD0iMCIgY2xhc3M9ImVyIGF0dHJpYnV0ZUJveEV2ZW4iPjwvcmVjdD48dGV4dCBzdHlsZT0iZG9taW5hbnQtYmFzZWxpbmU6IG1pZGRsZTsgZm9udC1zaXplOiAxMC4ycHg7IiB0cmFuc2Zvcm09InRyYW5zbGF0ZSg1LDE0NSkiIHk9IjAiIHg9IjAiIGlkPSJ0ZXh0LWVudGl0eS1SRVZJRVctMzlmMWU4ZDAtOWUzYi01YzA0LWE2NjUtMmRmNzg1ZjE5ZWQ3LWF0dHItNi10eXBlIiBjbGFzcz0iZXIgZW50aXR5TGFiZWwiPnN0cmluZzwvdGV4dD48cmVjdCBoZWlnaHQ9IjIyIiB3aWR0aD0iNjUuOTY4OTQ4MzY0MjU3ODEiIHk9IjEzNCIgeD0iNTIuMDY4NDk2NzA0MTAxNTYiIGNsYXNzPSJlciBhdHRyaWJ1dGVCb3hFdmVuIj48L3JlY3Q+PHRleHQgc3R5bGU9ImRvbWluYW50LWJhc2VsaW5lOiBtaWRkbGU7IGZvbnQtc2l6ZTogMTAuMnB4OyIgdHJhbnNmb3JtPSJ0cmFuc2xhdGUoNTcuMDY4NDk2NzA0MTAxNTYsMTQ1KSIgeT0iMCIgeD0iMCIgaWQ9InRleHQtZW50aXR5LVJFVklFVy0zOWYxZThkMC05ZTNiLTVjMDQtYTY2NS0yZGY3ODVmMTllZDctYXR0ci02LW5hbWUiIGNsYXNzPSJlciBlbnRpdHlMYWJlbCI+Y29tbWVudHM8L3RleHQ+PHJlY3QgaGVpZ2h0PSIyMiIgd2lkdGg9IjIyLjY4NzY4MzEwNTQ2ODc1IiB5PSIxMzQiIHg9IjExOC4wMzc0NDUwNjgzNTkzOCIgY2xhc3M9ImVyIGF0dHJpYnV0ZUJveEV2ZW4iPjwvcmVjdD48dGV4dCBzdHlsZT0iZG9taW5hbnQtYmFzZWxpbmU6IG1pZGRsZTsgZm9udC1zaXplOiAxMC4ycHg7IiB0cmFuc2Zvcm09InRyYW5zbGF0ZSgxMjMuMDM3NDQ1MDY4MzU5MzgsMTQ1KSIgeT0iMCIgeD0iMCIgaWQ9InRleHQtZW50aXR5LVJFVklFVy0zOWYxZThkMC05ZTNiLTVjMDQtYTY2NS0yZGY3ODVmMTllZDctYXR0ci02LWtleSIgY2xhc3M9ImVyIGVudGl0eUxhYmVsIj48L3RleHQ+PHJlY3QgaGVpZ2h0PSIyMiIgd2lkdGg9IjUyLjA2ODQ5NjcwNDEwMTU2IiB5PSIxNTYiIHg9IjAiIGNsYXNzPSJlciBhdHRyaWJ1dGVCb3hPZGQiPjwvcmVjdD48dGV4dCBzdHlsZT0iZG9taW5hbnQtYmFzZWxpbmU6IG1pZGRsZTsgZm9udC1zaXplOiAxMC4ycHg7IiB0cmFuc2Zvcm09InRyYW5zbGF0ZSg1LDE2NykiIHk9IjAiIHg9IjAiIGlkPSJ0ZXh0LWVudGl0eS1SRVZJRVctMzlmMWU4ZDAtOWUzYi01YzA0LWE2NjUtMmRmNzg1ZjE5ZWQ3LWF0dHItNy10eXBlIiBjbGFzcz0iZXIgZW50aXR5TGFiZWwiPmRhdGV0aW1lPC90ZXh0PjxyZWN0IGhlaWdodD0iMjIiIHdpZHRoPSI2NS45Njg5NDgzNjQyNTc4MSIgeT0iMTU2IiB4PSI1Mi4wNjg0OTY3MDQxMDE1NiIgY2xhc3M9ImVyIGF0dHJpYnV0ZUJveE9kZCI+PC9yZWN0Pjx0ZXh0IHN0eWxlPSJkb21pbmFudC1iYXNlbGluZTogbWlkZGxlOyBmb250LXNpemU6IDEwLjJweDsiIHRyYW5zZm9ybT0idHJhbnNsYXRlKDU3LjA2ODQ5NjcwNDEwMTU2LDE2NykiIHk9IjAiIHg9IjAiIGlkPSJ0ZXh0LWVudGl0eS1SRVZJRVctMzlmMWU4ZDAtOWUzYi01YzA0LWE2NjUtMmRmNzg1ZjE5ZWQ3LWF0dHItNy1uYW1lIiBjbGFzcz0iZXIgZW50aXR5TGFiZWwiPmNyZWF0ZWRfYXQ8L3RleHQ+PHJlY3QgaGVpZ2h0PSIyMiIgd2lkdGg9IjIyLjY4NzY4MzEwNTQ2ODc1IiB5PSIxNTYiIHg9IjExOC4wMzc0NDUwNjgzNTkzOCIgY2xhc3M9ImVyIGF0dHJpYnV0ZUJveE9kZCI+PC9yZWN0Pjx0ZXh0IHN0eWxlPSJkb21pbmFudC1iYXNlbGluZTogbWlkZGxlOyBmb250LXNpemU6IDEwLjJweDsiIHRyYW5zZm9ybT0idHJhbnNsYXRlKDEyMy4wMzc0NDUwNjgzNTkzOCwxNjcpIiB5PSIwIiB4PSIwIiBpZD0idGV4dC1lbnRpdHktUkVWSUVXLTM5ZjFlOGQwLTllM2ItNWMwNC1hNjY1LTJkZjc4NWYxOWVkNy1hdHRyLTcta2V5IiBjbGFzcz0iZXIgZW50aXR5TGFiZWwiPjwvdGV4dD48cmVjdCBoZWlnaHQ9IjIyIiB3aWR0aD0iNTIuMDY4NDk2NzA0MTAxNTYiIHk9IjE3OCIgeD0iMCIgY2xhc3M9ImVyIGF0dHJpYnV0ZUJveEV2ZW4iPjwvcmVjdD48dGV4dCBzdHlsZT0iZG9taW5hbnQtYmFzZWxpbmU6IG1pZGRsZTsgZm9udC1zaXplOiAxMC4ycHg7IiB0cmFuc2Zvcm09InRyYW5zbGF0ZSg1LDE4OSkiIHk9IjAiIHg9IjAiIGlkPSJ0ZXh0LWVudGl0eS1SRVZJRVctMzlmMWU4ZDAtOWUzYi01YzA0LWE2NjUtMmRmNzg1ZjE5ZWQ3LWF0dHItOC10eXBlIiBjbGFzcz0iZXIgZW50aXR5TGFiZWwiPmRhdGV0aW1lPC90ZXh0PjxyZWN0IGhlaWdodD0iMjIiIHdpZHRoPSI2NS45Njg5NDgzNjQyNTc4MSIgeT0iMTc4IiB4PSI1Mi4wNjg0OTY3MDQxMDE1NiIgY2xhc3M9ImVyIGF0dHJpYnV0ZUJveEV2ZW4iPjwvcmVjdD48dGV4dCBzdHlsZT0iZG9taW5hbnQtYmFzZWxpbmU6IG1pZGRsZTsgZm9udC1zaXplOiAxMC4ycHg7IiB0cmFuc2Zvcm09InRyYW5zbGF0ZSg1Ny4wNjg0OTY3MDQxMDE1NiwxODkpIiB5PSIwIiB4PSIwIiBpZD0idGV4dC1lbnRpdHktUkVWSUVXLTM5ZjFlOGQwLTllM2ItNWMwNC1hNjY1LTJkZjc4NWYxOWVkNy1hdHRyLTgtbmFtZSIgY2xhc3M9ImVyIGVudGl0eUxhYmVsIj51cGRhdGVkX2F0PC90ZXh0PjxyZWN0IGhlaWdodD0iMjIiIHdpZHRoPSIyMi42ODc2ODMxMDU0Njg3NSIgeT0iMTc4IiB4PSIxMTguMDM3NDQ1MDY4MzU5MzgiIGNsYXNzPSJlciBhdHRyaWJ1dGVCb3hFdmVuIj48L3JlY3Q+PHRleHQgc3R5bGU9ImRvbWluYW50LWJhc2VsaW5lOiBtaWRkbGU7IGZvbnQtc2l6ZTogMTAuMnB4OyIgdHJhbnNmb3JtPSJ0cmFuc2xhdGUoMTIzLjAzNzQ0NTA2ODM1OTM4LDE4OSkiIHk9IjAiIHg9IjAiIGlkPSJ0ZXh0LWVudGl0eS1SRVZJRVctMzlmMWU4ZDAtOWUzYi01YzA0LWE2NjUtMmRmNzg1ZjE5ZWQ3LWF0dHItOC1rZXkiIGNsYXNzPSJlciBlbnRpdHlMYWJlbCI+PC90ZXh0PjwvZz48ZyB0cmFuc2Zvcm09InRyYW5zbGF0ZSgxMDIwLjQ4OTgwNzEyODkwNjIsMTIxNyApIiBpZD0iZW50aXR5LU1FU1NBR0UtNDVhY2UyMzUtNzBlNC01YzA0LTliNGMtMTJjODA3YTY1MTJjIj48cmVjdCBoZWlnaHQ9IjIwMCIgd2lkdGg9IjE0OS4xOTE5NDAzMDc2MTcyIiB5PSIwIiB4PSIwIiBjbGFzcz0iZXIgZW50aXR5Qm94Ij48L3JlY3Q+PHRleHQgc3R5bGU9ImRvbWluYW50LWJhc2VsaW5lOiBtaWRkbGU7IHRleHQtYW5jaG9yOiBtaWRkbGU7IGZvbnQtc2l6ZTogMTJweDsiIHRyYW5zZm9ybT0idHJhbnNsYXRlKDc0LjU5NTk3MDE1MzgwODYsMTIpIiB5PSIwIiB4PSIwIiBpZD0idGV4dC1lbnRpdHktTUVTU0FHRS00NWFjZTIzNS03MGU0LTVjMDQtOWI0Yy0xMmM4MDdhNjUxMmMiIGNsYXNzPSJlciBlbnRpdHlMYWJlbCI+TUVTU0FHRTwvdGV4dD48cmVjdCBoZWlnaHQ9IjIyIiB3aWR0aD0iNTIuMDY4NDk2NzA0MTAxNTYiIHk9IjI0IiB4PSIwIiBjbGFzcz0iZXIgYXR0cmlidXRlQm94T2RkIj48L3JlY3Q+PHRleHQgc3R5bGU9ImRvbWluYW50LWJhc2VsaW5lOiBtaWRkbGU7IGZvbnQtc2l6ZTogMTAuMnB4OyIgdHJhbnNmb3JtPSJ0cmFuc2xhdGUoNSwzNSkiIHk9IjAiIHg9IjAiIGlkPSJ0ZXh0LWVudGl0eS1NRVNTQUdFLTQ1YWNlMjM1LTcwZTQtNWMwNC05YjRjLTEyYzgwN2E2NTEyYy1hdHRyLTEtdHlwZSIgY2xhc3M9ImVyIGVudGl0eUxhYmVsIj5pbnQ8L3RleHQ+PHJlY3QgaGVpZ2h0PSIyMiIgd2lkdGg9Ijc0LjQzNTc2MDQ5ODA0Njg4IiB5PSIyNCIgeD0iNTIuMDY4NDk2NzA0MTAxNTYiIGNsYXNzPSJlciBhdHRyaWJ1dGVCb3hPZGQiPjwvcmVjdD48dGV4dCBzdHlsZT0iZG9taW5hbnQtYmFzZWxpbmU6IG1pZGRsZTsgZm9udC1zaXplOiAxMC4ycHg7IiB0cmFuc2Zvcm09InRyYW5zbGF0ZSg1Ny4wNjg0OTY3MDQxMDE1NiwzNSkiIHk9IjAiIHg9IjAiIGlkPSJ0ZXh0LWVudGl0eS1NRVNTQUdFLTQ1YWNlMjM1LTcwZTQtNWMwNC05YjRjLTEyYzgwN2E2NTEyYy1hdHRyLTEtbmFtZSIgY2xhc3M9ImVyIGVudGl0eUxhYmVsIj5tZXNzYWdlX2lkPC90ZXh0PjxyZWN0IGhlaWdodD0iMjIiIHdpZHRoPSIyMi42ODc2ODMxMDU0Njg3NSIgeT0iMjQiIHg9IjEyNi41MDQyNTcyMDIxNDg0NCIgY2xhc3M9ImVyIGF0dHJpYnV0ZUJveE9kZCI+PC9yZWN0Pjx0ZXh0IHN0eWxlPSJkb21pbmFudC1iYXNlbGluZTogbWlkZGxlOyBmb250LXNpemU6IDEwLjJweDsiIHRyYW5zZm9ybT0idHJhbnNsYXRlKDEzMS41MDQyNTcyMDIxNDg0NCwzNSkiIHk9IjAiIHg9IjAiIGlkPSJ0ZXh0LWVudGl0eS1NRVNTQUdFLTQ1YWNlMjM1LTcwZTQtNWMwNC05YjRjLTEyYzgwN2E2NTEyYy1hdHRyLTEta2V5IiBjbGFzcz0iZXIgZW50aXR5TGFiZWwiPlBLPC90ZXh0PjxyZWN0IGhlaWdodD0iMjIiIHdpZHRoPSI1Mi4wNjg0OTY3MDQxMDE1NiIgeT0iNDYiIHg9IjAiIGNsYXNzPSJlciBhdHRyaWJ1dGVCb3hFdmVuIj48L3JlY3Q+PHRleHQgc3R5bGU9ImRvbWluYW50LWJhc2VsaW5lOiBtaWRkbGU7IGZvbnQtc2l6ZTogMTAuMnB4OyIgdHJhbnNmb3JtPSJ0cmFuc2xhdGUoNSw1NykiIHk9IjAiIHg9IjAiIGlkPSJ0ZXh0LWVudGl0eS1NRVNTQUdFLTQ1YWNlMjM1LTcwZTQtNWMwNC05YjRjLTEyYzgwN2E2NTEyYy1hdHRyLTItdHlwZSIgY2xhc3M9ImVyIGVudGl0eUxhYmVsIj5pbnQ8L3RleHQ+PHJlY3QgaGVpZ2h0PSIyMiIgd2lkdGg9Ijc0LjQzNTc2MDQ5ODA0Njg4IiB5PSI0NiIgeD0iNTIuMDY4NDk2NzA0MTAxNTYiIGNsYXNzPSJlciBhdHRyaWJ1dGVCb3hFdmVuIj48L3JlY3Q+PHRleHQgc3R5bGU9ImRvbWluYW50LWJhc2VsaW5lOiBtaWRkbGU7IGZvbnQtc2l6ZTogMTAuMnB4OyIgdHJhbnNmb3JtPSJ0cmFuc2xhdGUoNTcuMDY4NDk2NzA0MTAxNTYsNTcpIiB5PSIwIiB4PSIwIiBpZD0idGV4dC1lbnRpdHktTUVTU0FHRS00NWFjZTIzNS03MGU0LTVjMDQtOWI0Yy0xMmM4MDdhNjUxMmMtYXR0ci0yLW5hbWUiIGNsYXNzPSJlciBlbnRpdHlMYWJlbCI+c2VuZGVyX2lkPC90ZXh0PjxyZWN0IGhlaWdodD0iMjIiIHdpZHRoPSIyMi42ODc2ODMxMDU0Njg3NSIgeT0iNDYiIHg9IjEyNi41MDQyNTcyMDIxNDg0NCIgY2xhc3M9ImVyIGF0dHJpYnV0ZUJveEV2ZW4iPjwvcmVjdD48dGV4dCBzdHlsZT0iZG9taW5hbnQtYmFzZWxpbmU6IG1pZGRsZTsgZm9udC1zaXplOiAxMC4ycHg7IiB0cmFuc2Zvcm09InRyYW5zbGF0ZSgxMzEuNTA0MjU3MjAyMTQ4NDQsNTcpIiB5PSIwIiB4PSIwIiBpZD0idGV4dC1lbnRpdHktTUVTU0FHRS00NWFjZTIzNS03MGU0LTVjMDQtOWI0Yy0xMmM4MDdhNjUxMmMtYXR0ci0yLWtleSIgY2xhc3M9ImVyIGVudGl0eUxhYmVsIj5GSzwvdGV4dD48cmVjdCBoZWlnaHQ9IjIyIiB3aWR0aD0iNTIuMDY4NDk2NzA0MTAxNTYiIHk9IjY4IiB4PSIwIiBjbGFzcz0iZXIgYXR0cmlidXRlQm94T2RkIj48L3JlY3Q+PHRleHQgc3R5bGU9ImRvbWluYW50LWJhc2VsaW5lOiBtaWRkbGU7IGZvbnQtc2l6ZTogMTAuMnB4OyIgdHJhbnNmb3JtPSJ0cmFuc2xhdGUoNSw3OSkiIHk9IjAiIHg9IjAiIGlkPSJ0ZXh0LWVudGl0eS1NRVNTQUdFLTQ1YWNlMjM1LTcwZTQtNWMwNC05YjRjLTEyYzgwN2E2NTEyYy1hdHRyLTMtdHlwZSIgY2xhc3M9ImVyIGVudGl0eUxhYmVsIj5pbnQ8L3RleHQ+PHJlY3QgaGVpZ2h0PSIyMiIgd2lkdGg9Ijc0LjQzNTc2MDQ5ODA0Njg4IiB5PSI2OCIgeD0iNTIuMDY4NDk2NzA0MTAxNTYiIGNsYXNzPSJlciBhdHRyaWJ1dGVCb3hPZGQiPjwvcmVjdD48dGV4dCBzdHlsZT0iZG9taW5hbnQtYmFzZWxpbmU6IG1pZGRsZTsgZm9udC1zaXplOiAxMC4ycHg7IiB0cmFuc2Zvcm09InRyYW5zbGF0ZSg1Ny4wNjg0OTY3MDQxMDE1Niw3OSkiIHk9IjAiIHg9IjAiIGlkPSJ0ZXh0LWVudGl0eS1NRVNTQUdFLTQ1YWNlMjM1LTcwZTQtNWMwNC05YjRjLTEyYzgwN2E2NTEyYy1hdHRyLTMtbmFtZSIgY2xhc3M9ImVyIGVudGl0eUxhYmVsIj5yZWNlaXZlcl9pZDwvdGV4dD48cmVjdCBoZWlnaHQ9IjIyIiB3aWR0aD0iMjIuNjg3NjgzMTA1NDY4NzUiIHk9IjY4IiB4PSIxMjYuNTA0MjU3MjAyMTQ4NDQiIGNsYXNzPSJlciBhdHRyaWJ1dGVCb3hPZGQiPjwvcmVjdD48dGV4dCBzdHlsZT0iZG9taW5hbnQtYmFzZWxpbmU6IG1pZGRsZTsgZm9udC1zaXplOiAxMC4ycHg7IiB0cmFuc2Zvcm09InRyYW5zbGF0ZSgxMzEuNTA0MjU3MjAyMTQ4NDQsNzkpIiB5PSIwIiB4PSIwIiBpZD0idGV4dC1lbnRpdHktTUVTU0FHRS00NWFjZTIzNS03MGU0LTVjMDQtOWI0Yy0xMmM4MDdhNjUxMmMtYXR0ci0zLWtleSIgY2xhc3M9ImVyIGVudGl0eUxhYmVsIj5GSzwvdGV4dD48cmVjdCBoZWlnaHQ9IjIyIiB3aWR0aD0iNTIuMDY4NDk2NzA0MTAxNTYiIHk9IjkwIiB4PSIwIiBjbGFzcz0iZXIgYXR0cmlidXRlQm94RXZlbiI+PC9yZWN0Pjx0ZXh0IHN0eWxlPSJkb21pbmFudC1iYXNlbGluZTogbWlkZGxlOyBmb250LXNpemU6IDEwLjJweDsiIHRyYW5zZm9ybT0idHJhbnNsYXRlKDUsMTAxKSIgeT0iMCIgeD0iMCIgaWQ9InRleHQtZW50aXR5LU1FU1NBR0UtNDVhY2UyMzUtNzBlNC01YzA0LTliNGMtMTJjODA3YTY1MTJjLWF0dHItNC10eXBlIiBjbGFzcz0iZXIgZW50aXR5TGFiZWwiPmludDwvdGV4dD48cmVjdCBoZWlnaHQ9IjIyIiB3aWR0aD0iNzQuNDM1NzYwNDk4MDQ2ODgiIHk9IjkwIiB4PSI1Mi4wNjg0OTY3MDQxMDE1NiIgY2xhc3M9ImVyIGF0dHJpYnV0ZUJveEV2ZW4iPjwvcmVjdD48dGV4dCBzdHlsZT0iZG9taW5hbnQtYmFzZWxpbmU6IG1pZGRsZTsgZm9udC1zaXplOiAxMC4ycHg7IiB0cmFuc2Zvcm09InRyYW5zbGF0ZSg1Ny4wNjg0OTY3MDQxMDE1NiwxMDEpIiB5PSIwIiB4PSIwIiBpZD0idGV4dC1lbnRpdHktTUVTU0FHRS00NWFjZTIzNS03MGU0LTVjMDQtOWI0Yy0xMmM4MDdhNjUxMmMtYXR0ci00LW5hbWUiIGNsYXNzPSJlciBlbnRpdHlMYWJlbCI+Ym9va2luZ19pZDwvdGV4dD48cmVjdCBoZWlnaHQ9IjIyIiB3aWR0aD0iMjIuNjg3NjgzMTA1NDY4NzUiIHk9IjkwIiB4PSIxMjYuNTA0MjU3MjAyMTQ4NDQiIGNsYXNzPSJlciBhdHRyaWJ1dGVCb3hFdmVuIj48L3JlY3Q+PHRleHQgc3R5bGU9ImRvbWluYW50LWJhc2VsaW5lOiBtaWRkbGU7IGZvbnQtc2l6ZTogMTAuMnB4OyIgdHJhbnNmb3JtPSJ0cmFuc2xhdGUoMTMxLjUwNDI1NzIwMjE0ODQ0LDEwMSkiIHk9IjAiIHg9IjAiIGlkPSJ0ZXh0LWVudGl0eS1NRVNTQUdFLTQ1YWNlMjM1LTcwZTQtNWMwNC05YjRjLTEyYzgwN2E2NTEyYy1hdHRyLTQta2V5IiBjbGFzcz0iZXIgZW50aXR5TGFiZWwiPkZLPC90ZXh0PjxyZWN0IGhlaWdodD0iMjIiIHdpZHRoPSI1Mi4wNjg0OTY3MDQxMDE1NiIgeT0iMTEyIiB4PSIwIiBjbGFzcz0iZXIgYXR0cmlidXRlQm94T2RkIj48L3JlY3Q+PHRleHQgc3R5bGU9ImRvbWluYW50LWJhc2VsaW5lOiBtaWRkbGU7IGZvbnQtc2l6ZTogMTAuMnB4OyIgdHJhbnNmb3JtPSJ0cmFuc2xhdGUoNSwxMjMpIiB5PSIwIiB4PSIwIiBpZD0idGV4dC1lbnRpdHktTUVTU0FHRS00NWFjZTIzNS03MGU0LTVjMDQtOWI0Yy0xMmM4MDdhNjUxMmMtYXR0ci01LXR5cGUiIGNsYXNzPSJlciBlbnRpdHlMYWJlbCI+c3RyaW5nPC90ZXh0PjxyZWN0IGhlaWdodD0iMjIiIHdpZHRoPSI3NC40MzU3NjA0OTgwNDY4OCIgeT0iMTEyIiB4PSI1Mi4wNjg0OTY3MDQxMDE1NiIgY2xhc3M9ImVyIGF0dHJpYnV0ZUJveE9kZCI+PC9yZWN0Pjx0ZXh0IHN0eWxlPSJkb21pbmFudC1iYXNlbGluZTogbWlkZGxlOyBmb250LXNpemU6IDEwLjJweDsiIHRyYW5zZm9ybT0idHJhbnNsYXRlKDU3LjA2ODQ5NjcwNDEwMTU2LDEyMykiIHk9IjAiIHg9IjAiIGlkPSJ0ZXh0LWVudGl0eS1NRVNTQUdFLTQ1YWNlMjM1LTcwZTQtNWMwNC05YjRjLTEyYzgwN2E2NTEyYy1hdHRyLTUtbmFtZSIgY2xhc3M9ImVyIGVudGl0eUxhYmVsIj5tZXNzYWdlX3RleHQ8L3RleHQ+PHJlY3QgaGVpZ2h0PSIyMiIgd2lkdGg9IjIyLjY4NzY4MzEwNTQ2ODc1IiB5PSIxMTIiIHg9IjEyNi41MDQyNTcyMDIxNDg0NCIgY2xhc3M9ImVyIGF0dHJpYnV0ZUJveE9kZCI+PC9yZWN0Pjx0ZXh0IHN0eWxlPSJkb21pbmFudC1iYXNlbGluZTogbWlkZGxlOyBmb250LXNpemU6IDEwLjJweDsiIHRyYW5zZm9ybT0idHJhbnNsYXRlKDEzMS41MDQyNTcyMDIxNDg0NCwxMjMpIiB5PSIwIiB4PSIwIiBpZD0idGV4dC1lbnRpdHktTUVTU0FHRS00NWFjZTIzNS03MGU0LTVjMDQtOWI0Yy0xMmM4MDdhNjUxMmMtYXR0ci01LWtleSIgY2xhc3M9ImVyIGVudGl0eUxhYmVsIj48L3RleHQ+PHJlY3QgaGVpZ2h0PSIyMiIgd2lkdGg9IjUyLjA2ODQ5NjcwNDEwMTU2IiB5PSIxMzQiIHg9IjAiIGNsYXNzPSJlciBhdHRyaWJ1dGVCb3hFdmVuIj48L3JlY3Q+PHRleHQgc3R5bGU9ImRvbWluYW50LWJhc2VsaW5lOiBtaWRkbGU7IGZvbnQtc2l6ZTogMTAuMnB4OyIgdHJhbnNmb3JtPSJ0cmFuc2xhdGUoNSwxNDUpIiB5PSIwIiB4PSIwIiBpZD0idGV4dC1lbnRpdHktTUVTU0FHRS00NWFjZTIzNS03MGU0LTVjMDQtOWI0Yy0xMmM4MDdhNjUxMmMtYXR0ci02LXR5cGUiIGNsYXNzPSJlciBlbnRpdHlMYWJlbCI+c3RyaW5nPC90ZXh0PjxyZWN0IGhlaWdodD0iMjIiIHdpZHRoPSI3NC40MzU3NjA0OTgwNDY4OCIgeT0iMTM0IiB4PSI1Mi4wNjg0OTY3MDQxMDE1NiIgY2xhc3M9ImVyIGF0dHJpYnV0ZUJveEV2ZW4iPjwvcmVjdD48dGV4dCBzdHlsZT0iZG9taW5hbnQtYmFzZWxpbmU6IG1pZGRsZTsgZm9udC1zaXplOiAxMC4ycHg7IiB0cmFuc2Zvcm09InRyYW5zbGF0ZSg1Ny4wNjg0OTY3MDQxMDE1NiwxNDUpIiB5PSIwIiB4PSIwIiBpZD0idGV4dC1lbnRpdHktTUVTU0FHRS00NWFjZTIzNS03MGU0LTVjMDQtOWI0Yy0xMmM4MDdhNjUxMmMtYXR0ci02LW5hbWUiIGNsYXNzPSJlciBlbnRpdHlMYWJlbCI+bWVzc2FnZV90eXBlPC90ZXh0PjxyZWN0IGhlaWdodD0iMjIiIHdpZHRoPSIyMi42ODc2ODMxMDU0Njg3NSIgeT0iMTM0IiB4PSIxMjYuNTA0MjU3MjAyMTQ4NDQiIGNsYXNzPSJlciBhdHRyaWJ1dGVCb3hFdmVuIj48L3JlY3Q+PHRleHQgc3R5bGU9ImRvbWluYW50LWJhc2VsaW5lOiBtaWRkbGU7IGZvbnQtc2l6ZTogMTAuMnB4OyIgdHJhbnNmb3JtPSJ0cmFuc2xhdGUoMTMxLjUwNDI1NzIwMjE0ODQ0LDE0NSkiIHk9IjAiIHg9IjAiIGlkPSJ0ZXh0LWVudGl0eS1NRVNTQUdFLTQ1YWNlMjM1LTcwZTQtNWMwNC05YjRjLTEyYzgwN2E2NTEyYy1hdHRyLTYta2V5IiBjbGFzcz0iZXIgZW50aXR5TGFiZWwiPjwvdGV4dD48cmVjdCBoZWlnaHQ9IjIyIiB3aWR0aD0iNTIuMDY4NDk2NzA0MTAxNTYiIHk9IjE1NiIgeD0iMCIgY2xhc3M9ImVyIGF0dHJpYnV0ZUJveE9kZCI+PC9yZWN0Pjx0ZXh0IHN0eWxlPSJkb21pbmFudC1iYXNlbGluZTogbWlkZGxlOyBmb250LXNpemU6IDEwLjJweDsiIHRyYW5zZm9ybT0idHJhbnNsYXRlKDUsMTY3KSIgeT0iMCIgeD0iMCIgaWQ9InRleHQtZW50aXR5LU1FU1NBR0UtNDVhY2UyMzUtNzBlNC01YzA0LTliNGMtMTJjODA3YTY1MTJjLWF0dHItNy10eXBlIiBjbGFzcz0iZXIgZW50aXR5TGFiZWwiPnN0cmluZzwvdGV4dD48cmVjdCBoZWlnaHQ9IjIyIiB3aWR0aD0iNzQuNDM1NzYwNDk4MDQ2ODgiIHk9IjE1NiIgeD0iNTIuMDY4NDk2NzA0MTAxNTYiIGNsYXNzPSJlciBhdHRyaWJ1dGVCb3hPZGQiPjwvcmVjdD48dGV4dCBzdHlsZT0iZG9taW5hbnQtYmFzZWxpbmU6IG1pZGRsZTsgZm9udC1zaXplOiAxMC4ycHg7IiB0cmFuc2Zvcm09InRyYW5zbGF0ZSg1Ny4wNjg0OTY3MDQxMDE1NiwxNjcpIiB5PSIwIiB4PSIwIiBpZD0idGV4dC1lbnRpdHktTUVTU0FHRS00NWFjZTIzNS03MGU0LTVjMDQtOWI0Yy0xMmM4MDdhNjUxMmMtYXR0ci03LW5hbWUiIGNsYXNzPSJlciBlbnRpdHlMYWJlbCI+cmVhZF9zdGF0dXM8L3RleHQ+PHJlY3QgaGVpZ2h0PSIyMiIgd2lkdGg9IjIyLjY4NzY4MzEwNTQ2ODc1IiB5PSIxNTYiIHg9IjEyNi41MDQyNTcyMDIxNDg0NCIgY2xhc3M9ImVyIGF0dHJpYnV0ZUJveE9kZCI+PC9yZWN0Pjx0ZXh0IHN0eWxlPSJkb21pbmFudC1iYXNlbGluZTogbWlkZGxlOyBmb250LXNpemU6IDEwLjJweDsiIHRyYW5zZm9ybT0idHJhbnNsYXRlKDEzMS41MDQyNTcyMDIxNDg0NCwxNjcpIiB5PSIwIiB4PSIwIiBpZD0idGV4dC1lbnRpdHktTUVTU0FHRS00NWFjZTIzNS03MGU0LTVjMDQtOWI0Yy0xMmM4MDdhNjUxMmMtYXR0ci03LWtleSIgY2xhc3M9ImVyIGVudGl0eUxhYmVsIj48L3RleHQ+PHJlY3QgaGVpZ2h0PSIyMiIgd2lkdGg9IjUyLjA2ODQ5NjcwNDEwMTU2IiB5PSIxNzgiIHg9IjAiIGNsYXNzPSJlciBhdHRyaWJ1dGVCb3hFdmVuIj48L3JlY3Q+PHRleHQgc3R5bGU9ImRvbWluYW50LWJhc2VsaW5lOiBtaWRkbGU7IGZvbnQtc2l6ZTogMTAuMnB4OyIgdHJhbnNmb3JtPSJ0cmFuc2xhdGUoNSwxODkpIiB5PSIwIiB4PSIwIiBpZD0idGV4dC1lbnRpdHktTUVTU0FHRS00NWFjZTIzNS03MGU0LTVjMDQtOWI0Yy0xMmM4MDdhNjUxMmMtYXR0ci04LXR5cGUiIGNsYXNzPSJlciBlbnRpdHlMYWJlbCI+ZGF0ZXRpbWU8L3RleHQ+PHJlY3QgaGVpZ2h0PSIyMiIgd2lkdGg9Ijc0LjQzNTc2MDQ5ODA0Njg4IiB5PSIxNzgiIHg9IjUyLjA2ODQ5NjcwNDEwMTU2IiBjbGFzcz0iZXIgYXR0cmlidXRlQm94RXZlbiI+PC9yZWN0Pjx0ZXh0IHN0eWxlPSJkb21pbmFudC1iYXNlbGluZTogbWlkZGxlOyBmb250LXNpemU6IDEwLjJweDsiIHRyYW5zZm9ybT0idHJhbnNsYXRlKDU3LjA2ODQ5NjcwNDEwMTU2LDE4OSkiIHk9IjAiIHg9IjAiIGlkPSJ0ZXh0LWVudGl0eS1NRVNTQUdFLTQ1YWNlMjM1LTcwZTQtNWMwNC05YjRjLTEyYzgwN2E2NTEyYy1hdHRyLTgtbmFtZSIgY2xhc3M9ImVyIGVudGl0eUxhYmVsIj5jcmVhdGVkX2F0PC90ZXh0PjxyZWN0IGhlaWdodD0iMjIiIHdpZHRoPSIyMi42ODc2ODMxMDU0Njg3NSIgeT0iMTc4IiB4PSIxMjYuNTA0MjU3MjAyMTQ4NDQiIGNsYXNzPSJlciBhdHRyaWJ1dGVCb3hFdmVuIj48L3JlY3Q+PHRleHQgc3R5bGU9ImRvbWluYW50LWJhc2VsaW5lOiBtaWRkbGU7IGZvbnQtc2l6ZTogMTAuMnB4OyIgdHJhbnNmb3JtPSJ0cmFuc2xhdGUoMTMxLjUwNDI1NzIwMjE0ODQ0LDE4OSkiIHk9IjAiIHg9IjAiIGlkPSJ0ZXh0LWVudGl0eS1NRVNTQUdFLTQ1YWNlMjM1LTcwZTQtNWMwNC05YjRjLTEyYzgwN2E2NTEyYy1hdHRyLTgta2V5IiBjbGFzcz0iZXIgZW50aXR5TGFiZWwiPjwvdGV4dD48L2c+PGcgdHJhbnNmb3JtPSJ0cmFuc2xhdGUoNTA2LjY2NjU4NzgyOTU4OTg0LDkxNyApIiBpZD0iZW50aXR5LVdJU0hMSVNULWNiY2QyYmNkLWQ4ZmMtNTJjNi05NWJmLThiMzI1YzJlZjE0NCI+PHJlY3QgaGVpZ2h0PSIxMTIiIHdpZHRoPSIxMzguNDE5MTg5NDUzMTI1IiB5PSIwIiB4PSIwIiBjbGFzcz0iZXIgZW50aXR5Qm94Ij48L3JlY3Q+PHRleHQgc3R5bGU9ImRvbWluYW50LWJhc2VsaW5lOiBtaWRkbGU7IHRleHQtYW5jaG9yOiBtaWRkbGU7IGZvbnQtc2l6ZTogMTJweDsiIHRyYW5zZm9ybT0idHJhbnNsYXRlKDY5LjIwOTU5NDcyNjU2MjUsMTIpIiB5PSIwIiB4PSIwIiBpZD0idGV4dC1lbnRpdHktV0lTSExJU1QtY2JjZDJiY2QtZDhmYy01MmM2LTk1YmYtOGIzMjVjMmVmMTQ0IiBjbGFzcz0iZXIgZW50aXR5TGFiZWwiPldJU0hMSVNUPC90ZXh0PjxyZWN0IGhlaWdodD0iMjIiIHdpZHRoPSI1Mi4wNjg0OTY3MDQxMDE1NiIgeT0iMjQiIHg9IjAiIGNsYXNzPSJlciBhdHRyaWJ1dGVCb3hPZGQiPjwvcmVjdD48dGV4dCBzdHlsZT0iZG9taW5hbnQtYmFzZWxpbmU6IG1pZGRsZTsgZm9udC1zaXplOiAxMC4ycHg7IiB0cmFuc2Zvcm09InRyYW5zbGF0ZSg1LDM1KSIgeT0iMCIgeD0iMCIgaWQ9InRleHQtZW50aXR5LVdJU0hMSVNULWNiY2QyYmNkLWQ4ZmMtNTJjNi05NWJmLThiMzI1YzJlZjE0NC1hdHRyLTEtdHlwZSIgY2xhc3M9ImVyIGVudGl0eUxhYmVsIj5pbnQ8L3RleHQ+PHJlY3QgaGVpZ2h0PSIyMiIgd2lkdGg9IjYzLjY2MzAwOTY0MzU1NDY5IiB5PSIyNCIgeD0iNTIuMDY4NDk2NzA0MTAxNTYiIGNsYXNzPSJlciBhdHRyaWJ1dGVCb3hPZGQiPjwvcmVjdD48dGV4dCBzdHlsZT0iZG9taW5hbnQtYmFzZWxpbmU6IG1pZGRsZTsgZm9udC1zaXplOiAxMC4ycHg7IiB0cmFuc2Zvcm09InRyYW5zbGF0ZSg1Ny4wNjg0OTY3MDQxMDE1NiwzNSkiIHk9IjAiIHg9IjAiIGlkPSJ0ZXh0LWVudGl0eS1XSVNITElTVC1jYmNkMmJjZC1kOGZjLTUyYzYtOTViZi04YjMyNWMyZWYxNDQtYXR0ci0xLW5hbWUiIGNsYXNzPSJlciBlbnRpdHlMYWJlbCI+d2lzaGxpc3RfaWQ8L3RleHQ+PHJlY3QgaGVpZ2h0PSIyMiIgd2lkdGg9IjIyLjY4NzY4MzEwNTQ2ODc1IiB5PSIyNCIgeD0iMTE1LjczMTUwNjM0NzY1NjI1IiBjbGFzcz0iZXIgYXR0cmlidXRlQm94T2RkIj48L3JlY3Q+PHRleHQgc3R5bGU9ImRvbWluYW50LWJhc2VsaW5lOiBtaWRkbGU7IGZvbnQtc2l6ZTogMTAuMnB4OyIgdHJhbnNmb3JtPSJ0cmFuc2xhdGUoMTIwLjczMTUwNjM0NzY1NjI1LDM1KSIgeT0iMCIgeD0iMCIgaWQ9InRleHQtZW50aXR5LVdJU0hMSVNULWNiY2QyYmNkLWQ4ZmMtNTJjNi05NWJmLThiMzI1YzJlZjE0NC1hdHRyLTEta2V5IiBjbGFzcz0iZXIgZW50aXR5TGFiZWwiPlBLPC90ZXh0PjxyZWN0IGhlaWdodD0iMjIiIHdpZHRoPSI1Mi4wNjg0OTY3MDQxMDE1NiIgeT0iNDYiIHg9IjAiIGNsYXNzPSJlciBhdHRyaWJ1dGVCb3hFdmVuIj48L3JlY3Q+PHRleHQgc3R5bGU9ImRvbWluYW50LWJhc2VsaW5lOiBtaWRkbGU7IGZvbnQtc2l6ZTogMTAuMnB4OyIgdHJhbnNmb3JtPSJ0cmFuc2xhdGUoNSw1NykiIHk9IjAiIHg9IjAiIGlkPSJ0ZXh0LWVudGl0eS1XSVNITElTVC1jYmNkMmJjZC1kOGZjLTUyYzYtOTViZi04YjMyNWMyZWYxNDQtYXR0ci0yLXR5cGUiIGNsYXNzPSJlciBlbnRpdHlMYWJlbCI+aW50PC90ZXh0PjxyZWN0IGhlaWdodD0iMjIiIHdpZHRoPSI2My42NjMwMDk2NDM1NTQ2OSIgeT0iNDYiIHg9IjUyLjA2ODQ5NjcwNDEwMTU2IiBjbGFzcz0iZXIgYXR0cmlidXRlQm94RXZlbiI+PC9yZWN0Pjx0ZXh0IHN0eWxlPSJkb21pbmFudC1iYXNlbGluZTogbWlkZGxlOyBmb250LXNpemU6IDEwLjJweDsiIHRyYW5zZm9ybT0idHJhbnNsYXRlKDU3LjA2ODQ5NjcwNDEwMTU2LDU3KSIgeT0iMCIgeD0iMCIgaWQ9InRleHQtZW50aXR5LVdJU0hMSVNULWNiY2QyYmNkLWQ4ZmMtNTJjNi05NWJmLThiMzI1YzJlZjE0NC1hdHRyLTItbmFtZSIgY2xhc3M9ImVyIGVudGl0eUxhYmVsIj51c2VyX2lkPC90ZXh0PjxyZWN0IGhlaWdodD0iMjIiIHdpZHRoPSIyMi42ODc2ODMxMDU0Njg3NSIgeT0iNDYiIHg9IjExNS43MzE1MDYzNDc2NTYyNSIgY2xhc3M9ImVyIGF0dHJpYnV0ZUJveEV2ZW4iPjwvcmVjdD48dGV4dCBzdHlsZT0iZG9taW5hbnQtYmFzZWxpbmU6IG1pZGRsZTsgZm9udC1zaXplOiAxMC4ycHg7IiB0cmFuc2Zvcm09InRyYW5zbGF0ZSgxMjAuNzMxNTA2MzQ3NjU2MjUsNTcpIiB5PSIwIiB4PSIwIiBpZD0idGV4dC1lbnRpdHktV0lTSExJU1QtY2JjZDJiY2QtZDhmYy01MmM2LTk1YmYtOGIzMjVjMmVmMTQ0LWF0dHItMi1rZXkiIGNsYXNzPSJlciBlbnRpdHlMYWJlbCI+Rks8L3RleHQ+PHJlY3QgaGVpZ2h0PSIyMiIgd2lkdGg9IjUyLjA2ODQ5NjcwNDEwMTU2IiB5PSI2OCIgeD0iMCIgY2xhc3M9ImVyIGF0dHJpYnV0ZUJveE9kZCI+PC9yZWN0Pjx0ZXh0IHN0eWxlPSJkb21pbmFudC1iYXNlbGluZTogbWlkZGxlOyBmb250LXNpemU6IDEwLjJweDsiIHRyYW5zZm9ybT0idHJhbnNsYXRlKDUsNzkpIiB5PSIwIiB4PSIwIiBpZD0idGV4dC1lbnRpdHktV0lTSExJU1QtY2JjZDJiY2QtZDhmYy01MmM2LTk1YmYtOGIzMjVjMmVmMTQ0LWF0dHItMy10eXBlIiBjbGFzcz0iZXIgZW50aXR5TGFiZWwiPmludDwvdGV4dD48cmVjdCBoZWlnaHQ9IjIyIiB3aWR0aD0iNjMuNjYzMDA5NjQzNTU0NjkiIHk9IjY4IiB4PSI1Mi4wNjg0OTY3MDQxMDE1NiIgY2xhc3M9ImVyIGF0dHJpYnV0ZUJveE9kZCI+PC9yZWN0Pjx0ZXh0IHN0eWxlPSJkb21pbmFudC1iYXNlbGluZTogbWlkZGxlOyBmb250LXNpemU6IDEwLjJweDsiIHRyYW5zZm9ybT0idHJhbnNsYXRlKDU3LjA2ODQ5NjcwNDEwMTU2LDc5KSIgeT0iMCIgeD0iMCIgaWQ9InRleHQtZW50aXR5LVdJU0hMSVNULWNiY2QyYmNkLWQ4ZmMtNTJjNi05NWJmLThiMzI1YzJlZjE0NC1hdHRyLTMtbmFtZSIgY2xhc3M9ImVyIGVudGl0eUxhYmVsIj5wcm9wZXJ0eV9pZDwvdGV4dD48cmVjdCBoZWlnaHQ9IjIyIiB3aWR0aD0iMjIuNjg3NjgzMTA1NDY4NzUiIHk9IjY4IiB4PSIxMTUuNzMxNTA2MzQ3NjU2MjUiIGNsYXNzPSJlciBhdHRyaWJ1dGVCb3hPZGQiPjwvcmVjdD48dGV4dCBzdHlsZT0iZG9taW5hbnQtYmFzZWxpbmU6IG1pZGRsZTsgZm9udC1zaXplOiAxMC4ycHg7IiB0cmFuc2Zvcm09InRyYW5zbGF0ZSgxMjAuNzMxNTA2MzQ3NjU2MjUsNzkpIiB5PSIwIiB4PSIwIiBpZD0idGV4dC1lbnRpdHktV0lTSExJU1QtY2JjZDJiY2QtZDhmYy01MmM2LTk1YmYtOGIzMjVjMmVmMTQ0LWF0dHItMy1rZXkiIGNsYXNzPSJlciBlbnRpdHlMYWJlbCI+Rks8L3RleHQ+PHJlY3QgaGVpZ2h0PSIyMiIgd2lkdGg9IjUyLjA2ODQ5NjcwNDEwMTU2IiB5PSI5MCIgeD0iMCIgY2xhc3M9ImVyIGF0dHJpYnV0ZUJveEV2ZW4iPjwvcmVjdD48dGV4dCBzdHlsZT0iZG9taW5hbnQtYmFzZWxpbmU6IG1pZGRsZTsgZm9udC1zaXplOiAxMC4ycHg7IiB0cmFuc2Zvcm09InRyYW5zbGF0ZSg1LDEwMSkiIHk9IjAiIHg9IjAiIGlkPSJ0ZXh0LWVudGl0eS1XSVNITElTVC1jYmNkMmJjZC1kOGZjLTUyYzYtOTViZi04YjMyNWMyZWYxNDQtYXR0ci00LXR5cGUiIGNsYXNzPSJlciBlbnRpdHlMYWJlbCI+ZGF0ZXRpbWU8L3RleHQ+PHJlY3QgaGVpZ2h0PSIyMiIgd2lkdGg9IjYzLjY2MzAwOTY0MzU1NDY5IiB5PSI5MCIgeD0iNTIuMDY4NDk2NzA0MTAxNTYiIGNsYXNzPSJlciBhdHRyaWJ1dGVCb3hFdmVuIj48L3JlY3Q+PHRleHQgc3R5bGU9ImRvbWluYW50LWJhc2VsaW5lOiBtaWRkbGU7IGZvbnQtc2l6ZTogMTAuMnB4OyIgdHJhbnNmb3JtPSJ0cmFuc2xhdGUoNTcuMDY4NDk2NzA0MTAxNTYsMTAxKSIgeT0iMCIgeD0iMCIgaWQ9InRleHQtZW50aXR5LVdJU0hMSVNULWNiY2QyYmNkLWQ4ZmMtNTJjNi05NWJmLThiMzI1YzJlZjE0NC1hdHRyLTQtbmFtZSIgY2xhc3M9ImVyIGVudGl0eUxhYmVsIj5hZGRlZF9hdDwvdGV4dD48cmVjdCBoZWlnaHQ9IjIyIiB3aWR0aD0iMjIuNjg3NjgzMTA1NDY4NzUiIHk9IjkwIiB4PSIxMTUuNzMxNTA2MzQ3NjU2MjUiIGNsYXNzPSJlciBhdHRyaWJ1dGVCb3hFdmVuIj48L3JlY3Q+PHRleHQgc3R5bGU9ImRvbWluYW50LWJhc2VsaW5lOiBtaWRkbGU7IGZvbnQtc2l6ZTogMTAuMnB4OyIgdHJhbnNmb3JtPSJ0cmFuc2xhdGUoMTIwLjczMTUwNjM0NzY1NjI1LDEwMSkiIHk9IjAiIHg9IjAiIGlkPSJ0ZXh0LWVudGl0eS1XSVNITElTVC1jYmNkMmJjZC1kOGZjLTUyYzYtOTViZi04YjMyNWMyZWYxNDQtYXR0ci00LWtleSIgY2xhc3M9ImVyIGVudGl0eUxhYmVsIj48L3RleHQ+PC9nPjxyZWN0IGhlaWdodD0iMTQiIHdpZHRoPSIyNy42MTEzMjgxMjUiIHk9IjI3NC40ODc1NDg4MjgxMjUiIHg9IjUxMS42MDQ3OTczNjMyODEyNSIgY2xhc3M9ImVyIHJlbGF0aW9uc2hpcExhYmVsQm94Ij48L3JlY3Q+PHRleHQgc3R5bGU9InRleHQtYW5jaG9yOiBtaWRkbGU7IGRvbWluYW50LWJhc2VsaW5lOiBtaWRkbGU7IGZvbnQtc2l6ZTogMTJweDsiIHk9IjI4MS40ODc1NDg4MjgxMjUiIHg9IjUyNS40MTA0NjE0MjU3ODEyIiBpZD0icmVsMSIgY2xhc3M9ImVyIHJlbGF0aW9uc2hpcExhYmVsIj5ob3N0czwvdGV4dD48cmVjdCBoZWlnaHQ9IjE0IiB3aWR0aD0iMjguOTgyNDIxODc1IiB5PSIzOTYuNTMwMjczNDM3NSIgeD0iMjYzLjE2ODMzNDk2MDkzNzUiIGNsYXNzPSJlciByZWxhdGlvbnNoaXBMYWJlbEJveCI+PC9yZWN0Pjx0ZXh0IHN0eWxlPSJ0ZXh0LWFuY2hvcjogbWlkZGxlOyBkb21pbmFudC1iYXNlbGluZTogbWlkZGxlOyBmb250LXNpemU6IDEycHg7IiB5PSI0MDMuNTMwMjczNDM3NSIgeD0iMjc3LjY1OTU0NTg5ODQzNzUiIGlkPSJyZWwyIiBjbGFzcz0iZXIgcmVsYXRpb25zaGlwTGFiZWwiPmd1ZXN0PC90ZXh0PjxyZWN0IGhlaWdodD0iMTQiIHdpZHRoPSIyMi44NTM1MTU2MjUiIHk9IjM2My44MDM5MjQ1NjA1NDY5IiB4PSIxOTguMTQzMzU2MzIzMjQyMiIgY2xhc3M9ImVyIHJlbGF0aW9uc2hpcExhYmVsQm94Ij48L3JlY3Q+PHRleHQgc3R5bGU9InRleHQtYW5jaG9yOiBtaWRkbGU7IGRvbWluYW50LWJhc2VsaW5lOiBtaWRkbGU7IGZvbnQtc2l6ZTogMTJweDsiIHk9IjM3MC44MDM5MjQ1NjA1NDY5IiB4PSIyMDkuNTcwMTE0MTM1NzQyMiIgaWQ9InJlbDMiIGNsYXNzPSJlciByZWxhdGlvbnNoaXBMYWJlbCI+aG9zdDwvdGV4dD48cmVjdCBoZWlnaHQ9IjE0IiB3aWR0aD0iNDAuOTgyNDIxODc1IiB5PSI3NDUuNjEyMjQzNjUyMzQzOCIgeD0iODI0LjU5NDc4NzU5NzY1NjIiIGNsYXNzPSJlciByZWxhdGlvbnNoaXBMYWJlbEJveCI+PC9yZWN0Pjx0ZXh0IHN0eWxlPSJ0ZXh0LWFuY2hvcjogbWlkZGxlOyBkb21pbmFudC1iYXNlbGluZTogbWlkZGxlOyBmb250LXNpemU6IDEycHg7IiB5PSI3NTIuNjEyMjQzNjUyMzQzOCIgeD0iODQ1LjA4NTk5ODUzNTE1NjIiIGlkPSJyZWw0IiBjbGFzcz0iZXIgcmVsYXRpb25zaGlwTGFiZWwiPnJldmlld3M8L3RleHQ+PHJlY3QgaGVpZ2h0PSIxNCIgd2lkdGg9IjM3LjE4OTQ1MzEyNSIgeT0iNjE0LjIzMjE3NzczNDM3NSIgeD0iMTEyNi40OTEzMzMwMDc4MTI1IiBjbGFzcz0iZXIgcmVsYXRpb25zaGlwTGFiZWxCb3giPjwvcmVjdD48dGV4dCBzdHlsZT0idGV4dC1hbmNob3I6IG1pZGRsZTsgZG9taW5hbnQtYmFzZWxpbmU6IG1pZGRsZTsgZm9udC1zaXplOiAxMnB4OyIgeT0iNjIxLjIzMjE3NzczNDM3NSIgeD0iMTE0NS4wODYwNTk1NzAzMTI1IiBpZD0icmVsNSIgY2xhc3M9ImVyIHJlbGF0aW9uc2hpcExhYmVsIj5zZW5kZXI8L3RleHQ+PHJlY3QgaGVpZ2h0PSIxNCIgd2lkdGg9IjQ1LjUzOTA2MjUiIHk9IjY1NS41ODY4NTMwMjczNDM4IiB4PSIxMDIyLjMxNjUyODMyMDMxMjUiIGNsYXNzPSJlciByZWxhdGlvbnNoaXBMYWJlbEJveCI+PC9yZWN0Pjx0ZXh0IHN0eWxlPSJ0ZXh0LWFuY2hvcjogbWlkZGxlOyBkb21pbmFudC1iYXNlbGluZTogbWlkZGxlOyBmb250LXNpemU6IDEycHg7IiB5PSI2NjIuNTg2ODUzMDI3MzQzOCIgeD0iMTA0NS4wODYwNTk1NzAzMTI1IiBpZD0icmVsNiIgY2xhc3M9ImVyIHJlbGF0aW9uc2hpcExhYmVsIj5yZWNlaXZlcjwvdGV4dD48cmVjdCBoZWlnaHQ9IjE0IiB3aWR0aD0iMjYuOTI1NzgxMjUiIHk9IjU4Ny4wNjU4NTY5MzM1OTM4IiB4PSI1OTcuMDA2NjUyODMyMDMxMiIgY2xhc3M9ImVyIHJlbGF0aW9uc2hpcExhYmVsQm94Ij48L3JlY3Q+PHRleHQgc3R5bGU9InRleHQtYW5jaG9yOiBtaWRkbGU7IGRvbWluYW50LWJhc2VsaW5lOiBtaWRkbGU7IGZvbnQtc2l6ZTogMTJweDsiIHk9IjU5NC4wNjU4NTY5MzM1OTM4IiB4PSI2MTAuNDY5NTQzNDU3MDMxMiIgaWQ9InJlbDciIGNsYXNzPSJlciByZWxhdGlvbnNoaXBMYWJlbCI+b3duczwvdGV4dD48cmVjdCBoZWlnaHQ9IjE0IiB3aWR0aD0iMTcuODYxMzI4MTI1IiB5PSI3MTEuNDMwOTY5MjM4MjgxMiIgeD0iMTcxLjI2MjE3NjUxMzY3MTg4IiBjbGFzcz0iZXIgcmVsYXRpb25zaGlwTGFiZWxCb3giPjwvcmVjdD48dGV4dCBzdHlsZT0idGV4dC1hbmNob3I6IG1pZGRsZTsgZG9taW5hbnQtYmFzZWxpbmU6IG1pZGRsZTsgZm9udC1zaXplOiAxMnB4OyIgeT0iNzE4LjQzMDk2OTIzODI4MTIiIHg9IjE4MC4xOTI4NDA1NzYxNzE4OCIgaWQ9InJlbDgiIGNsYXNzPSJlciByZWxhdGlvbnNoaXBMYWJlbCI+aGFzPC90ZXh0PjxyZWN0IGhlaWdodD0iMTQiIHdpZHRoPSI0NC4zMDY2NDA2MjUiIHk9IjgyNy41NTE3NTc4MTI1IiB4PSI0NDYuNDk2MDkzNzUiIGNsYXNzPSJlciByZWxhdGlvbnNoaXBMYWJlbEJveCI+PC9yZWN0Pjx0ZXh0IHN0eWxlPSJ0ZXh0LWFuY2hvcjogbWlkZGxlOyBkb21pbmFudC1iYXNlbGluZTogbWlkZGxlOyBmb250LXNpemU6IDEycHg7IiB5PSI4MzQuNTUxNzU3ODEyNSIgeD0iNDY4LjY0OTQxNDA2MjUiIGlkPSJyZWw5IiBjbGFzcz0iZXIgcmVsYXRpb25zaGlwTGFiZWwiPnNhdmVkIGluPC90ZXh0PjxyZWN0IGhlaWdodD0iMTQiIHdpZHRoPSI0MC45ODI0MjE4NzUiIHk9Ijg2My41MDkzMzgzNzg5MDYyIiB4PSI3MTcuNjQ2ODUwNTg1OTM3NSIgY2xhc3M9ImVyIHJlbGF0aW9uc2hpcExhYmVsQm94Ij48L3JlY3Q+PHRleHQgc3R5bGU9InRleHQtYW5jaG9yOiBtaWRkbGU7IGRvbWluYW50LWJhc2VsaW5lOiBtaWRkbGU7IGZvbnQtc2l6ZTogMTJweDsiIHk9Ijg3MC41MDkzMzgzNzg5MDYyIiB4PSI3MzguMTM4MDYxNTIzNDM3NSIgaWQ9InJlbDEwIiBjbGFzcz0iZXIgcmVsYXRpb25zaGlwTGFiZWwiPnJldmlld3M8L3RleHQ+PHJlY3QgaGVpZ2h0PSIxNCIgd2lkdGg9IjIzLjkwODIwMzEyNSIgeT0iMTE0Ni43NDIzMDk1NzAzMTI1IiB4PSI5NS43MTYzMzE0ODE5MzM2IiBjbGFzcz0iZXIgcmVsYXRpb25zaGlwTGFiZWxCb3giPjwvcmVjdD48dGV4dCBzdHlsZT0idGV4dC1hbmNob3I6IG1pZGRsZTsgZG9taW5hbnQtYmFzZWxpbmU6IG1pZGRsZTsgZm9udC1zaXplOiAxMnB4OyIgeT0iMTE1My43NDIzMDk1NzAzMTI1IiB4PSIxMDcuNjcwNDMzMDQ0NDMzNiIgaWQ9InJlbDExIiBjbGFzcz0iZXIgcmVsYXRpb25zaGlwTGFiZWwiPnBheXM8L3RleHQ+PHJlY3QgaGVpZ2h0PSIxNCIgd2lkdGg9IjYzLjI1IiB5PSIxMjA4Ljg0NzE2Nzk2ODc1IiB4PSI0MjQuMzUxODk4MTkzMzU5NCIgY2xhc3M9ImVyIHJlbGF0aW9uc2hpcExhYmVsQm94Ij48L3JlY3Q+PHRleHQgc3R5bGU9InRleHQtYW5jaG9yOiBtaWRkbGU7IGRvbWluYW50LWJhc2VsaW5lOiBtaWRkbGU7IGZvbnQtc2l6ZTogMTJweDsiIHk9IjEyMTUuODQ3MTY3OTY4NzUiIHg9IjQ1NS45NzY4OTgxOTMzNTk0IiBpZD0icmVsMTIiIGNsYXNzPSJlciByZWxhdGlvbnNoaXBMYWJlbCI+cmV2aWV3ZWQgaW48L3RleHQ+PHJlY3QgaGVpZ2h0PSIxNCIgd2lkdGg9IjkyLjc1IiB5PSIxMDgxLjQ4OTM3OTg4MjgxMjUiIHg9IjYxNS45MzI3MzkyNTc4MTI1IiBjbGFzcz0iZXIgcmVsYXRpb25zaGlwTGFiZWxCb3giPjwvcmVjdD48dGV4dCBzdHlsZT0idGV4dC1hbmNob3I6IG1pZGRsZTsgZG9taW5hbnQtYmFzZWxpbmU6IG1pZGRsZTsgZm9udC1zaXplOiAxMnB4OyIgeT0iMTA4OC40ODkzNzk4ODI4MTI1IiB4PSI2NjIuMzA3NzM5MjU3ODEyNSIgaWQ9InJlbDEzIiBjbGFzcz0iZXIgcmVsYXRpb25zaGlwTGFiZWwiPnJlbGF0ZWQgbWVzc2FnZXM8L3RleHQ+PC9zdmc+;shadow=0;sketch=1;curveFitting=1;jiggle=2;imageBackground=#1A1A1A;fillStyle=solid;" vertex="1" parent="1">
                        <mxGeometry x="-340" y="-460" width="1189.6817626953125" height="1448" as="geometry"/>
                    </mxCell>
                </UserObject>
            </root>
        </mxGraphModel>
    </diagram>
</mxfile>